solid OpenSCAD_Model
  facet normal -1 0 0
    outer loop
      vertex -15 -15 1
      vertex -15 15 6
      vertex -15 15 1
    endloop
  endfacet
  facet normal -1 -0 0
    outer loop
      vertex -15 15 6
      vertex -15 -15 1
      vertex -15 -15 6
    endloop
  endfacet
  facet normal 0 0 1
    outer loop
      vertex 15 15 6
      vertex 14 14 6
      vertex 15 -15 6
    endloop
  endfacet
  facet normal 0 0 1
    outer loop
      vertex 15 15 6
      vertex -14 14 6
      vertex 14 14 6
    endloop
  endfacet
  facet normal 0 0 1
    outer loop
      vertex -14 14 6
      vertex -15 15 6
      vertex -14 -14 6
    endloop
  endfacet
  facet normal -0 0 1
    outer loop
      vertex -15 15 6
      vertex -14 14 6
      vertex 15 15 6
    endloop
  endfacet
  facet normal -0 0 1
    outer loop
      vertex 14 -14 6
      vertex 15 -15 6
      vertex 14 14 6
    endloop
  endfacet
  facet normal -0 0 1
    outer loop
      vertex -14 -14 6
      vertex 15 -15 6
      vertex 14 -14 6
    endloop
  endfacet
  facet normal 0 0 1
    outer loop
      vertex -14 -14 6
      vertex -15 -15 6
      vertex 15 -15 6
    endloop
  endfacet
  facet normal 0 0 1
    outer loop
      vertex -15 -15 6
      vertex -14 -14 6
      vertex -15 15 6
    endloop
  endfacet
  facet normal 1 -0 0
    outer loop
      vertex 15 -15 6
      vertex 15 15 1
      vertex 15 15 6
    endloop
  endfacet
  facet normal 1 0 0
    outer loop
      vertex 15 15 1
      vertex 15 -15 6
      vertex 15 -15 1
    endloop
  endfacet
  facet normal 0 1 -0
    outer loop
      vertex 15 15 1
      vertex -15 15 6
      vertex 15 15 6
    endloop
  endfacet
  facet normal 0 1 0
    outer loop
      vertex -15 15 6
      vertex 15 15 1
      vertex -15 15 1
    endloop
  endfacet
  facet normal 0 0 1
    outer loop
      vertex 14 14 1
      vertex 13 13 1
      vertex 14 -14 1
    endloop
  endfacet
  facet normal 0 0 1
    outer loop
      vertex 14 14 1
      vertex -13 13 1
      vertex 13 13 1
    endloop
  endfacet
  facet normal 0 0 1
    outer loop
      vertex -13 13 1
      vertex -14 14 1
      vertex -13 -13 1
    endloop
  endfacet
  facet normal -0 0 1
    outer loop
      vertex -14 14 1
      vertex -13 13 1
      vertex 14 14 1
    endloop
  endfacet
  facet normal -0 0 1
    outer loop
      vertex 13 -13 1
      vertex 14 -14 1
      vertex 13 13 1
    endloop
  endfacet
  facet normal -0 0 1
    outer loop
      vertex -13 -13 1
      vertex 14 -14 1
      vertex 13 -13 1
    endloop
  endfacet
  facet normal 0 0 1
    outer loop
      vertex -13 -13 1
      vertex -14 -14 1
      vertex 14 -14 1
    endloop
  endfacet
  facet normal 0 0 1
    outer loop
      vertex -14 -14 1
      vertex -13 -13 1
      vertex -14 14 1
    endloop
  endfacet
  facet normal 0 0 1
    outer loop
      vertex 15 15 1
      vertex 39.5 0 1
      vertex 39.4221 2.48022 1
    endloop
  endfacet
  facet normal 0 0 1
    outer loop
      vertex 15 15 1
      vertex 39.4221 2.48022 1
      vertex 39.1885 4.95066 1
    endloop
  endfacet
  facet normal 0 0 1
    outer loop
      vertex 15 -15 1
      vertex 39.5 0 1
      vertex 15 15 1
    endloop
  endfacet
  facet normal 0 0 1
    outer loop
      vertex 15 15 1
      vertex 39.1885 4.95066 1
      vertex 38.8003 7.40156 1
    endloop
  endfacet
  facet normal 0 0 1
    outer loop
      vertex 39.5 0 1
      vertex 15 -15 1
      vertex 39.4221 -2.48022 1
    endloop
  endfacet
  facet normal 0 0 1
    outer loop
      vertex 15 15 1
      vertex 38.8003 7.40156 1
      vertex 38.259 9.82325 1
    endloop
  endfacet
  facet normal 0 0 1
    outer loop
      vertex 39.4221 -2.48022 1
      vertex 15 -15 1
      vertex 39.1885 -4.95066 1
    endloop
  endfacet
  facet normal 0 0 1
    outer loop
      vertex 15 15 1
      vertex 38.259 9.82325 1
      vertex 37.5667 12.2062 1
    endloop
  endfacet
  facet normal 0 0 1
    outer loop
      vertex 39.1885 -4.95066 1
      vertex 15 -15 1
      vertex 38.8003 -7.40156 1
    endloop
  endfacet
  facet normal 0 0 1
    outer loop
      vertex 15 15 1
      vertex 37.5667 12.2062 1
      vertex 36.7262 14.5409 1
    endloop
  endfacet
  facet normal 0 0 1
    outer loop
      vertex 38.8003 -7.40156 1
      vertex 15 -15 1
      vertex 38.259 -9.82325 1
    endloop
  endfacet
  facet normal -0 0 1
    outer loop
      vertex 15 15 1
      vertex 36.7262 14.5409 1
      vertex 35.7407 16.8183 1
    endloop
  endfacet
  facet normal 0 0 1
    outer loop
      vertex 38.259 -9.82325 1
      vertex 15 -15 1
      vertex 37.5667 -12.2062 1
    endloop
  endfacet
  facet normal 0 0 1
    outer loop
      vertex 15 15 1
      vertex 35.7407 16.8183 1
      vertex 34.6141 19.0293 1
    endloop
  endfacet
  facet normal 0 0 1
    outer loop
      vertex 37.5667 -12.2062 1
      vertex 15 -15 1
      vertex 36.7262 -14.5409 1
    endloop
  endfacet
  facet normal 0 0 1
    outer loop
      vertex 15 15 1
      vertex 34.6141 19.0293 1
      vertex 33.351 21.1652 1
    endloop
  endfacet
  facet normal 0 0 1
    outer loop
      vertex 36.7262 -14.5409 1
      vertex 15 -15 1
      vertex 35.7407 -16.8183 1
    endloop
  endfacet
  facet normal 0 0 1
    outer loop
      vertex 15 15 1
      vertex 33.351 21.1652 1
      vertex 31.9562 23.2175 1
    endloop
  endfacet
  facet normal 0 0 1
    outer loop
      vertex 35.7407 -16.8183 1
      vertex 15 -15 1
      vertex 34.6141 -19.0293 1
    endloop
  endfacet
  facet normal 0 0 1
    outer loop
      vertex 15 15 1
      vertex 31.9562 23.2175 1
      vertex 30.4353 25.1782 1
    endloop
  endfacet
  facet normal 0 0 1
    outer loop
      vertex 34.6141 -19.0293 1
      vertex 15 -15 1
      vertex 33.351 -21.1652 1
    endloop
  endfacet
  facet normal 0 0 1
    outer loop
      vertex 15 15 1
      vertex 30.4353 25.1782 1
      vertex 28.7943 27.0396 1
    endloop
  endfacet
  facet normal 0 0 1
    outer loop
      vertex 33.351 -21.1652 1
      vertex 15 -15 1
      vertex 31.9562 -23.2175 1
    endloop
  endfacet
  facet normal 0 0 1
    outer loop
      vertex 15 15 1
      vertex 28.7943 27.0396 1
      vertex 27.0396 28.7943 1
    endloop
  endfacet
  facet normal 0 0 1
    outer loop
      vertex 31.9562 -23.2175 1
      vertex 15 -15 1
      vertex 30.4353 -25.1782 1
    endloop
  endfacet
  facet normal 0 0 1
    outer loop
      vertex 15 15 1
      vertex 27.0396 28.7943 1
      vertex 25.1782 30.4353 1
    endloop
  endfacet
  facet normal 0 0 1
    outer loop
      vertex 30.4353 -25.1782 1
      vertex 15 -15 1
      vertex 28.7943 -27.0396 1
    endloop
  endfacet
  facet normal 0 0 1
    outer loop
      vertex 15 15 1
      vertex 25.1782 30.4353 1
      vertex 23.2175 31.9562 1
    endloop
  endfacet
  facet normal 0 0 1
    outer loop
      vertex 28.7943 -27.0396 1
      vertex 15 -15 1
      vertex 27.0396 -28.7943 1
    endloop
  endfacet
  facet normal 0 0 1
    outer loop
      vertex 15 15 1
      vertex 23.2175 31.9562 1
      vertex 21.1652 33.351 1
    endloop
  endfacet
  facet normal 0 0 1
    outer loop
      vertex 27.0396 -28.7943 1
      vertex 15 -15 1
      vertex 25.1782 -30.4353 1
    endloop
  endfacet
  facet normal 0 0 1
    outer loop
      vertex 15 15 1
      vertex 21.1652 33.351 1
      vertex 19.0293 34.6141 1
    endloop
  endfacet
  facet normal 0 0 1
    outer loop
      vertex 25.1782 -30.4353 1
      vertex 15 -15 1
      vertex 23.2175 -31.9562 1
    endloop
  endfacet
  facet normal 0 0 1
    outer loop
      vertex 15 15 1
      vertex 19.0293 34.6141 1
      vertex 16.8183 35.7407 1
    endloop
  endfacet
  facet normal 0 0 1
    outer loop
      vertex 23.2175 -31.9562 1
      vertex 15 -15 1
      vertex 21.1652 -33.351 1
    endloop
  endfacet
  facet normal 0 0 1
    outer loop
      vertex 21.1652 -33.351 1
      vertex 15 -15 1
      vertex 19.0293 -34.6141 1
    endloop
  endfacet
  facet normal 0 0 1
    outer loop
      vertex 14.5409 36.7262 1
      vertex 15 15 1
      vertex 16.8183 35.7407 1
    endloop
  endfacet
  facet normal 0 0 1
    outer loop
      vertex 12.2062 37.5667 1
      vertex 15 15 1
      vertex 14.5409 36.7262 1
    endloop
  endfacet
  facet normal 0 0 1
    outer loop
      vertex 9.82325 38.259 1
      vertex 15 15 1
      vertex 12.2062 37.5667 1
    endloop
  endfacet
  facet normal 0 0 1
    outer loop
      vertex 7.40156 38.8003 1
      vertex 15 15 1
      vertex 9.82325 38.259 1
    endloop
  endfacet
  facet normal 0 0 1
    outer loop
      vertex 4.95066 39.1885 1
      vertex 15 15 1
      vertex 7.40156 38.8003 1
    endloop
  endfacet
  facet normal 0 0 1
    outer loop
      vertex 2.48022 39.4221 1
      vertex 15 15 1
      vertex 4.95066 39.1885 1
    endloop
  endfacet
  facet normal 0 0 1
    outer loop
      vertex 0 39.5 1
      vertex 15 15 1
      vertex 2.48022 39.4221 1
    endloop
  endfacet
  facet normal 0 0 1
    outer loop
      vertex -15 15 1
      vertex 0 39.5 1
      vertex -2.48022 39.4221 1
    endloop
  endfacet
  facet normal 0 0 1
    outer loop
      vertex -15 15 1
      vertex -2.48022 39.4221 1
      vertex -4.95066 39.1885 1
    endloop
  endfacet
  facet normal 0 0 1
    outer loop
      vertex -15 15 1
      vertex -4.95066 39.1885 1
      vertex -7.40156 38.8003 1
    endloop
  endfacet
  facet normal 0 0 1
    outer loop
      vertex -15 15 1
      vertex -7.40156 38.8003 1
      vertex -9.82325 38.259 1
    endloop
  endfacet
  facet normal 0 0 1
    outer loop
      vertex -15 15 1
      vertex -9.82325 38.259 1
      vertex -12.2062 37.5667 1
    endloop
  endfacet
  facet normal 0 0 1
    outer loop
      vertex -15 15 1
      vertex -12.2062 37.5667 1
      vertex -14.5409 36.7262 1
    endloop
  endfacet
  facet normal 0 0 1
    outer loop
      vertex 0 39.5 1
      vertex -15 15 1
      vertex 15 15 1
    endloop
  endfacet
  facet normal -0 0 1
    outer loop
      vertex -19.0293 34.6141 1
      vertex -15 15 1
      vertex -16.8183 35.7407 1
    endloop
  endfacet
  facet normal -0 0 1
    outer loop
      vertex -16.8183 35.7407 1
      vertex -15 15 1
      vertex -14.5409 36.7262 1
    endloop
  endfacet
  facet normal 0 0 1
    outer loop
      vertex 19.0293 -34.6141 1
      vertex 15 -15 1
      vertex 16.8183 -35.7407 1
    endloop
  endfacet
  facet normal 0 0 1
    outer loop
      vertex 15 -15 1
      vertex 14.5409 -36.7262 1
      vertex 16.8183 -35.7407 1
    endloop
  endfacet
  facet normal 0 0 1
    outer loop
      vertex 15 -15 1
      vertex 12.2062 -37.5667 1
      vertex 14.5409 -36.7262 1
    endloop
  endfacet
  facet normal 0 0 1
    outer loop
      vertex 15 -15 1
      vertex 9.82325 -38.259 1
      vertex 12.2062 -37.5667 1
    endloop
  endfacet
  facet normal 0 0 1
    outer loop
      vertex 15 -15 1
      vertex 7.40156 -38.8003 1
      vertex 9.82325 -38.259 1
    endloop
  endfacet
  facet normal 0 0 1
    outer loop
      vertex 15 -15 1
      vertex 4.95066 -39.1885 1
      vertex 7.40156 -38.8003 1
    endloop
  endfacet
  facet normal 0 0 1
    outer loop
      vertex 15 -15 1
      vertex 2.48022 -39.4221 1
      vertex 4.95066 -39.1885 1
    endloop
  endfacet
  facet normal 0 0 1
    outer loop
      vertex 15 -15 1
      vertex 0 -39.5 1
      vertex 2.48022 -39.4221 1
    endloop
  endfacet
  facet normal -0 0 1
    outer loop
      vertex -15 -15 1
      vertex 0 -39.5 1
      vertex 15 -15 1
    endloop
  endfacet
  facet normal 0 0 1
    outer loop
      vertex 0 -39.5 1
      vertex -15 -15 1
      vertex -2.48022 -39.4221 1
    endloop
  endfacet
  facet normal 0 0 1
    outer loop
      vertex -2.48022 -39.4221 1
      vertex -15 -15 1
      vertex -4.95066 -39.1885 1
    endloop
  endfacet
  facet normal 0 0 1
    outer loop
      vertex -4.95066 -39.1885 1
      vertex -15 -15 1
      vertex -7.40156 -38.8003 1
    endloop
  endfacet
  facet normal 0 0 1
    outer loop
      vertex -7.40156 -38.8003 1
      vertex -15 -15 1
      vertex -9.82325 -38.259 1
    endloop
  endfacet
  facet normal 0 0 1
    outer loop
      vertex -9.82325 -38.259 1
      vertex -15 -15 1
      vertex -12.2062 -37.5667 1
    endloop
  endfacet
  facet normal 0 0 1
    outer loop
      vertex -12.2062 -37.5667 1
      vertex -15 -15 1
      vertex -14.5409 -36.7262 1
    endloop
  endfacet
  facet normal -0 0 1
    outer loop
      vertex -21.1652 33.351 1
      vertex -15 15 1
      vertex -19.0293 34.6141 1
    endloop
  endfacet
  facet normal 0 0 1
    outer loop
      vertex -15 -15 1
      vertex -16.8183 -35.7407 1
      vertex -14.5409 -36.7262 1
    endloop
  endfacet
  facet normal -0 0 1
    outer loop
      vertex -23.2175 31.9562 1
      vertex -15 15 1
      vertex -21.1652 33.351 1
    endloop
  endfacet
  facet normal 0 0 1
    outer loop
      vertex -15 -15 1
      vertex -19.0293 -34.6141 1
      vertex -16.8183 -35.7407 1
    endloop
  endfacet
  facet normal -0 0 1
    outer loop
      vertex -25.1782 30.4353 1
      vertex -15 15 1
      vertex -23.2175 31.9562 1
    endloop
  endfacet
  facet normal 0 0 1
    outer loop
      vertex -15 -15 1
      vertex -21.1652 -33.351 1
      vertex -19.0293 -34.6141 1
    endloop
  endfacet
  facet normal -0 0 1
    outer loop
      vertex -27.0396 28.7943 1
      vertex -15 15 1
      vertex -25.1782 30.4353 1
    endloop
  endfacet
  facet normal 0 0 1
    outer loop
      vertex -15 -15 1
      vertex -23.2175 -31.9562 1
      vertex -21.1652 -33.351 1
    endloop
  endfacet
  facet normal -0 0 1
    outer loop
      vertex -28.7943 27.0396 1
      vertex -15 15 1
      vertex -27.0396 28.7943 1
    endloop
  endfacet
  facet normal 0 0 1
    outer loop
      vertex -15 -15 1
      vertex -25.1782 -30.4353 1
      vertex -23.2175 -31.9562 1
    endloop
  endfacet
  facet normal -0 0 1
    outer loop
      vertex -30.4353 25.1782 1
      vertex -15 15 1
      vertex -28.7943 27.0396 1
    endloop
  endfacet
  facet normal 0 0 1
    outer loop
      vertex -15 -15 1
      vertex -27.0396 -28.7943 1
      vertex -25.1782 -30.4353 1
    endloop
  endfacet
  facet normal -0 0 1
    outer loop
      vertex -31.9562 23.2175 1
      vertex -15 15 1
      vertex -30.4353 25.1782 1
    endloop
  endfacet
  facet normal 0 0 1
    outer loop
      vertex -15 -15 1
      vertex -28.7943 -27.0396 1
      vertex -27.0396 -28.7943 1
    endloop
  endfacet
  facet normal -0 0 1
    outer loop
      vertex -33.351 21.1652 1
      vertex -15 15 1
      vertex -31.9562 23.2175 1
    endloop
  endfacet
  facet normal 0 0 1
    outer loop
      vertex -15 -15 1
      vertex -30.4353 -25.1782 1
      vertex -28.7943 -27.0396 1
    endloop
  endfacet
  facet normal -0 0 1
    outer loop
      vertex -34.6141 19.0293 1
      vertex -15 15 1
      vertex -33.351 21.1652 1
    endloop
  endfacet
  facet normal 0 0 1
    outer loop
      vertex -15 -15 1
      vertex -31.9562 -23.2175 1
      vertex -30.4353 -25.1782 1
    endloop
  endfacet
  facet normal -0 0 1
    outer loop
      vertex -35.7407 16.8183 1
      vertex -15 15 1
      vertex -34.6141 19.0293 1
    endloop
  endfacet
  facet normal 0 0 1
    outer loop
      vertex -15 -15 1
      vertex -33.351 -21.1652 1
      vertex -31.9562 -23.2175 1
    endloop
  endfacet
  facet normal 0 0 1
    outer loop
      vertex -36.7262 14.5409 1
      vertex -15 15 1
      vertex -35.7407 16.8183 1
    endloop
  endfacet
  facet normal 0 0 1
    outer loop
      vertex -15 -15 1
      vertex -34.6141 -19.0293 1
      vertex -33.351 -21.1652 1
    endloop
  endfacet
  facet normal 0 0 1
    outer loop
      vertex -37.5667 12.2062 1
      vertex -15 15 1
      vertex -36.7262 14.5409 1
    endloop
  endfacet
  facet normal 0 0 1
    outer loop
      vertex -15 -15 1
      vertex -35.7407 -16.8183 1
      vertex -34.6141 -19.0293 1
    endloop
  endfacet
  facet normal 0 0 1
    outer loop
      vertex -38.259 9.82325 1
      vertex -15 15 1
      vertex -37.5667 12.2062 1
    endloop
  endfacet
  facet normal 0 0 1
    outer loop
      vertex -15 -15 1
      vertex -36.7262 -14.5409 1
      vertex -35.7407 -16.8183 1
    endloop
  endfacet
  facet normal 0 0 1
    outer loop
      vertex -38.8003 7.40156 1
      vertex -15 15 1
      vertex -38.259 9.82325 1
    endloop
  endfacet
  facet normal 0 0 1
    outer loop
      vertex -15 -15 1
      vertex -37.5667 -12.2062 1
      vertex -36.7262 -14.5409 1
    endloop
  endfacet
  facet normal 0 0 1
    outer loop
      vertex -39.1885 4.95066 1
      vertex -15 15 1
      vertex -38.8003 7.40156 1
    endloop
  endfacet
  facet normal 0 0 1
    outer loop
      vertex -15 -15 1
      vertex -38.259 -9.82325 1
      vertex -37.5667 -12.2062 1
    endloop
  endfacet
  facet normal 0 0 1
    outer loop
      vertex -39.4221 2.48022 1
      vertex -15 15 1
      vertex -39.1885 4.95066 1
    endloop
  endfacet
  facet normal 0 0 1
    outer loop
      vertex -15 -15 1
      vertex -38.8003 -7.40156 1
      vertex -38.259 -9.82325 1
    endloop
  endfacet
  facet normal 0 0 1
    outer loop
      vertex -39.5 0 1
      vertex -15 15 1
      vertex -39.4221 2.48022 1
    endloop
  endfacet
  facet normal 0 0 1
    outer loop
      vertex -15 -15 1
      vertex -39.1885 -4.95066 1
      vertex -38.8003 -7.40156 1
    endloop
  endfacet
  facet normal 0 0 1
    outer loop
      vertex -15 15 1
      vertex -39.5 0 1
      vertex -15 -15 1
    endloop
  endfacet
  facet normal 0 0 1
    outer loop
      vertex -15 -15 1
      vertex -39.4221 -2.48022 1
      vertex -39.1885 -4.95066 1
    endloop
  endfacet
  facet normal 0 0 1
    outer loop
      vertex -15 -15 1
      vertex -39.5 0 1
      vertex -39.4221 -2.48022 1
    endloop
  endfacet
  facet normal 0 -1 0
    outer loop
      vertex -15 -15 1
      vertex 15 -15 6
      vertex -15 -15 6
    endloop
  endfacet
  facet normal 0 -1 -0
    outer loop
      vertex 15 -15 6
      vertex -15 -15 1
      vertex 15 -15 1
    endloop
  endfacet
  facet normal 1 -0 0
    outer loop
      vertex -14 -14 6
      vertex -14 14 1
      vertex -14 14 6
    endloop
  endfacet
  facet normal 1 0 0
    outer loop
      vertex -14 14 1
      vertex -14 -14 6
      vertex -14 -14 1
    endloop
  endfacet
  facet normal -1 0 0
    outer loop
      vertex 14 -14 1
      vertex 14 14 6
      vertex 14 14 1
    endloop
  endfacet
  facet normal -1 -0 0
    outer loop
      vertex 14 14 6
      vertex 14 -14 1
      vertex 14 -14 6
    endloop
  endfacet
  facet normal 0 1 -0
    outer loop
      vertex 14 -14 1
      vertex -14 -14 6
      vertex 14 -14 6
    endloop
  endfacet
  facet normal 0 1 0
    outer loop
      vertex -14 -14 6
      vertex 14 -14 1
      vertex -14 -14 1
    endloop
  endfacet
  facet normal 0 -1 0
    outer loop
      vertex -14 14 1
      vertex 14 14 6
      vertex -14 14 6
    endloop
  endfacet
  facet normal 0 -1 -0
    outer loop
      vertex 14 14 6
      vertex -14 14 1
      vertex 14 14 1
    endloop
  endfacet
  facet normal 0.999507 0.0314114 0
    outer loop
      vertex 39.5 0 1
      vertex 39.4221 2.48022 -1
      vertex 39.4221 2.48022 1
    endloop
  endfacet
  facet normal 0.999507 0.0314114 0
    outer loop
      vertex 39.4221 2.48022 -1
      vertex 39.5 0 1
      vertex 39.5 0 -1
    endloop
  endfacet
  facet normal -0.999507 0.0314114 0
    outer loop
      vertex -39.5 0 -1
      vertex -39.4221 2.48022 1
      vertex -39.4221 2.48022 -1
    endloop
  endfacet
  facet normal -0.999507 0.0314114 0
    outer loop
      vertex -39.4221 2.48022 1
      vertex -39.5 0 -1
      vertex -39.5 0 1
    endloop
  endfacet
  facet normal 0.0314114 0.999507 -0
    outer loop
      vertex 2.48022 39.4221 -1
      vertex 0 39.5 1
      vertex 2.48022 39.4221 1
    endloop
  endfacet
  facet normal 0.0314114 0.999507 0
    outer loop
      vertex 0 39.5 1
      vertex 2.48022 39.4221 -1
      vertex 0 39.5 -1
    endloop
  endfacet
  facet normal 0.707107 0.707107 0
    outer loop
      vertex 28.7943 27.0396 1
      vertex 27.0396 28.7943 -1
      vertex 27.0396 28.7943 1
    endloop
  endfacet
  facet normal 0.707107 0.707107 0
    outer loop
      vertex 27.0396 28.7943 -1
      vertex 28.7943 27.0396 1
      vertex 28.7943 27.0396 -1
    endloop
  endfacet
  facet normal -0.661312 0.750111 0
    outer loop
      vertex -25.1782 30.4353 -1
      vertex -27.0396 28.7943 1
      vertex -25.1782 30.4353 1
    endloop
  endfacet
  facet normal -0.661312 0.750111 0
    outer loop
      vertex -27.0396 28.7943 1
      vertex -25.1782 30.4353 -1
      vertex -27.0396 28.7943 -1
    endloop
  endfacet
  facet normal -0.338738 0.940881 0
    outer loop
      vertex -12.2062 37.5667 -1
      vertex -14.5409 36.7262 1
      vertex -12.2062 37.5667 1
    endloop
  endfacet
  facet normal -0.338738 0.940881 0
    outer loop
      vertex -14.5409 36.7262 1
      vertex -12.2062 37.5667 -1
      vertex -14.5409 36.7262 -1
    endloop
  endfacet
  facet normal 0.917755 0.397147 0
    outer loop
      vertex 36.7262 14.5409 1
      vertex 35.7407 16.8183 -1
      vertex 35.7407 16.8183 1
    endloop
  endfacet
  facet normal 0.917755 0.397147 0
    outer loop
      vertex 35.7407 16.8183 -1
      vertex 36.7262 14.5409 1
      vertex 36.7262 14.5409 -1
    endloop
  endfacet
  facet normal 0.397147 0.917755 -0
    outer loop
      vertex 16.8183 35.7407 -1
      vertex 14.5409 36.7262 1
      vertex 16.8183 35.7407 1
    endloop
  endfacet
  facet normal 0.397147 0.917755 0
    outer loop
      vertex 14.5409 36.7262 1
      vertex 16.8183 35.7407 -1
      vertex 14.5409 36.7262 -1
    endloop
  endfacet
  facet normal 0.562083 0.827081 -0
    outer loop
      vertex 23.2175 31.9562 -1
      vertex 21.1652 33.351 1
      vertex 23.2175 31.9562 1
    endloop
  endfacet
  facet normal 0.562083 0.827081 0
    outer loop
      vertex 21.1652 33.351 1
      vertex 23.2175 31.9562 -1
      vertex 21.1652 33.351 -1
    endloop
  endfacet
  facet normal -0.891006 0.453991 0
    outer loop
      vertex -35.7407 16.8183 -1
      vertex -34.6141 19.0293 1
      vertex -34.6141 19.0293 -1
    endloop
  endfacet
  facet normal -0.891006 0.453991 0
    outer loop
      vertex -34.6141 19.0293 1
      vertex -35.7407 16.8183 -1
      vertex -35.7407 16.8183 1
    endloop
  endfacet
  facet normal -0.750111 0.661312 0
    outer loop
      vertex -30.4353 25.1782 -1
      vertex -28.7943 27.0396 1
      vertex -28.7943 27.0396 -1
    endloop
  endfacet
  facet normal -0.750111 0.661312 0
    outer loop
      vertex -28.7943 27.0396 1
      vertex -30.4353 25.1782 -1
      vertex -30.4353 25.1782 1
    endloop
  endfacet
  facet normal -0.156434 0.987688 0
    outer loop
      vertex -4.95066 39.1885 -1
      vertex -7.40156 38.8003 1
      vertex -4.95066 39.1885 1
    endloop
  endfacet
  facet normal -0.156434 0.987688 0
    outer loop
      vertex -7.40156 38.8003 1
      vertex -4.95066 39.1885 -1
      vertex -7.40156 38.8003 -1
    endloop
  endfacet
  facet normal -0.750111 -0.661312 0
    outer loop
      vertex -28.7943 -27.0396 -1
      vertex -30.4353 -25.1782 1
      vertex -30.4353 -25.1782 -1
    endloop
  endfacet
  facet normal -0.750111 -0.661312 0
    outer loop
      vertex -30.4353 -25.1782 1
      vertex -28.7943 -27.0396 -1
      vertex -28.7943 -27.0396 1
    endloop
  endfacet
  facet normal 0 0 -1
    outer loop
      vertex 13 -13 -1
      vertex 39.5 0 -1
      vertex 39.4221 -2.48022 -1
    endloop
  endfacet
  facet normal 0 0 -1
    outer loop
      vertex 13 -13 -1
      vertex 39.4221 -2.48022 -1
      vertex 39.1885 -4.95066 -1
    endloop
  endfacet
  facet normal 0 0 -1
    outer loop
      vertex 13 13 -1
      vertex 39.5 0 -1
      vertex 13 -13 -1
    endloop
  endfacet
  facet normal 0 0 -1
    outer loop
      vertex 13 -13 -1
      vertex 39.1885 -4.95066 -1
      vertex 38.8003 -7.40156 -1
    endloop
  endfacet
  facet normal 0 0 -1
    outer loop
      vertex 39.5 0 -1
      vertex 13 13 -1
      vertex 39.4221 2.48022 -1
    endloop
  endfacet
  facet normal 0 0 -1
    outer loop
      vertex 13 -13 -1
      vertex 38.8003 -7.40156 -1
      vertex 38.259 -9.82325 -1
    endloop
  endfacet
  facet normal 0 0 -1
    outer loop
      vertex 39.4221 2.48022 -1
      vertex 13 13 -1
      vertex 39.1885 4.95066 -1
    endloop
  endfacet
  facet normal 0 0 -1
    outer loop
      vertex 13 -13 -1
      vertex 38.259 -9.82325 -1
      vertex 37.5667 -12.2062 -1
    endloop
  endfacet
  facet normal 0 0 -1
    outer loop
      vertex 39.1885 4.95066 -1
      vertex 13 13 -1
      vertex 38.8003 7.40156 -1
    endloop
  endfacet
  facet normal 0 0 -1
    outer loop
      vertex 13 -13 -1
      vertex 37.5667 -12.2062 -1
      vertex 36.7262 -14.5409 -1
    endloop
  endfacet
  facet normal 0 0 -1
    outer loop
      vertex 38.8003 7.40156 -1
      vertex 13 13 -1
      vertex 38.259 9.82325 -1
    endloop
  endfacet
  facet normal 0 0 -1
    outer loop
      vertex 13 -13 -1
      vertex 36.7262 -14.5409 -1
      vertex 35.7407 -16.8183 -1
    endloop
  endfacet
  facet normal 0 0 -1
    outer loop
      vertex 38.259 9.82325 -1
      vertex 13 13 -1
      vertex 37.5667 12.2062 -1
    endloop
  endfacet
  facet normal 0 0 -1
    outer loop
      vertex 13 -13 -1
      vertex 35.7407 -16.8183 -1
      vertex 34.6141 -19.0293 -1
    endloop
  endfacet
  facet normal 0 0 -1
    outer loop
      vertex 37.5667 12.2062 -1
      vertex 13 13 -1
      vertex 36.7262 14.5409 -1
    endloop
  endfacet
  facet normal 0 0 -1
    outer loop
      vertex 13 -13 -1
      vertex 34.6141 -19.0293 -1
      vertex 33.351 -21.1652 -1
    endloop
  endfacet
  facet normal -0 0 -1
    outer loop
      vertex 36.7262 14.5409 -1
      vertex 13 13 -1
      vertex 35.7407 16.8183 -1
    endloop
  endfacet
  facet normal 0 0 -1
    outer loop
      vertex 13 -13 -1
      vertex 33.351 -21.1652 -1
      vertex 31.9562 -23.2175 -1
    endloop
  endfacet
  facet normal -0 0 -1
    outer loop
      vertex 35.7407 16.8183 -1
      vertex 13 13 -1
      vertex 34.6141 19.0293 -1
    endloop
  endfacet
  facet normal 0 0 -1
    outer loop
      vertex 13 -13 -1
      vertex 31.9562 -23.2175 -1
      vertex 30.4353 -25.1782 -1
    endloop
  endfacet
  facet normal -0 0 -1
    outer loop
      vertex 34.6141 19.0293 -1
      vertex 13 13 -1
      vertex 33.351 21.1652 -1
    endloop
  endfacet
  facet normal 0 0 -1
    outer loop
      vertex 13 -13 -1
      vertex 30.4353 -25.1782 -1
      vertex 28.7943 -27.0396 -1
    endloop
  endfacet
  facet normal -0 0 -1
    outer loop
      vertex 33.351 21.1652 -1
      vertex 13 13 -1
      vertex 31.9562 23.2175 -1
    endloop
  endfacet
  facet normal 0 0 -1
    outer loop
      vertex 13 -13 -1
      vertex 28.7943 -27.0396 -1
      vertex 27.0396 -28.7943 -1
    endloop
  endfacet
  facet normal -0 0 -1
    outer loop
      vertex 31.9562 23.2175 -1
      vertex 13 13 -1
      vertex 30.4353 25.1782 -1
    endloop
  endfacet
  facet normal 0 0 -1
    outer loop
      vertex 13 -13 -1
      vertex 27.0396 -28.7943 -1
      vertex 25.1782 -30.4353 -1
    endloop
  endfacet
  facet normal -0 0 -1
    outer loop
      vertex 30.4353 25.1782 -1
      vertex 13 13 -1
      vertex 28.7943 27.0396 -1
    endloop
  endfacet
  facet normal 0 0 -1
    outer loop
      vertex 13 -13 -1
      vertex 25.1782 -30.4353 -1
      vertex 23.2175 -31.9562 -1
    endloop
  endfacet
  facet normal -0 0 -1
    outer loop
      vertex 28.7943 27.0396 -1
      vertex 13 13 -1
      vertex 27.0396 28.7943 -1
    endloop
  endfacet
  facet normal 0 0 -1
    outer loop
      vertex 13 -13 -1
      vertex 23.2175 -31.9562 -1
      vertex 21.1652 -33.351 -1
    endloop
  endfacet
  facet normal -0 0 -1
    outer loop
      vertex 27.0396 28.7943 -1
      vertex 13 13 -1
      vertex 25.1782 30.4353 -1
    endloop
  endfacet
  facet normal 0 0 -1
    outer loop
      vertex 13 -13 -1
      vertex 21.1652 -33.351 -1
      vertex 19.0293 -34.6141 -1
    endloop
  endfacet
  facet normal -0 0 -1
    outer loop
      vertex 25.1782 30.4353 -1
      vertex 13 13 -1
      vertex 23.2175 31.9562 -1
    endloop
  endfacet
  facet normal 0 0 -1
    outer loop
      vertex 13 -13 -1
      vertex 19.0293 -34.6141 -1
      vertex 16.8183 -35.7407 -1
    endloop
  endfacet
  facet normal -0 0 -1
    outer loop
      vertex 23.2175 31.9562 -1
      vertex 13 13 -1
      vertex 21.1652 33.351 -1
    endloop
  endfacet
  facet normal 0 0 -1
    outer loop
      vertex 13 -13 -1
      vertex 16.8183 -35.7407 -1
      vertex 14.5409 -36.7262 -1
    endloop
  endfacet
  facet normal -0 0 -1
    outer loop
      vertex 21.1652 33.351 -1
      vertex 13 13 -1
      vertex 19.0293 34.6141 -1
    endloop
  endfacet
  facet normal -0 0 -1
    outer loop
      vertex 19.0293 34.6141 -1
      vertex 13 13 -1
      vertex 16.8183 35.7407 -1
    endloop
  endfacet
  facet normal 0 0 -1
    outer loop
      vertex 12.2062 -37.5667 -1
      vertex 13 -13 -1
      vertex 14.5409 -36.7262 -1
    endloop
  endfacet
  facet normal 0 0 -1
    outer loop
      vertex 9.82325 -38.259 -1
      vertex 13 -13 -1
      vertex 12.2062 -37.5667 -1
    endloop
  endfacet
  facet normal 0 0 -1
    outer loop
      vertex 7.40156 -38.8003 -1
      vertex 13 -13 -1
      vertex 9.82325 -38.259 -1
    endloop
  endfacet
  facet normal 0 0 -1
    outer loop
      vertex 4.95066 -39.1885 -1
      vertex 13 -13 -1
      vertex 7.40156 -38.8003 -1
    endloop
  endfacet
  facet normal 0 0 -1
    outer loop
      vertex 2.48022 -39.4221 -1
      vertex 13 -13 -1
      vertex 4.95066 -39.1885 -1
    endloop
  endfacet
  facet normal 0 0 -1
    outer loop
      vertex 0 -39.5 -1
      vertex 13 -13 -1
      vertex 2.48022 -39.4221 -1
    endloop
  endfacet
  facet normal 0 0 -1
    outer loop
      vertex -13 -13 -1
      vertex 0 -39.5 -1
      vertex -2.48022 -39.4221 -1
    endloop
  endfacet
  facet normal 0 0 -1
    outer loop
      vertex -13 -13 -1
      vertex -2.48022 -39.4221 -1
      vertex -4.95066 -39.1885 -1
    endloop
  endfacet
  facet normal 0 0 -1
    outer loop
      vertex -13 -13 -1
      vertex -4.95066 -39.1885 -1
      vertex -7.40156 -38.8003 -1
    endloop
  endfacet
  facet normal 0 0 -1
    outer loop
      vertex -13 -13 -1
      vertex -7.40156 -38.8003 -1
      vertex -9.82325 -38.259 -1
    endloop
  endfacet
  facet normal 0 0 -1
    outer loop
      vertex -13 -13 -1
      vertex -9.82325 -38.259 -1
      vertex -12.2062 -37.5667 -1
    endloop
  endfacet
  facet normal 0 0 -1
    outer loop
      vertex 0 -39.5 -1
      vertex -13 -13 -1
      vertex 13 -13 -1
    endloop
  endfacet
  facet normal 0 0 -1
    outer loop
      vertex -16.8183 -35.7407 -1
      vertex -13 -13 -1
      vertex -14.5409 -36.7262 -1
    endloop
  endfacet
  facet normal 0 0 -1
    outer loop
      vertex -14.5409 -36.7262 -1
      vertex -13 -13 -1
      vertex -12.2062 -37.5667 -1
    endloop
  endfacet
  facet normal -0 0 -1
    outer loop
      vertex 16.8183 35.7407 -1
      vertex 13 13 -1
      vertex 14.5409 36.7262 -1
    endloop
  endfacet
  facet normal 0 0 -1
    outer loop
      vertex 13 13 -1
      vertex 12.2062 37.5667 -1
      vertex 14.5409 36.7262 -1
    endloop
  endfacet
  facet normal 0 0 -1
    outer loop
      vertex 13 13 -1
      vertex 9.82325 38.259 -1
      vertex 12.2062 37.5667 -1
    endloop
  endfacet
  facet normal 0 0 -1
    outer loop
      vertex 13 13 -1
      vertex 7.40156 38.8003 -1
      vertex 9.82325 38.259 -1
    endloop
  endfacet
  facet normal 0 0 -1
    outer loop
      vertex 13 13 -1
      vertex 4.95066 39.1885 -1
      vertex 7.40156 38.8003 -1
    endloop
  endfacet
  facet normal 0 0 -1
    outer loop
      vertex 13 13 -1
      vertex 2.48022 39.4221 -1
      vertex 4.95066 39.1885 -1
    endloop
  endfacet
  facet normal 0 0 -1
    outer loop
      vertex 13 13 -1
      vertex 0 39.5 -1
      vertex 2.48022 39.4221 -1
    endloop
  endfacet
  facet normal 0 0 -1
    outer loop
      vertex -13 13 -1
      vertex 0 39.5 -1
      vertex 13 13 -1
    endloop
  endfacet
  facet normal 0 0 -1
    outer loop
      vertex 0 39.5 -1
      vertex -13 13 -1
      vertex -2.48022 39.4221 -1
    endloop
  endfacet
  facet normal 0 0 -1
    outer loop
      vertex -2.48022 39.4221 -1
      vertex -13 13 -1
      vertex -4.95066 39.1885 -1
    endloop
  endfacet
  facet normal 0 0 -1
    outer loop
      vertex -4.95066 39.1885 -1
      vertex -13 13 -1
      vertex -7.40156 38.8003 -1
    endloop
  endfacet
  facet normal 0 0 -1
    outer loop
      vertex -7.40156 38.8003 -1
      vertex -13 13 -1
      vertex -9.82325 38.259 -1
    endloop
  endfacet
  facet normal 0 0 -1
    outer loop
      vertex -9.82325 38.259 -1
      vertex -13 13 -1
      vertex -12.2062 37.5667 -1
    endloop
  endfacet
  facet normal 0 0 -1
    outer loop
      vertex -13 13 -1
      vertex -14.5409 36.7262 -1
      vertex -12.2062 37.5667 -1
    endloop
  endfacet
  facet normal 0 0 -1
    outer loop
      vertex -19.0293 -34.6141 -1
      vertex -13 -13 -1
      vertex -16.8183 -35.7407 -1
    endloop
  endfacet
  facet normal 0 0 -1
    outer loop
      vertex -21.1652 -33.351 -1
      vertex -13 -13 -1
      vertex -19.0293 -34.6141 -1
    endloop
  endfacet
  facet normal 0 0 -1
    outer loop
      vertex -13 13 -1
      vertex -16.8183 35.7407 -1
      vertex -14.5409 36.7262 -1
    endloop
  endfacet
  facet normal 0 0 -1
    outer loop
      vertex -23.2175 -31.9562 -1
      vertex -13 -13 -1
      vertex -21.1652 -33.351 -1
    endloop
  endfacet
  facet normal 0 0 -1
    outer loop
      vertex -13 13 -1
      vertex -19.0293 34.6141 -1
      vertex -16.8183 35.7407 -1
    endloop
  endfacet
  facet normal 0 0 -1
    outer loop
      vertex -25.1782 -30.4353 -1
      vertex -13 -13 -1
      vertex -23.2175 -31.9562 -1
    endloop
  endfacet
  facet normal 0 0 -1
    outer loop
      vertex -13 13 -1
      vertex -21.1652 33.351 -1
      vertex -19.0293 34.6141 -1
    endloop
  endfacet
  facet normal 0 0 -1
    outer loop
      vertex -27.0396 -28.7943 -1
      vertex -13 -13 -1
      vertex -25.1782 -30.4353 -1
    endloop
  endfacet
  facet normal 0 0 -1
    outer loop
      vertex -13 13 -1
      vertex -23.2175 31.9562 -1
      vertex -21.1652 33.351 -1
    endloop
  endfacet
  facet normal 0 0 -1
    outer loop
      vertex -28.7943 -27.0396 -1
      vertex -13 -13 -1
      vertex -27.0396 -28.7943 -1
    endloop
  endfacet
  facet normal 0 0 -1
    outer loop
      vertex -13 13 -1
      vertex -25.1782 30.4353 -1
      vertex -23.2175 31.9562 -1
    endloop
  endfacet
  facet normal 0 0 -1
    outer loop
      vertex -30.4353 -25.1782 -1
      vertex -13 -13 -1
      vertex -28.7943 -27.0396 -1
    endloop
  endfacet
  facet normal 0 0 -1
    outer loop
      vertex -13 13 -1
      vertex -27.0396 28.7943 -1
      vertex -25.1782 30.4353 -1
    endloop
  endfacet
  facet normal 0 0 -1
    outer loop
      vertex -31.9562 -23.2175 -1
      vertex -13 -13 -1
      vertex -30.4353 -25.1782 -1
    endloop
  endfacet
  facet normal 0 0 -1
    outer loop
      vertex -13 13 -1
      vertex -28.7943 27.0396 -1
      vertex -27.0396 28.7943 -1
    endloop
  endfacet
  facet normal 0 0 -1
    outer loop
      vertex -33.351 -21.1652 -1
      vertex -13 -13 -1
      vertex -31.9562 -23.2175 -1
    endloop
  endfacet
  facet normal 0 0 -1
    outer loop
      vertex -13 13 -1
      vertex -30.4353 25.1782 -1
      vertex -28.7943 27.0396 -1
    endloop
  endfacet
  facet normal 0 0 -1
    outer loop
      vertex -34.6141 -19.0293 -1
      vertex -13 -13 -1
      vertex -33.351 -21.1652 -1
    endloop
  endfacet
  facet normal 0 0 -1
    outer loop
      vertex -13 13 -1
      vertex -31.9562 23.2175 -1
      vertex -30.4353 25.1782 -1
    endloop
  endfacet
  facet normal 0 0 -1
    outer loop
      vertex -35.7407 -16.8183 -1
      vertex -13 -13 -1
      vertex -34.6141 -19.0293 -1
    endloop
  endfacet
  facet normal 0 0 -1
    outer loop
      vertex -13 13 -1
      vertex -33.351 21.1652 -1
      vertex -31.9562 23.2175 -1
    endloop
  endfacet
  facet normal 0 0 -1
    outer loop
      vertex -36.7262 -14.5409 -1
      vertex -13 -13 -1
      vertex -35.7407 -16.8183 -1
    endloop
  endfacet
  facet normal 0 0 -1
    outer loop
      vertex -13 13 -1
      vertex -34.6141 19.0293 -1
      vertex -33.351 21.1652 -1
    endloop
  endfacet
  facet normal 0 0 -1
    outer loop
      vertex -37.5667 -12.2062 -1
      vertex -13 -13 -1
      vertex -36.7262 -14.5409 -1
    endloop
  endfacet
  facet normal 0 0 -1
    outer loop
      vertex -13 13 -1
      vertex -35.7407 16.8183 -1
      vertex -34.6141 19.0293 -1
    endloop
  endfacet
  facet normal 0 0 -1
    outer loop
      vertex -38.259 -9.82325 -1
      vertex -13 -13 -1
      vertex -37.5667 -12.2062 -1
    endloop
  endfacet
  facet normal 0 0 -1
    outer loop
      vertex -13 13 -1
      vertex -36.7262 14.5409 -1
      vertex -35.7407 16.8183 -1
    endloop
  endfacet
  facet normal 0 0 -1
    outer loop
      vertex -38.8003 -7.40156 -1
      vertex -13 -13 -1
      vertex -38.259 -9.82325 -1
    endloop
  endfacet
  facet normal -0 0 -1
    outer loop
      vertex -13 13 -1
      vertex -37.5667 12.2062 -1
      vertex -36.7262 14.5409 -1
    endloop
  endfacet
  facet normal 0 0 -1
    outer loop
      vertex -39.1885 -4.95066 -1
      vertex -13 -13 -1
      vertex -38.8003 -7.40156 -1
    endloop
  endfacet
  facet normal 0 0 -1
    outer loop
      vertex -13 13 -1
      vertex -38.259 9.82325 -1
      vertex -37.5667 12.2062 -1
    endloop
  endfacet
  facet normal 0 0 -1
    outer loop
      vertex -39.4221 -2.48022 -1
      vertex -13 -13 -1
      vertex -39.1885 -4.95066 -1
    endloop
  endfacet
  facet normal 0 0 -1
    outer loop
      vertex -13 13 -1
      vertex -38.8003 7.40156 -1
      vertex -38.259 9.82325 -1
    endloop
  endfacet
  facet normal 0 0 -1
    outer loop
      vertex -39.5 0 -1
      vertex -13 -13 -1
      vertex -39.4221 -2.48022 -1
    endloop
  endfacet
  facet normal 0 0 -1
    outer loop
      vertex -13 13 -1
      vertex -39.1885 4.95066 -1
      vertex -38.8003 7.40156 -1
    endloop
  endfacet
  facet normal 0 0 -1
    outer loop
      vertex -13 -13 -1
      vertex -39.5 0 -1
      vertex -13 13 -1
    endloop
  endfacet
  facet normal 0 0 -1
    outer loop
      vertex -13 13 -1
      vertex -39.4221 2.48022 -1
      vertex -39.1885 4.95066 -1
    endloop
  endfacet
  facet normal 0 0 -1
    outer loop
      vertex -13 13 -1
      vertex -39.5 0 -1
      vertex -39.4221 2.48022 -1
    endloop
  endfacet
  facet normal 0.975917 0.218144 0
    outer loop
      vertex 38.8003 7.40156 1
      vertex 38.259 9.82325 -1
      vertex 38.259 9.82325 1
    endloop
  endfacet
  facet normal 0.975917 0.218144 0
    outer loop
      vertex 38.259 9.82325 -1
      vertex 38.8003 7.40156 1
      vertex 38.8003 7.40156 -1
    endloop
  endfacet
  facet normal 0.827081 0.562083 0
    outer loop
      vertex 33.351 21.1652 1
      vertex 31.9562 23.2175 -1
      vertex 31.9562 23.2175 1
    endloop
  endfacet
  facet normal 0.827081 0.562083 0
    outer loop
      vertex 31.9562 23.2175 -1
      vertex 33.351 21.1652 1
      vertex 33.351 21.1652 -1
    endloop
  endfacet
  facet normal 0.790155 0.612907 0
    outer loop
      vertex 31.9562 23.2175 1
      vertex 30.4353 25.1782 -1
      vertex 30.4353 25.1782 1
    endloop
  endfacet
  facet normal 0.790155 0.612907 0
    outer loop
      vertex 30.4353 25.1782 -1
      vertex 31.9562 23.2175 1
      vertex 31.9562 23.2175 -1
    endloop
  endfacet
  facet normal 0.891006 0.453991 0
    outer loop
      vertex 35.7407 16.8183 1
      vertex 34.6141 19.0293 -1
      vertex 34.6141 19.0293 1
    endloop
  endfacet
  facet normal 0.891006 0.453991 0
    outer loop
      vertex 34.6141 19.0293 -1
      vertex 35.7407 16.8183 1
      vertex 35.7407 16.8183 -1
    endloop
  endfacet
  facet normal 0.278991 0.960294 -0
    outer loop
      vertex 12.2062 37.5667 -1
      vertex 9.82325 38.259 1
      vertex 12.2062 37.5667 1
    endloop
  endfacet
  facet normal 0.278991 0.960294 0
    outer loop
      vertex 9.82325 38.259 1
      vertex 12.2062 37.5667 -1
      vertex 9.82325 38.259 -1
    endloop
  endfacet
  facet normal 0.338738 0.940881 -0
    outer loop
      vertex 14.5409 36.7262 -1
      vertex 12.2062 37.5667 1
      vertex 14.5409 36.7262 1
    endloop
  endfacet
  facet normal 0.338738 0.940881 0
    outer loop
      vertex 12.2062 37.5667 1
      vertex 14.5409 36.7262 -1
      vertex 12.2062 37.5667 -1
    endloop
  endfacet
  facet normal 0.509042 0.860742 -0
    outer loop
      vertex 21.1652 33.351 -1
      vertex 19.0293 34.6141 1
      vertex 21.1652 33.351 1
    endloop
  endfacet
  facet normal 0.509042 0.860742 0
    outer loop
      vertex 19.0293 34.6141 1
      vertex 21.1652 33.351 -1
      vertex 19.0293 34.6141 -1
    endloop
  endfacet
  facet normal 0.612907 0.790155 -0
    outer loop
      vertex 25.1782 30.4353 -1
      vertex 23.2175 31.9562 1
      vertex 25.1782 30.4353 1
    endloop
  endfacet
  facet normal 0.612907 0.790155 0
    outer loop
      vertex 23.2175 31.9562 1
      vertex 25.1782 30.4353 -1
      vertex 23.2175 31.9562 -1
    endloop
  endfacet
  facet normal -0.960294 0.278991 0
    outer loop
      vertex -38.259 9.82325 -1
      vertex -37.5667 12.2062 1
      vertex -37.5667 12.2062 -1
    endloop
  endfacet
  facet normal -0.960294 0.278991 0
    outer loop
      vertex -37.5667 12.2062 1
      vertex -38.259 9.82325 -1
      vertex -38.259 9.82325 1
    endloop
  endfacet
  facet normal -0.790155 0.612907 0
    outer loop
      vertex -31.9562 23.2175 -1
      vertex -30.4353 25.1782 1
      vertex -30.4353 25.1782 -1
    endloop
  endfacet
  facet normal -0.790155 0.612907 0
    outer loop
      vertex -30.4353 25.1782 1
      vertex -31.9562 23.2175 -1
      vertex -31.9562 23.2175 1
    endloop
  endfacet
  facet normal -0.940881 0.338738 0
    outer loop
      vertex -37.5667 12.2062 -1
      vertex -36.7262 14.5409 1
      vertex -36.7262 14.5409 -1
    endloop
  endfacet
  facet normal -0.940881 0.338738 0
    outer loop
      vertex -36.7262 14.5409 1
      vertex -37.5667 12.2062 -1
      vertex -37.5667 12.2062 1
    endloop
  endfacet
  facet normal -0.509042 0.860742 0
    outer loop
      vertex -19.0293 34.6141 -1
      vertex -21.1652 33.351 1
      vertex -19.0293 34.6141 1
    endloop
  endfacet
  facet normal -0.509042 0.860742 0
    outer loop
      vertex -21.1652 33.351 1
      vertex -19.0293 34.6141 -1
      vertex -21.1652 33.351 -1
    endloop
  endfacet
  facet normal -0.453991 0.891006 0
    outer loop
      vertex -16.8183 35.7407 -1
      vertex -19.0293 34.6141 1
      vertex -16.8183 35.7407 1
    endloop
  endfacet
  facet normal -0.453991 0.891006 0
    outer loop
      vertex -19.0293 34.6141 1
      vertex -16.8183 35.7407 -1
      vertex -19.0293 34.6141 -1
    endloop
  endfacet
  facet normal -0.562083 0.827081 0
    outer loop
      vertex -21.1652 33.351 -1
      vertex -23.2175 31.9562 1
      vertex -21.1652 33.351 1
    endloop
  endfacet
  facet normal -0.562083 0.827081 0
    outer loop
      vertex -23.2175 31.9562 1
      vertex -21.1652 33.351 -1
      vertex -23.2175 31.9562 -1
    endloop
  endfacet
  facet normal -0.278991 0.960294 0
    outer loop
      vertex -9.82325 38.259 -1
      vertex -12.2062 37.5667 1
      vertex -9.82325 38.259 1
    endloop
  endfacet
  facet normal -0.278991 0.960294 0
    outer loop
      vertex -12.2062 37.5667 1
      vertex -9.82325 38.259 -1
      vertex -12.2062 37.5667 -1
    endloop
  endfacet
  facet normal -0.0314114 0.999507 0
    outer loop
      vertex 0 39.5 -1
      vertex -2.48022 39.4221 1
      vertex 0 39.5 1
    endloop
  endfacet
  facet normal -0.0314114 0.999507 0
    outer loop
      vertex -2.48022 39.4221 1
      vertex 0 39.5 -1
      vertex -2.48022 39.4221 -1
    endloop
  endfacet
  facet normal 0.094108 -0.995562 0
    outer loop
      vertex 2.48022 -39.4221 -1
      vertex 4.95066 -39.1885 1
      vertex 2.48022 -39.4221 1
    endloop
  endfacet
  facet normal 0.094108 -0.995562 0
    outer loop
      vertex 4.95066 -39.1885 1
      vertex 2.48022 -39.4221 -1
      vertex 4.95066 -39.1885 -1
    endloop
  endfacet
  facet normal 0.0314114 -0.999507 0
    outer loop
      vertex 0 -39.5 -1
      vertex 2.48022 -39.4221 1
      vertex 0 -39.5 1
    endloop
  endfacet
  facet normal 0.0314114 -0.999507 0
    outer loop
      vertex 2.48022 -39.4221 1
      vertex 0 -39.5 -1
      vertex 2.48022 -39.4221 -1
    endloop
  endfacet
  facet normal 0.397147 -0.917755 0
    outer loop
      vertex 14.5409 -36.7262 -1
      vertex 16.8183 -35.7407 1
      vertex 14.5409 -36.7262 1
    endloop
  endfacet
  facet normal 0.397147 -0.917755 0
    outer loop
      vertex 16.8183 -35.7407 1
      vertex 14.5409 -36.7262 -1
      vertex 16.8183 -35.7407 -1
    endloop
  endfacet
  facet normal 0.612907 -0.790155 0
    outer loop
      vertex 23.2175 -31.9562 -1
      vertex 25.1782 -30.4353 1
      vertex 23.2175 -31.9562 1
    endloop
  endfacet
  facet normal 0.612907 -0.790155 0
    outer loop
      vertex 25.1782 -30.4353 1
      vertex 23.2175 -31.9562 -1
      vertex 25.1782 -30.4353 -1
    endloop
  endfacet
  facet normal 0.707107 -0.707107 0
    outer loop
      vertex 27.0396 -28.7943 1
      vertex 28.7943 -27.0396 -1
      vertex 28.7943 -27.0396 1
    endloop
  endfacet
  facet normal 0.707107 -0.707107 0
    outer loop
      vertex 28.7943 -27.0396 -1
      vertex 27.0396 -28.7943 1
      vertex 27.0396 -28.7943 -1
    endloop
  endfacet
  facet normal 0.562083 -0.827081 0
    outer loop
      vertex 21.1652 -33.351 -1
      vertex 23.2175 -31.9562 1
      vertex 21.1652 -33.351 1
    endloop
  endfacet
  facet normal 0.562083 -0.827081 0
    outer loop
      vertex 23.2175 -31.9562 1
      vertex 21.1652 -33.351 -1
      vertex 23.2175 -31.9562 -1
    endloop
  endfacet
  facet normal 0.453991 -0.891006 0
    outer loop
      vertex 16.8183 -35.7407 -1
      vertex 19.0293 -34.6141 1
      vertex 16.8183 -35.7407 1
    endloop
  endfacet
  facet normal 0.453991 -0.891006 0
    outer loop
      vertex 19.0293 -34.6141 1
      vertex 16.8183 -35.7407 -1
      vertex 19.0293 -34.6141 -1
    endloop
  endfacet
  facet normal 0.917755 -0.397147 0
    outer loop
      vertex 35.7407 -16.8183 1
      vertex 36.7262 -14.5409 -1
      vertex 36.7262 -14.5409 1
    endloop
  endfacet
  facet normal 0.917755 -0.397147 0
    outer loop
      vertex 36.7262 -14.5409 -1
      vertex 35.7407 -16.8183 1
      vertex 35.7407 -16.8183 -1
    endloop
  endfacet
  facet normal 0.860742 -0.509042 0
    outer loop
      vertex 33.351 -21.1652 1
      vertex 34.6141 -19.0293 -1
      vertex 34.6141 -19.0293 1
    endloop
  endfacet
  facet normal 0.860742 -0.509042 0
    outer loop
      vertex 34.6141 -19.0293 -1
      vertex 33.351 -21.1652 1
      vertex 33.351 -21.1652 -1
    endloop
  endfacet
  facet normal -0.278991 -0.960294 0
    outer loop
      vertex -12.2062 -37.5667 -1
      vertex -9.82325 -38.259 1
      vertex -12.2062 -37.5667 1
    endloop
  endfacet
  facet normal -0.278991 -0.960294 -0
    outer loop
      vertex -9.82325 -38.259 1
      vertex -12.2062 -37.5667 -1
      vertex -9.82325 -38.259 -1
    endloop
  endfacet
  facet normal -0.860742 -0.509042 0
    outer loop
      vertex -33.351 -21.1652 -1
      vertex -34.6141 -19.0293 1
      vertex -34.6141 -19.0293 -1
    endloop
  endfacet
  facet normal -0.860742 -0.509042 0
    outer loop
      vertex -34.6141 -19.0293 1
      vertex -33.351 -21.1652 -1
      vertex -33.351 -21.1652 1
    endloop
  endfacet
  facet normal -0.827081 -0.562083 0
    outer loop
      vertex -31.9562 -23.2175 -1
      vertex -33.351 -21.1652 1
      vertex -33.351 -21.1652 -1
    endloop
  endfacet
  facet normal -0.827081 -0.562083 0
    outer loop
      vertex -33.351 -21.1652 1
      vertex -31.9562 -23.2175 -1
      vertex -31.9562 -23.2175 1
    endloop
  endfacet
  facet normal -0.940881 -0.338738 0
    outer loop
      vertex -36.7262 -14.5409 -1
      vertex -37.5667 -12.2062 1
      vertex -37.5667 -12.2062 -1
    endloop
  endfacet
  facet normal -0.940881 -0.338738 0
    outer loop
      vertex -37.5667 -12.2062 1
      vertex -36.7262 -14.5409 -1
      vertex -36.7262 -14.5409 1
    endloop
  endfacet
  facet normal -0.987688 -0.156434 0
    outer loop
      vertex -38.8003 -7.40156 -1
      vertex -39.1885 -4.95066 1
      vertex -39.1885 -4.95066 -1
    endloop
  endfacet
  facet normal -0.987688 -0.156434 0
    outer loop
      vertex -39.1885 -4.95066 1
      vertex -38.8003 -7.40156 -1
      vertex -38.8003 -7.40156 1
    endloop
  endfacet
  facet normal -0.999507 -0.0314114 0
    outer loop
      vertex -39.4221 -2.48022 -1
      vertex -39.5 0 1
      vertex -39.5 0 -1
    endloop
  endfacet
  facet normal -0.999507 -0.0314114 0
    outer loop
      vertex -39.5 0 1
      vertex -39.4221 -2.48022 -1
      vertex -39.4221 -2.48022 1
    endloop
  endfacet
  facet normal 0.987688 0.156434 0
    outer loop
      vertex 39.1885 4.95066 1
      vertex 38.8003 7.40156 -1
      vertex 38.8003 7.40156 1
    endloop
  endfacet
  facet normal 0.987688 0.156434 0
    outer loop
      vertex 38.8003 7.40156 -1
      vertex 39.1885 4.95066 1
      vertex 39.1885 4.95066 -1
    endloop
  endfacet
  facet normal 0.995562 0.094108 0
    outer loop
      vertex 39.4221 2.48022 1
      vertex 39.1885 4.95066 -1
      vertex 39.1885 4.95066 1
    endloop
  endfacet
  facet normal 0.995562 0.094108 0
    outer loop
      vertex 39.1885 4.95066 -1
      vertex 39.4221 2.48022 1
      vertex 39.4221 2.48022 -1
    endloop
  endfacet
  facet normal 0.960294 0.278991 0
    outer loop
      vertex 38.259 9.82325 1
      vertex 37.5667 12.2062 -1
      vertex 37.5667 12.2062 1
    endloop
  endfacet
  facet normal 0.960294 0.278991 0
    outer loop
      vertex 37.5667 12.2062 -1
      vertex 38.259 9.82325 1
      vertex 38.259 9.82325 -1
    endloop
  endfacet
  facet normal 0.940881 0.338738 0
    outer loop
      vertex 37.5667 12.2062 1
      vertex 36.7262 14.5409 -1
      vertex 36.7262 14.5409 1
    endloop
  endfacet
  facet normal 0.940881 0.338738 0
    outer loop
      vertex 36.7262 14.5409 -1
      vertex 37.5667 12.2062 1
      vertex 37.5667 12.2062 -1
    endloop
  endfacet
  facet normal 0.218144 0.975917 -0
    outer loop
      vertex 9.82325 38.259 -1
      vertex 7.40156 38.8003 1
      vertex 9.82325 38.259 1
    endloop
  endfacet
  facet normal 0.218144 0.975917 0
    outer loop
      vertex 7.40156 38.8003 1
      vertex 9.82325 38.259 -1
      vertex 7.40156 38.8003 -1
    endloop
  endfacet
  facet normal 0.156434 0.987688 -0
    outer loop
      vertex 7.40156 38.8003 -1
      vertex 4.95066 39.1885 1
      vertex 7.40156 38.8003 1
    endloop
  endfacet
  facet normal 0.156434 0.987688 0
    outer loop
      vertex 4.95066 39.1885 1
      vertex 7.40156 38.8003 -1
      vertex 4.95066 39.1885 -1
    endloop
  endfacet
  facet normal 0.094108 0.995562 -0
    outer loop
      vertex 4.95066 39.1885 -1
      vertex 2.48022 39.4221 1
      vertex 4.95066 39.1885 1
    endloop
  endfacet
  facet normal 0.094108 0.995562 0
    outer loop
      vertex 2.48022 39.4221 1
      vertex 4.95066 39.1885 -1
      vertex 2.48022 39.4221 -1
    endloop
  endfacet
  facet normal 0.661312 0.750111 -0
    outer loop
      vertex 27.0396 28.7943 -1
      vertex 25.1782 30.4353 1
      vertex 27.0396 28.7943 1
    endloop
  endfacet
  facet normal 0.661312 0.750111 0
    outer loop
      vertex 25.1782 30.4353 1
      vertex 27.0396 28.7943 -1
      vertex 25.1782 30.4353 -1
    endloop
  endfacet
  facet normal -0.707107 0.707107 0
    outer loop
      vertex -28.7943 27.0396 -1
      vertex -27.0396 28.7943 1
      vertex -27.0396 28.7943 -1
    endloop
  endfacet
  facet normal -0.707107 0.707107 0
    outer loop
      vertex -27.0396 28.7943 1
      vertex -28.7943 27.0396 -1
      vertex -28.7943 27.0396 1
    endloop
  endfacet
  facet normal -0.827081 0.562083 0
    outer loop
      vertex -33.351 21.1652 -1
      vertex -31.9562 23.2175 1
      vertex -31.9562 23.2175 -1
    endloop
  endfacet
  facet normal -0.827081 0.562083 0
    outer loop
      vertex -31.9562 23.2175 1
      vertex -33.351 21.1652 -1
      vertex -33.351 21.1652 1
    endloop
  endfacet
  facet normal -0.860742 0.509042 0
    outer loop
      vertex -34.6141 19.0293 -1
      vertex -33.351 21.1652 1
      vertex -33.351 21.1652 -1
    endloop
  endfacet
  facet normal -0.860742 0.509042 0
    outer loop
      vertex -33.351 21.1652 1
      vertex -34.6141 19.0293 -1
      vertex -34.6141 19.0293 1
    endloop
  endfacet
  facet normal -0.917755 0.397147 0
    outer loop
      vertex -36.7262 14.5409 -1
      vertex -35.7407 16.8183 1
      vertex -35.7407 16.8183 -1
    endloop
  endfacet
  facet normal -0.917755 0.397147 0
    outer loop
      vertex -35.7407 16.8183 1
      vertex -36.7262 14.5409 -1
      vertex -36.7262 14.5409 1
    endloop
  endfacet
  facet normal -0.975917 0.218144 0
    outer loop
      vertex -38.8003 7.40156 -1
      vertex -38.259 9.82325 1
      vertex -38.259 9.82325 -1
    endloop
  endfacet
  facet normal -0.975917 0.218144 0
    outer loop
      vertex -38.259 9.82325 1
      vertex -38.8003 7.40156 -1
      vertex -38.8003 7.40156 1
    endloop
  endfacet
  facet normal -0.987688 0.156434 0
    outer loop
      vertex -39.1885 4.95066 -1
      vertex -38.8003 7.40156 1
      vertex -38.8003 7.40156 -1
    endloop
  endfacet
  facet normal -0.987688 0.156434 0
    outer loop
      vertex -38.8003 7.40156 1
      vertex -39.1885 4.95066 -1
      vertex -39.1885 4.95066 1
    endloop
  endfacet
  facet normal -0.995562 0.094108 0
    outer loop
      vertex -39.4221 2.48022 -1
      vertex -39.1885 4.95066 1
      vertex -39.1885 4.95066 -1
    endloop
  endfacet
  facet normal -0.995562 0.094108 0
    outer loop
      vertex -39.1885 4.95066 1
      vertex -39.4221 2.48022 -1
      vertex -39.4221 2.48022 1
    endloop
  endfacet
  facet normal -0.397147 0.917755 0
    outer loop
      vertex -14.5409 36.7262 -1
      vertex -16.8183 35.7407 1
      vertex -14.5409 36.7262 1
    endloop
  endfacet
  facet normal -0.397147 0.917755 0
    outer loop
      vertex -16.8183 35.7407 1
      vertex -14.5409 36.7262 -1
      vertex -16.8183 35.7407 -1
    endloop
  endfacet
  facet normal -0.094108 0.995562 0
    outer loop
      vertex -2.48022 39.4221 -1
      vertex -4.95066 39.1885 1
      vertex -2.48022 39.4221 1
    endloop
  endfacet
  facet normal -0.094108 0.995562 0
    outer loop
      vertex -4.95066 39.1885 1
      vertex -2.48022 39.4221 -1
      vertex -4.95066 39.1885 -1
    endloop
  endfacet
  facet normal 0.999507 -0.0314114 0
    outer loop
      vertex 39.4221 -2.48022 1
      vertex 39.5 0 -1
      vertex 39.5 0 1
    endloop
  endfacet
  facet normal 0.999507 -0.0314114 0
    outer loop
      vertex 39.5 0 -1
      vertex 39.4221 -2.48022 1
      vertex 39.4221 -2.48022 -1
    endloop
  endfacet
  facet normal 0.987688 -0.156434 0
    outer loop
      vertex 38.8003 -7.40156 1
      vertex 39.1885 -4.95066 -1
      vertex 39.1885 -4.95066 1
    endloop
  endfacet
  facet normal 0.987688 -0.156434 0
    outer loop
      vertex 39.1885 -4.95066 -1
      vertex 38.8003 -7.40156 1
      vertex 38.8003 -7.40156 -1
    endloop
  endfacet
  facet normal 0.218144 -0.975917 0
    outer loop
      vertex 7.40156 -38.8003 -1
      vertex 9.82325 -38.259 1
      vertex 7.40156 -38.8003 1
    endloop
  endfacet
  facet normal 0.218144 -0.975917 0
    outer loop
      vertex 9.82325 -38.259 1
      vertex 7.40156 -38.8003 -1
      vertex 9.82325 -38.259 -1
    endloop
  endfacet
  facet normal 0.338738 -0.940881 0
    outer loop
      vertex 12.2062 -37.5667 -1
      vertex 14.5409 -36.7262 1
      vertex 12.2062 -37.5667 1
    endloop
  endfacet
  facet normal 0.338738 -0.940881 0
    outer loop
      vertex 14.5409 -36.7262 1
      vertex 12.2062 -37.5667 -1
      vertex 14.5409 -36.7262 -1
    endloop
  endfacet
  facet normal 0.278991 -0.960294 0
    outer loop
      vertex 9.82325 -38.259 -1
      vertex 12.2062 -37.5667 1
      vertex 9.82325 -38.259 1
    endloop
  endfacet
  facet normal 0.278991 -0.960294 0
    outer loop
      vertex 12.2062 -37.5667 1
      vertex 9.82325 -38.259 -1
      vertex 12.2062 -37.5667 -1
    endloop
  endfacet
  facet normal 0.661312 -0.750111 0
    outer loop
      vertex 25.1782 -30.4353 -1
      vertex 27.0396 -28.7943 1
      vertex 25.1782 -30.4353 1
    endloop
  endfacet
  facet normal 0.661312 -0.750111 0
    outer loop
      vertex 27.0396 -28.7943 1
      vertex 25.1782 -30.4353 -1
      vertex 27.0396 -28.7943 -1
    endloop
  endfacet
  facet normal 0.509042 -0.860742 0
    outer loop
      vertex 19.0293 -34.6141 -1
      vertex 21.1652 -33.351 1
      vertex 19.0293 -34.6141 1
    endloop
  endfacet
  facet normal 0.509042 -0.860742 0
    outer loop
      vertex 21.1652 -33.351 1
      vertex 19.0293 -34.6141 -1
      vertex 21.1652 -33.351 -1
    endloop
  endfacet
  facet normal 0.827081 -0.562083 0
    outer loop
      vertex 31.9562 -23.2175 1
      vertex 33.351 -21.1652 -1
      vertex 33.351 -21.1652 1
    endloop
  endfacet
  facet normal 0.827081 -0.562083 0
    outer loop
      vertex 33.351 -21.1652 -1
      vertex 31.9562 -23.2175 1
      vertex 31.9562 -23.2175 -1
    endloop
  endfacet
  facet normal 0.750111 -0.661312 0
    outer loop
      vertex 28.7943 -27.0396 1
      vertex 30.4353 -25.1782 -1
      vertex 30.4353 -25.1782 1
    endloop
  endfacet
  facet normal 0.750111 -0.661312 0
    outer loop
      vertex 30.4353 -25.1782 -1
      vertex 28.7943 -27.0396 1
      vertex 28.7943 -27.0396 -1
    endloop
  endfacet
  facet normal 0.790155 -0.612907 0
    outer loop
      vertex 30.4353 -25.1782 1
      vertex 31.9562 -23.2175 -1
      vertex 31.9562 -23.2175 1
    endloop
  endfacet
  facet normal 0.790155 -0.612907 0
    outer loop
      vertex 31.9562 -23.2175 -1
      vertex 30.4353 -25.1782 1
      vertex 30.4353 -25.1782 -1
    endloop
  endfacet
  facet normal 0.891006 -0.453991 0
    outer loop
      vertex 34.6141 -19.0293 1
      vertex 35.7407 -16.8183 -1
      vertex 35.7407 -16.8183 1
    endloop
  endfacet
  facet normal 0.891006 -0.453991 0
    outer loop
      vertex 35.7407 -16.8183 -1
      vertex 34.6141 -19.0293 1
      vertex 34.6141 -19.0293 -1
    endloop
  endfacet
  facet normal 0.940881 -0.338738 0
    outer loop
      vertex 36.7262 -14.5409 1
      vertex 37.5667 -12.2062 -1
      vertex 37.5667 -12.2062 1
    endloop
  endfacet
  facet normal 0.940881 -0.338738 0
    outer loop
      vertex 37.5667 -12.2062 -1
      vertex 36.7262 -14.5409 1
      vertex 36.7262 -14.5409 -1
    endloop
  endfacet
  facet normal -0.612907 -0.790155 0
    outer loop
      vertex -25.1782 -30.4353 -1
      vertex -23.2175 -31.9562 1
      vertex -25.1782 -30.4353 1
    endloop
  endfacet
  facet normal -0.612907 -0.790155 -0
    outer loop
      vertex -23.2175 -31.9562 1
      vertex -25.1782 -30.4353 -1
      vertex -23.2175 -31.9562 -1
    endloop
  endfacet
  facet normal -0.707107 -0.707107 0
    outer loop
      vertex -27.0396 -28.7943 -1
      vertex -28.7943 -27.0396 1
      vertex -28.7943 -27.0396 -1
    endloop
  endfacet
  facet normal -0.707107 -0.707107 0
    outer loop
      vertex -28.7943 -27.0396 1
      vertex -27.0396 -28.7943 -1
      vertex -27.0396 -28.7943 1
    endloop
  endfacet
  facet normal -0.661312 -0.750111 0
    outer loop
      vertex -27.0396 -28.7943 -1
      vertex -25.1782 -30.4353 1
      vertex -27.0396 -28.7943 1
    endloop
  endfacet
  facet normal -0.661312 -0.750111 -0
    outer loop
      vertex -25.1782 -30.4353 1
      vertex -27.0396 -28.7943 -1
      vertex -25.1782 -30.4353 -1
    endloop
  endfacet
  facet normal -0.562083 -0.827081 0
    outer loop
      vertex -23.2175 -31.9562 -1
      vertex -21.1652 -33.351 1
      vertex -23.2175 -31.9562 1
    endloop
  endfacet
  facet normal -0.562083 -0.827081 -0
    outer loop
      vertex -21.1652 -33.351 1
      vertex -23.2175 -31.9562 -1
      vertex -21.1652 -33.351 -1
    endloop
  endfacet
  facet normal -0.453991 -0.891006 0
    outer loop
      vertex -19.0293 -34.6141 -1
      vertex -16.8183 -35.7407 1
      vertex -19.0293 -34.6141 1
    endloop
  endfacet
  facet normal -0.453991 -0.891006 -0
    outer loop
      vertex -16.8183 -35.7407 1
      vertex -19.0293 -34.6141 -1
      vertex -16.8183 -35.7407 -1
    endloop
  endfacet
  facet normal -0.509042 -0.860742 0
    outer loop
      vertex -21.1652 -33.351 -1
      vertex -19.0293 -34.6141 1
      vertex -21.1652 -33.351 1
    endloop
  endfacet
  facet normal -0.509042 -0.860742 -0
    outer loop
      vertex -19.0293 -34.6141 1
      vertex -21.1652 -33.351 -1
      vertex -19.0293 -34.6141 -1
    endloop
  endfacet
  facet normal -0.397147 -0.917755 0
    outer loop
      vertex -16.8183 -35.7407 -1
      vertex -14.5409 -36.7262 1
      vertex -16.8183 -35.7407 1
    endloop
  endfacet
  facet normal -0.397147 -0.917755 -0
    outer loop
      vertex -14.5409 -36.7262 1
      vertex -16.8183 -35.7407 -1
      vertex -14.5409 -36.7262 -1
    endloop
  endfacet
  facet normal -0.338738 -0.940881 0
    outer loop
      vertex -14.5409 -36.7262 -1
      vertex -12.2062 -37.5667 1
      vertex -14.5409 -36.7262 1
    endloop
  endfacet
  facet normal -0.338738 -0.940881 -0
    outer loop
      vertex -12.2062 -37.5667 1
      vertex -14.5409 -36.7262 -1
      vertex -12.2062 -37.5667 -1
    endloop
  endfacet
  facet normal -0.0314114 -0.999507 0
    outer loop
      vertex -2.48022 -39.4221 -1
      vertex 0 -39.5 1
      vertex -2.48022 -39.4221 1
    endloop
  endfacet
  facet normal -0.0314114 -0.999507 -0
    outer loop
      vertex 0 -39.5 1
      vertex -2.48022 -39.4221 -1
      vertex 0 -39.5 -1
    endloop
  endfacet
  facet normal -0.156434 -0.987688 0
    outer loop
      vertex -7.40156 -38.8003 -1
      vertex -4.95066 -39.1885 1
      vertex -7.40156 -38.8003 1
    endloop
  endfacet
  facet normal -0.156434 -0.987688 -0
    outer loop
      vertex -4.95066 -39.1885 1
      vertex -7.40156 -38.8003 -1
      vertex -4.95066 -39.1885 -1
    endloop
  endfacet
  facet normal -0.094108 -0.995562 0
    outer loop
      vertex -4.95066 -39.1885 -1
      vertex -2.48022 -39.4221 1
      vertex -4.95066 -39.1885 1
    endloop
  endfacet
  facet normal -0.094108 -0.995562 -0
    outer loop
      vertex -2.48022 -39.4221 1
      vertex -4.95066 -39.1885 -1
      vertex -2.48022 -39.4221 -1
    endloop
  endfacet
  facet normal -0.917755 -0.397147 0
    outer loop
      vertex -35.7407 -16.8183 -1
      vertex -36.7262 -14.5409 1
      vertex -36.7262 -14.5409 -1
    endloop
  endfacet
  facet normal -0.917755 -0.397147 0
    outer loop
      vertex -36.7262 -14.5409 1
      vertex -35.7407 -16.8183 -1
      vertex -35.7407 -16.8183 1
    endloop
  endfacet
  facet normal -0.790155 -0.612907 0
    outer loop
      vertex -30.4353 -25.1782 -1
      vertex -31.9562 -23.2175 1
      vertex -31.9562 -23.2175 -1
    endloop
  endfacet
  facet normal -0.790155 -0.612907 0
    outer loop
      vertex -31.9562 -23.2175 1
      vertex -30.4353 -25.1782 -1
      vertex -30.4353 -25.1782 1
    endloop
  endfacet
  facet normal -0.891006 -0.453991 0
    outer loop
      vertex -34.6141 -19.0293 -1
      vertex -35.7407 -16.8183 1
      vertex -35.7407 -16.8183 -1
    endloop
  endfacet
  facet normal -0.891006 -0.453991 0
    outer loop
      vertex -35.7407 -16.8183 1
      vertex -34.6141 -19.0293 -1
      vertex -34.6141 -19.0293 1
    endloop
  endfacet
  facet normal -0.975917 -0.218144 0
    outer loop
      vertex -38.259 -9.82325 -1
      vertex -38.8003 -7.40156 1
      vertex -38.8003 -7.40156 -1
    endloop
  endfacet
  facet normal -0.975917 -0.218144 0
    outer loop
      vertex -38.8003 -7.40156 1
      vertex -38.259 -9.82325 -1
      vertex -38.259 -9.82325 1
    endloop
  endfacet
  facet normal -0.960294 -0.278991 0
    outer loop
      vertex -37.5667 -12.2062 -1
      vertex -38.259 -9.82325 1
      vertex -38.259 -9.82325 -1
    endloop
  endfacet
  facet normal -0.960294 -0.278991 0
    outer loop
      vertex -38.259 -9.82325 1
      vertex -37.5667 -12.2062 -1
      vertex -37.5667 -12.2062 1
    endloop
  endfacet
  facet normal -0.995562 -0.094108 0
    outer loop
      vertex -39.1885 -4.95066 -1
      vertex -39.4221 -2.48022 1
      vertex -39.4221 -2.48022 -1
    endloop
  endfacet
  facet normal -0.995562 -0.094108 0
    outer loop
      vertex -39.4221 -2.48022 1
      vertex -39.1885 -4.95066 -1
      vertex -39.1885 -4.95066 1
    endloop
  endfacet
  facet normal 0.750111 0.661312 0
    outer loop
      vertex 30.4353 25.1782 1
      vertex 28.7943 27.0396 -1
      vertex 28.7943 27.0396 1
    endloop
  endfacet
  facet normal 0.750111 0.661312 0
    outer loop
      vertex 28.7943 27.0396 -1
      vertex 30.4353 25.1782 1
      vertex 30.4353 25.1782 -1
    endloop
  endfacet
  facet normal 0.860742 0.509042 0
    outer loop
      vertex 34.6141 19.0293 1
      vertex 33.351 21.1652 -1
      vertex 33.351 21.1652 1
    endloop
  endfacet
  facet normal 0.860742 0.509042 0
    outer loop
      vertex 33.351 21.1652 -1
      vertex 34.6141 19.0293 1
      vertex 34.6141 19.0293 -1
    endloop
  endfacet
  facet normal 0.453991 0.891006 -0
    outer loop
      vertex 19.0293 34.6141 -1
      vertex 16.8183 35.7407 1
      vertex 19.0293 34.6141 1
    endloop
  endfacet
  facet normal 0.453991 0.891006 0
    outer loop
      vertex 16.8183 35.7407 1
      vertex 19.0293 34.6141 -1
      vertex 16.8183 35.7407 -1
    endloop
  endfacet
  facet normal -0.612907 0.790155 0
    outer loop
      vertex -23.2175 31.9562 -1
      vertex -25.1782 30.4353 1
      vertex -23.2175 31.9562 1
    endloop
  endfacet
  facet normal -0.612907 0.790155 0
    outer loop
      vertex -25.1782 30.4353 1
      vertex -23.2175 31.9562 -1
      vertex -25.1782 30.4353 -1
    endloop
  endfacet
  facet normal -0.218144 0.975917 0
    outer loop
      vertex -7.40156 38.8003 -1
      vertex -9.82325 38.259 1
      vertex -7.40156 38.8003 1
    endloop
  endfacet
  facet normal -0.218144 0.975917 0
    outer loop
      vertex -9.82325 38.259 1
      vertex -7.40156 38.8003 -1
      vertex -9.82325 38.259 -1
    endloop
  endfacet
  facet normal 0.960294 -0.278991 0
    outer loop
      vertex 37.5667 -12.2062 1
      vertex 38.259 -9.82325 -1
      vertex 38.259 -9.82325 1
    endloop
  endfacet
  facet normal 0.960294 -0.278991 0
    outer loop
      vertex 38.259 -9.82325 -1
      vertex 37.5667 -12.2062 1
      vertex 37.5667 -12.2062 -1
    endloop
  endfacet
  facet normal 0.156434 -0.987688 0
    outer loop
      vertex 4.95066 -39.1885 -1
      vertex 7.40156 -38.8003 1
      vertex 4.95066 -39.1885 1
    endloop
  endfacet
  facet normal 0.156434 -0.987688 0
    outer loop
      vertex 7.40156 -38.8003 1
      vertex 4.95066 -39.1885 -1
      vertex 7.40156 -38.8003 -1
    endloop
  endfacet
  facet normal 0.975917 -0.218144 0
    outer loop
      vertex 38.259 -9.82325 1
      vertex 38.8003 -7.40156 -1
      vertex 38.8003 -7.40156 1
    endloop
  endfacet
  facet normal 0.975917 -0.218144 0
    outer loop
      vertex 38.8003 -7.40156 -1
      vertex 38.259 -9.82325 1
      vertex 38.259 -9.82325 -1
    endloop
  endfacet
  facet normal -0.218144 -0.975917 0
    outer loop
      vertex -9.82325 -38.259 -1
      vertex -7.40156 -38.8003 1
      vertex -9.82325 -38.259 1
    endloop
  endfacet
  facet normal -0.218144 -0.975917 -0
    outer loop
      vertex -7.40156 -38.8003 1
      vertex -9.82325 -38.259 -1
      vertex -7.40156 -38.8003 -1
    endloop
  endfacet
  facet normal 0.995562 -0.094108 0
    outer loop
      vertex 39.1885 -4.95066 1
      vertex 39.4221 -2.48022 -1
      vertex 39.4221 -2.48022 1
    endloop
  endfacet
  facet normal 0.995562 -0.094108 0
    outer loop
      vertex 39.4221 -2.48022 -1
      vertex 39.1885 -4.95066 1
      vertex 39.1885 -4.95066 -1
    endloop
  endfacet
  facet normal 1 -0 0
    outer loop
      vertex -13 -13 1
      vertex -13 13 -1
      vertex -13 13 1
    endloop
  endfacet
  facet normal 1 0 0
    outer loop
      vertex -13 13 -1
      vertex -13 -13 1
      vertex -13 -13 -1
    endloop
  endfacet
  facet normal -1 0 0
    outer loop
      vertex 13 -13 -1
      vertex 13 13 1
      vertex 13 13 -1
    endloop
  endfacet
  facet normal -1 -0 0
    outer loop
      vertex 13 13 1
      vertex 13 -13 -1
      vertex 13 -13 1
    endloop
  endfacet
  facet normal 0 -1 0
    outer loop
      vertex -13 13 -1
      vertex 13 13 1
      vertex -13 13 1
    endloop
  endfacet
  facet normal 0 -1 -0
    outer loop
      vertex 13 13 1
      vertex -13 13 -1
      vertex 13 13 -1
    endloop
  endfacet
  facet normal 0 1 -0
    outer loop
      vertex 13 -13 -1
      vertex -13 -13 1
      vertex 13 -13 1
    endloop
  endfacet
  facet normal 0 1 0
    outer loop
      vertex -13 -13 1
      vertex 13 -13 -1
      vertex -13 -13 -1
    endloop
  endfacet
endsolid OpenSCAD_Model
