  0
SECTION
  2
HEADER
  9
$ACADVER
  1
AC1014
  9
$HANDSEED
  5
FFFF
  9
$MEASUREMENT
 70
     1
  0
ENDSEC
  0
SECTION
  2
TABLES
  0
TABLE
  2
VPORT
  5
8
330
0
100
AcDbSymbolTable
 70
     4
  0
VPORT
  5
2E
330
8
100
AcDbSymbolTableRecord
100
AcDbViewportTableRecord
  2
*ACTIVE
 70
     0
 10
0.0
 20
0.0
 11
1.0
 21
1.0
 12
210.0
 22
148.5
 13
0.0
 23
0.0
 14
10.0
 24
10.0
 15
10.0
 25
10.0
 16
0.0
 26
0.0
 36
1.0
 17
0.0
 27
0.0
 37
0.0
 40
341.0
 41
1.24
 42
50.0
 43
0.0
 44
0.0
 50
0.0
 51
0.0
 71
     0
 72
   100
 73
     1
 74
     3
 75
     0
 76
     0
 77
     0
 78
     0
  0
ENDTAB
  0
TABLE
  2
LTYPE
  5
5
330
0
100
AcDbSymbolTable
 70
     1
  0
LTYPE
  5
14
330
5
100
AcDbSymbolTableRecord
100
AcDbLinetypeTableRecord
  2
BYBLOCK
 70
     0
  3

 72
    65
 73
     0
 40
0.0
  0
LTYPE
  5
15
330
5
100
AcDbSymbolTableRecord
100
AcDbLinetypeTableRecord
  2
BYLAYER
 70
     0
  3

 72
    65
 73
     0
 40
0.0
  0
LTYPE
  5
16
330
5
100
AcDbSymbolTableRecord
100
AcDbLinetypeTableRecord
  2
CONTINUOUS
 70
     0
  3
Solid line
 72
    65
 73
     0
 40
0.0
  0
ENDTAB
  0
TABLE
  2
LAYER
  5
2
100
AcDbSymbolTable
 70
2
  0
LAYER
  5
50
100
AcDbSymbolTableRecord
100
AcDbLayerTableRecord
  2
0
 70
0
  6
CONTINUOUS
  0
LAYER
  5
51
100
AcDbSymbolTableRecord
100
AcDbLayerTableRecord
  2
Capa_1
 70
0
  6
CONTINUOUS
  0
ENDTAB
  0
TABLE
  2
STYLE
  5
3
330
0
100
AcDbSymbolTable
 70
     1
  0
STYLE
  5
11
330
3
100
AcDbSymbolTableRecord
100
AcDbTextStyleTableRecord
  2
STANDARD
 70
     0
 40
0.0
 41
1.0
 50
0.0
 71
     0
 42
2.5
  3
txt
  4

  0
ENDTAB
  0
TABLE
  2
VIEW
  5
6
330
0
100
AcDbSymbolTable
 70
     0
  0
ENDTAB
  0
TABLE
  2
UCS
  5
7
330
0
100
AcDbSymbolTable
 70
     0
  0
ENDTAB
  0
TABLE
  2
APPID
  5
9
330
0
100
AcDbSymbolTable
 70
     2
  0
APPID
  5
12
330
9
100
AcDbSymbolTableRecord
100
AcDbRegAppTableRecord
  2
ACAD
 70
     0
  0
ENDTAB
  0
TABLE
  2
DIMSTYLE
  5
A
330
0
100
AcDbSymbolTable
 70
     1
  0
DIMSTYLE
105
27
330
A
100
AcDbSymbolTableRecord
100
AcDbDimStyleTableRecord
  2
ISO-25
 70
     0
  3

  4

  5

  6

  7

 40
1.0
 41
2.5
 42
0.625
 43
3.75
 44
1.25
 45
0.0
 46
0.0
 47
0.0
 48
0.0
140
2.5
141
2.5
142
0.0
143
0.03937007874016
144
1.0
145
0.0
146
1.0
147
0.625
 71
     0
 72
     0
 73
     0
 74
     0
 75
     0
 76
     0
 77
     1
 78
     8
170
     0
171
     3
172
     1
173
     0
174
     0
175
     0
176
     0
177
     0
178
     0
270
     2
271
     2
272
     2
273
     2
274
     3
340
11
275
     0
280
     0
281
     0
282
     0
283
     0
284
     8
285
     0
286
     0
287
     3
288
     0
  0
ENDTAB
  0
TABLE
  2
BLOCK_RECORD
  5
1
330
0
100
AcDbSymbolTable
 70
     1
  0
BLOCK_RECORD
  5
1F
330
1
100
AcDbSymbolTableRecord
100
AcDbBlockTableRecord
  2
*MODEL_SPACE
  0
BLOCK_RECORD
  5
1B
330
1
100
AcDbSymbolTableRecord
100
AcDbBlockTableRecord
  2
*PAPER_SPACE
  0
ENDTAB
  0
ENDSEC
  0
SECTION
  2
BLOCKS
  0
BLOCK
  5
20
330
1F
100
AcDbEntity
  8
0
100
AcDbBlockBegin
  2
*MODEL_SPACE
 70
     0
 10
0.0
 20
0.0
 30
0.0
  3
*MODEL_SPACE
  1

  0
ENDBLK
  5
21
330
1F
100
AcDbEntity
  8
0
100
AcDbBlockEnd
  0
BLOCK
  5
1C
330
1B
100
AcDbEntity
 67
     1
  8
0
100
AcDbBlockBegin
  2
*PAPER_SPACE
  1

  0
ENDBLK
  5
1D
330
1B
100
AcDbEntity
 67
     1
  8
0
100
AcDbBlockEnd
  0
ENDSEC
  0
SECTION
  2
ENTITIES
  0
SPLINE
  5
100
100
AcDbEntity
  8
Capa_1
 62
1
100
AcDbSpline
 70
8
 71
3
 72
8
 73
4
 74
0
 40
0
 40
0
 40
0
 40
0
 40
1
 40
1
 40
1
 40
1
 10
97.653648
 20
49.911090
 30
0.0
 10
97.653648
 20
33.888148
 30
0.0
 10
89.105510
 20
19.082340
 30
0.0
 10
75.229235
 20
11.070869
 30
0.0
  0
SPLINE
  5
101
100
AcDbEntity
  8
Capa_1
 62
1
100
AcDbSpline
 70
8
 71
3
 72
8
 73
4
 74
0
 40
0
 40
0
 40
0
 40
0
 40
1
 40
1
 40
1
 40
1
 10
75.229235
 20
11.070869
 30
0.0
 10
61.352959
 20
3.059398
 30
0.0
 10
44.256683
 20
3.059398
 30
0.0
 10
30.380408
 20
11.070869
 30
0.0
  0
SPLINE
  5
102
100
AcDbEntity
  8
Capa_1
 62
1
100
AcDbSpline
 70
8
 71
3
 72
8
 73
4
 74
0
 40
0
 40
0
 40
0
 40
0
 40
1
 40
1
 40
1
 40
1
 10
30.380408
 20
11.070869
 30
0.0
 10
16.504132
 20
19.082340
 30
0.0
 10
7.955994
 20
33.888148
 30
0.0
 10
7.955994
 20
49.911090
 30
0.0
  0
SPLINE
  5
103
100
AcDbEntity
  8
Capa_1
 62
1
100
AcDbSpline
 70
8
 71
3
 72
8
 73
4
 74
0
 40
0
 40
0
 40
0
 40
0
 40
1
 40
1
 40
1
 40
1
 10
7.955994
 20
49.911090
 30
0.0
 10
7.955994
 20
65.934032
 30
0.0
 10
16.504132
 20
80.739840
 30
0.0
 10
30.380408
 20
88.751311
 30
0.0
  0
SPLINE
  5
104
100
AcDbEntity
  8
Capa_1
 62
1
100
AcDbSpline
 70
8
 71
3
 72
8
 73
4
 74
0
 40
0
 40
0
 40
0
 40
0
 40
1
 40
1
 40
1
 40
1
 10
30.380408
 20
88.751311
 30
0.0
 10
44.256683
 20
96.762782
 30
0.0
 10
61.352959
 20
96.762782
 30
0.0
 10
75.229235
 20
88.751311
 30
0.0
  0
SPLINE
  5
105
100
AcDbEntity
  8
Capa_1
 62
1
100
AcDbSpline
 70
8
 71
3
 72
8
 73
4
 74
0
 40
0
 40
0
 40
0
 40
0
 40
1
 40
1
 40
1
 40
1
 10
75.229235
 20
88.751311
 30
0.0
 10
89.105510
 20
80.739840
 30
0.0
 10
97.653648
 20
65.934032
 30
0.0
 10
97.653648
 20
49.911090
 30
0.0
  0
LWPOLYLINE
  5
106
100
AcDbEntity
  8
Capa_1
 62
5
100
AcDbPolyline
 90
4
 70
1
 10
0.790240
 20
298.700835
 30
0.0
 10
299.570480
 20
298.700835
 30
0.0
 10
299.570480
 20
-0.079405
 30
0.0
 10
0.790240
 20
-0.079405
 30
0.0
  0
SPLINE
  5
107
100
AcDbEntity
  8
Capa_1
 62
1
100
AcDbSpline
 70
8
 71
3
 72
8
 73
4
 74
0
 40
0
 40
0
 40
0
 40
0
 40
1
 40
1
 40
1
 40
1
 10
194.738097
 20
49.911090
 30
0.0
 10
194.738097
 20
33.888148
 30
0.0
 10
186.189959
 20
19.082340
 30
0.0
 10
172.313684
 20
11.070869
 30
0.0
  0
SPLINE
  5
108
100
AcDbEntity
  8
Capa_1
 62
1
100
AcDbSpline
 70
8
 71
3
 72
8
 73
4
 74
0
 40
0
 40
0
 40
0
 40
0
 40
1
 40
1
 40
1
 40
1
 10
172.313684
 20
11.070869
 30
0.0
 10
158.437408
 20
3.059398
 30
0.0
 10
141.341132
 20
3.059398
 30
0.0
 10
127.464857
 20
11.070869
 30
0.0
  0
SPLINE
  5
109
100
AcDbEntity
  8
Capa_1
 62
1
100
AcDbSpline
 70
8
 71
3
 72
8
 73
4
 74
0
 40
0
 40
0
 40
0
 40
0
 40
1
 40
1
 40
1
 40
1
 10
127.464857
 20
11.070869
 30
0.0
 10
113.588581
 20
19.082340
 30
0.0
 10
105.040443
 20
33.888148
 30
0.0
 10
105.040443
 20
49.911090
 30
0.0
  0
SPLINE
  5
10a
100
AcDbEntity
  8
Capa_1
 62
1
100
AcDbSpline
 70
8
 71
3
 72
8
 73
4
 74
0
 40
0
 40
0
 40
0
 40
0
 40
1
 40
1
 40
1
 40
1
 10
105.040443
 20
49.911090
 30
0.0
 10
105.040443
 20
65.934032
 30
0.0
 10
113.588581
 20
80.739840
 30
0.0
 10
127.464857
 20
88.751311
 30
0.0
  0
SPLINE
  5
10b
100
AcDbEntity
  8
Capa_1
 62
1
100
AcDbSpline
 70
8
 71
3
 72
8
 73
4
 74
0
 40
0
 40
0
 40
0
 40
0
 40
1
 40
1
 40
1
 40
1
 10
127.464857
 20
88.751311
 30
0.0
 10
141.341132
 20
96.762782
 30
0.0
 10
158.437408
 20
96.762782
 30
0.0
 10
172.313684
 20
88.751311
 30
0.0
  0
SPLINE
  5
10c
100
AcDbEntity
  8
Capa_1
 62
1
100
AcDbSpline
 70
8
 71
3
 72
8
 73
4
 74
0
 40
0
 40
0
 40
0
 40
0
 40
1
 40
1
 40
1
 40
1
 10
172.313684
 20
88.751311
 30
0.0
 10
186.189959
 20
80.739840
 30
0.0
 10
194.738097
 20
65.934032
 30
0.0
 10
194.738097
 20
49.911090
 30
0.0
  0
LWPOLYLINE
  5
10d
100
AcDbEntity
  8
Capa_1
 62
1
100
AcDbPolyline
 90
1
 70
1
 10
97.653648
 20
49.911090
 30
0.0
  0
SPLINE
  5
10e
100
AcDbEntity
  8
Capa_1
 62
1
100
AcDbSpline
 70
8
 71
3
 72
8
 73
4
 74
0
 40
0
 40
0
 40
0
 40
0
 40
1
 40
1
 40
1
 40
1
 10
291.822537
 20
49.911090
 30
0.0
 10
291.822537
 20
33.888148
 30
0.0
 10
283.274399
 20
19.082340
 30
0.0
 10
269.398124
 20
11.070869
 30
0.0
  0
SPLINE
  5
10f
100
AcDbEntity
  8
Capa_1
 62
1
100
AcDbSpline
 70
8
 71
3
 72
8
 73
4
 74
0
 40
0
 40
0
 40
0
 40
0
 40
1
 40
1
 40
1
 40
1
 10
269.398124
 20
11.070869
 30
0.0
 10
255.521848
 20
3.059398
 30
0.0
 10
238.425572
 20
3.059398
 30
0.0
 10
224.549297
 20
11.070869
 30
0.0
  0
SPLINE
  5
110
100
AcDbEntity
  8
Capa_1
 62
1
100
AcDbSpline
 70
8
 71
3
 72
8
 73
4
 74
0
 40
0
 40
0
 40
0
 40
0
 40
1
 40
1
 40
1
 40
1
 10
224.549297
 20
11.070869
 30
0.0
 10
210.673021
 20
19.082340
 30
0.0
 10
202.124883
 20
33.888148
 30
0.0
 10
202.124883
 20
49.911090
 30
0.0
  0
SPLINE
  5
111
100
AcDbEntity
  8
Capa_1
 62
1
100
AcDbSpline
 70
8
 71
3
 72
8
 73
4
 74
0
 40
0
 40
0
 40
0
 40
0
 40
1
 40
1
 40
1
 40
1
 10
202.124883
 20
49.911090
 30
0.0
 10
202.124883
 20
65.934032
 30
0.0
 10
210.673021
 20
80.739840
 30
0.0
 10
224.549297
 20
88.751311
 30
0.0
  0
SPLINE
  5
112
100
AcDbEntity
  8
Capa_1
 62
1
100
AcDbSpline
 70
8
 71
3
 72
8
 73
4
 74
0
 40
0
 40
0
 40
0
 40
0
 40
1
 40
1
 40
1
 40
1
 10
224.549297
 20
88.751311
 30
0.0
 10
238.425572
 20
96.762782
 30
0.0
 10
255.521848
 20
96.762782
 30
0.0
 10
269.398124
 20
88.751311
 30
0.0
  0
SPLINE
  5
113
100
AcDbEntity
  8
Capa_1
 62
1
100
AcDbSpline
 70
8
 71
3
 72
8
 73
4
 74
0
 40
0
 40
0
 40
0
 40
0
 40
1
 40
1
 40
1
 40
1
 10
269.398124
 20
88.751311
 30
0.0
 10
283.274399
 20
80.739840
 30
0.0
 10
291.822537
 20
65.934032
 30
0.0
 10
291.822537
 20
49.911090
 30
0.0
  0
LWPOLYLINE
  5
114
100
AcDbEntity
  8
Capa_1
 62
1
100
AcDbPolyline
 90
1
 70
1
 10
194.738097
 20
49.911090
 30
0.0
  0
SPLINE
  5
115
100
AcDbEntity
  8
Capa_1
 62
1
100
AcDbSpline
 70
8
 71
3
 72
8
 73
4
 74
0
 40
0
 40
0
 40
0
 40
0
 40
1
 40
1
 40
1
 40
1
 10
98.330764
 20
147.540050
 30
0.0
 10
98.330764
 20
131.517108
 30
0.0
 10
89.782626
 20
116.711300
 30
0.0
 10
75.906351
 20
108.699829
 30
0.0
  0
SPLINE
  5
116
100
AcDbEntity
  8
Capa_1
 62
1
100
AcDbSpline
 70
8
 71
3
 72
8
 73
4
 74
0
 40
0
 40
0
 40
0
 40
0
 40
1
 40
1
 40
1
 40
1
 10
75.906351
 20
108.699829
 30
0.0
 10
62.030075
 20
100.688358
 30
0.0
 10
44.933799
 20
100.688358
 30
0.0
 10
31.057524
 20
108.699829
 30
0.0
  0
SPLINE
  5
117
100
AcDbEntity
  8
Capa_1
 62
1
100
AcDbSpline
 70
8
 71
3
 72
8
 73
4
 74
0
 40
0
 40
0
 40
0
 40
0
 40
1
 40
1
 40
1
 40
1
 10
31.057524
 20
108.699829
 30
0.0
 10
17.181248
 20
116.711300
 30
0.0
 10
8.633110
 20
131.517108
 30
0.0
 10
8.633110
 20
147.540050
 30
0.0
  0
SPLINE
  5
118
100
AcDbEntity
  8
Capa_1
 62
1
100
AcDbSpline
 70
8
 71
3
 72
8
 73
4
 74
0
 40
0
 40
0
 40
0
 40
0
 40
1
 40
1
 40
1
 40
1
 10
8.633110
 20
147.540050
 30
0.0
 10
8.633110
 20
163.562992
 30
0.0
 10
17.181248
 20
178.368800
 30
0.0
 10
31.057524
 20
186.380271
 30
0.0
  0
SPLINE
  5
119
100
AcDbEntity
  8
Capa_1
 62
1
100
AcDbSpline
 70
8
 71
3
 72
8
 73
4
 74
0
 40
0
 40
0
 40
0
 40
0
 40
1
 40
1
 40
1
 40
1
 10
31.057524
 20
186.380271
 30
0.0
 10
44.933799
 20
194.391742
 30
0.0
 10
62.030075
 20
194.391742
 30
0.0
 10
75.906351
 20
186.380271
 30
0.0
  0
SPLINE
  5
11a
100
AcDbEntity
  8
Capa_1
 62
1
100
AcDbSpline
 70
8
 71
3
 72
8
 73
4
 74
0
 40
0
 40
0
 40
0
 40
0
 40
1
 40
1
 40
1
 40
1
 10
75.906351
 20
186.380271
 30
0.0
 10
89.782626
 20
178.368800
 30
0.0
 10
98.330764
 20
163.562992
 30
0.0
 10
98.330764
 20
147.540050
 30
0.0
  0
LWPOLYLINE
  5
11b
100
AcDbEntity
  8
Capa_1
 62
1
100
AcDbPolyline
 90
1
 70
1
 10
291.822537
 20
49.911090
 30
0.0
  0
SPLINE
  5
11c
100
AcDbEntity
  8
Capa_1
 62
1
100
AcDbSpline
 70
8
 71
3
 72
8
 73
4
 74
0
 40
0
 40
0
 40
0
 40
0
 40
1
 40
1
 40
1
 40
1
 10
195.415217
 20
147.540050
 30
0.0
 10
195.415217
 20
131.517108
 30
0.0
 10
186.867079
 20
116.711300
 30
0.0
 10
172.990804
 20
108.699829
 30
0.0
  0
SPLINE
  5
11d
100
AcDbEntity
  8
Capa_1
 62
1
100
AcDbSpline
 70
8
 71
3
 72
8
 73
4
 74
0
 40
0
 40
0
 40
0
 40
0
 40
1
 40
1
 40
1
 40
1
 10
172.990804
 20
108.699829
 30
0.0
 10
159.114528
 20
100.688358
 30
0.0
 10
142.018252
 20
100.688358
 30
0.0
 10
128.141977
 20
108.699829
 30
0.0
  0
SPLINE
  5
11e
100
AcDbEntity
  8
Capa_1
 62
1
100
AcDbSpline
 70
8
 71
3
 72
8
 73
4
 74
0
 40
0
 40
0
 40
0
 40
0
 40
1
 40
1
 40
1
 40
1
 10
128.141977
 20
108.699829
 30
0.0
 10
114.265701
 20
116.711300
 30
0.0
 10
105.717563
 20
131.517108
 30
0.0
 10
105.717563
 20
147.540050
 30
0.0
  0
SPLINE
  5
11f
100
AcDbEntity
  8
Capa_1
 62
1
100
AcDbSpline
 70
8
 71
3
 72
8
 73
4
 74
0
 40
0
 40
0
 40
0
 40
0
 40
1
 40
1
 40
1
 40
1
 10
105.717563
 20
147.540050
 30
0.0
 10
105.717563
 20
163.562992
 30
0.0
 10
114.265701
 20
178.368800
 30
0.0
 10
128.141977
 20
186.380271
 30
0.0
  0
SPLINE
  5
120
100
AcDbEntity
  8
Capa_1
 62
1
100
AcDbSpline
 70
8
 71
3
 72
8
 73
4
 74
0
 40
0
 40
0
 40
0
 40
0
 40
1
 40
1
 40
1
 40
1
 10
128.141977
 20
186.380271
 30
0.0
 10
142.018252
 20
194.391742
 30
0.0
 10
159.114528
 20
194.391742
 30
0.0
 10
172.990804
 20
186.380271
 30
0.0
  0
SPLINE
  5
121
100
AcDbEntity
  8
Capa_1
 62
1
100
AcDbSpline
 70
8
 71
3
 72
8
 73
4
 74
0
 40
0
 40
0
 40
0
 40
0
 40
1
 40
1
 40
1
 40
1
 10
172.990804
 20
186.380271
 30
0.0
 10
186.867079
 20
178.368800
 30
0.0
 10
195.415217
 20
163.562992
 30
0.0
 10
195.415217
 20
147.540050
 30
0.0
  0
LWPOLYLINE
  5
122
100
AcDbEntity
  8
Capa_1
 62
1
100
AcDbPolyline
 90
1
 70
1
 10
98.330764
 20
147.540050
 30
0.0
  0
SPLINE
  5
123
100
AcDbEntity
  8
Capa_1
 62
1
100
AcDbSpline
 70
8
 71
3
 72
8
 73
4
 74
0
 40
0
 40
0
 40
0
 40
0
 40
1
 40
1
 40
1
 40
1
 10
292.499647
 20
147.540050
 30
0.0
 10
292.499647
 20
131.517108
 30
0.0
 10
283.951509
 20
116.711300
 30
0.0
 10
270.075234
 20
108.699829
 30
0.0
  0
SPLINE
  5
124
100
AcDbEntity
  8
Capa_1
 62
1
100
AcDbSpline
 70
8
 71
3
 72
8
 73
4
 74
0
 40
0
 40
0
 40
0
 40
0
 40
1
 40
1
 40
1
 40
1
 10
270.075234
 20
108.699829
 30
0.0
 10
256.198958
 20
100.688358
 30
0.0
 10
239.102682
 20
100.688358
 30
0.0
 10
225.226407
 20
108.699829
 30
0.0
  0
SPLINE
  5
125
100
AcDbEntity
  8
Capa_1
 62
1
100
AcDbSpline
 70
8
 71
3
 72
8
 73
4
 74
0
 40
0
 40
0
 40
0
 40
0
 40
1
 40
1
 40
1
 40
1
 10
225.226407
 20
108.699829
 30
0.0
 10
211.350131
 20
116.711300
 30
0.0
 10
202.801993
 20
131.517108
 30
0.0
 10
202.801993
 20
147.540050
 30
0.0
  0
SPLINE
  5
126
100
AcDbEntity
  8
Capa_1
 62
1
100
AcDbSpline
 70
8
 71
3
 72
8
 73
4
 74
0
 40
0
 40
0
 40
0
 40
0
 40
1
 40
1
 40
1
 40
1
 10
202.801993
 20
147.540050
 30
0.0
 10
202.801993
 20
163.562992
 30
0.0
 10
211.350131
 20
178.368800
 30
0.0
 10
225.226407
 20
186.380271
 30
0.0
  0
SPLINE
  5
127
100
AcDbEntity
  8
Capa_1
 62
1
100
AcDbSpline
 70
8
 71
3
 72
8
 73
4
 74
0
 40
0
 40
0
 40
0
 40
0
 40
1
 40
1
 40
1
 40
1
 10
225.226407
 20
186.380271
 30
0.0
 10
239.102682
 20
194.391742
 30
0.0
 10
256.198958
 20
194.391742
 30
0.0
 10
270.075234
 20
186.380271
 30
0.0
  0
SPLINE
  5
128
100
AcDbEntity
  8
Capa_1
 62
1
100
AcDbSpline
 70
8
 71
3
 72
8
 73
4
 74
0
 40
0
 40
0
 40
0
 40
0
 40
1
 40
1
 40
1
 40
1
 10
270.075234
 20
186.380271
 30
0.0
 10
283.951509
 20
178.368800
 30
0.0
 10
292.499647
 20
163.562992
 30
0.0
 10
292.499647
 20
147.540050
 30
0.0
  0
LWPOLYLINE
  5
129
100
AcDbEntity
  8
Capa_1
 62
1
100
AcDbPolyline
 90
1
 70
1
 10
195.415217
 20
147.540050
 30
0.0
  0
SPLINE
  5
12a
100
AcDbEntity
  8
Capa_1
 62
1
100
AcDbSpline
 70
8
 71
3
 72
8
 73
4
 74
0
 40
0
 40
0
 40
0
 40
0
 40
1
 40
1
 40
1
 40
1
 10
98.865299
 20
245.169044
 30
0.0
 10
98.865299
 20
229.146102
 30
0.0
 10
90.317161
 20
214.340294
 30
0.0
 10
76.440886
 20
206.328823
 30
0.0
  0
SPLINE
  5
12b
100
AcDbEntity
  8
Capa_1
 62
1
100
AcDbSpline
 70
8
 71
3
 72
8
 73
4
 74
0
 40
0
 40
0
 40
0
 40
0
 40
1
 40
1
 40
1
 40
1
 10
76.440886
 20
206.328823
 30
0.0
 10
62.564610
 20
198.317352
 30
0.0
 10
45.468334
 20
198.317352
 30
0.0
 10
31.592059
 20
206.328823
 30
0.0
  0
SPLINE
  5
12c
100
AcDbEntity
  8
Capa_1
 62
1
100
AcDbSpline
 70
8
 71
3
 72
8
 73
4
 74
0
 40
0
 40
0
 40
0
 40
0
 40
1
 40
1
 40
1
 40
1
 10
31.592059
 20
206.328823
 30
0.0
 10
17.715783
 20
214.340294
 30
0.0
 10
9.167645
 20
229.146102
 30
0.0
 10
9.167645
 20
245.169044
 30
0.0
  0
SPLINE
  5
12d
100
AcDbEntity
  8
Capa_1
 62
1
100
AcDbSpline
 70
8
 71
3
 72
8
 73
4
 74
0
 40
0
 40
0
 40
0
 40
0
 40
1
 40
1
 40
1
 40
1
 10
9.167645
 20
245.169044
 30
0.0
 10
9.167645
 20
261.191986
 30
0.0
 10
17.715783
 20
275.997794
 30
0.0
 10
31.592059
 20
284.009265
 30
0.0
  0
SPLINE
  5
12e
100
AcDbEntity
  8
Capa_1
 62
1
100
AcDbSpline
 70
8
 71
3
 72
8
 73
4
 74
0
 40
0
 40
0
 40
0
 40
0
 40
1
 40
1
 40
1
 40
1
 10
31.592059
 20
284.009265
 30
0.0
 10
45.468334
 20
292.020736
 30
0.0
 10
62.564610
 20
292.020736
 30
0.0
 10
76.440886
 20
284.009265
 30
0.0
  0
SPLINE
  5
12f
100
AcDbEntity
  8
Capa_1
 62
1
100
AcDbSpline
 70
8
 71
3
 72
8
 73
4
 74
0
 40
0
 40
0
 40
0
 40
0
 40
1
 40
1
 40
1
 40
1
 10
76.440886
 20
284.009265
 30
0.0
 10
90.317161
 20
275.997794
 30
0.0
 10
98.865299
 20
261.191986
 30
0.0
 10
98.865299
 20
245.169044
 30
0.0
  0
LWPOLYLINE
  5
130
100
AcDbEntity
  8
Capa_1
 62
1
100
AcDbPolyline
 90
1
 70
1
 10
292.499647
 20
147.540050
 30
0.0
  0
SPLINE
  5
131
100
AcDbEntity
  8
Capa_1
 62
1
100
AcDbSpline
 70
8
 71
3
 72
8
 73
4
 74
0
 40
0
 40
0
 40
0
 40
0
 40
1
 40
1
 40
1
 40
1
 10
195.949747
 20
245.169044
 30
0.0
 10
195.949747
 20
229.146102
 30
0.0
 10
187.401609
 20
214.340294
 30
0.0
 10
173.525334
 20
206.328823
 30
0.0
  0
SPLINE
  5
132
100
AcDbEntity
  8
Capa_1
 62
1
100
AcDbSpline
 70
8
 71
3
 72
8
 73
4
 74
0
 40
0
 40
0
 40
0
 40
0
 40
1
 40
1
 40
1
 40
1
 10
173.525334
 20
206.328823
 30
0.0
 10
159.649058
 20
198.317352
 30
0.0
 10
142.552782
 20
198.317352
 30
0.0
 10
128.676507
 20
206.328823
 30
0.0
  0
SPLINE
  5
133
100
AcDbEntity
  8
Capa_1
 62
1
100
AcDbSpline
 70
8
 71
3
 72
8
 73
4
 74
0
 40
0
 40
0
 40
0
 40
0
 40
1
 40
1
 40
1
 40
1
 10
128.676507
 20
206.328823
 30
0.0
 10
114.800231
 20
214.340294
 30
0.0
 10
106.252093
 20
229.146102
 30
0.0
 10
106.252093
 20
245.169044
 30
0.0
  0
SPLINE
  5
134
100
AcDbEntity
  8
Capa_1
 62
1
100
AcDbSpline
 70
8
 71
3
 72
8
 73
4
 74
0
 40
0
 40
0
 40
0
 40
0
 40
1
 40
1
 40
1
 40
1
 10
106.252093
 20
245.169044
 30
0.0
 10
106.252093
 20
261.191986
 30
0.0
 10
114.800231
 20
275.997794
 30
0.0
 10
128.676507
 20
284.009265
 30
0.0
  0
SPLINE
  5
135
100
AcDbEntity
  8
Capa_1
 62
1
100
AcDbSpline
 70
8
 71
3
 72
8
 73
4
 74
0
 40
0
 40
0
 40
0
 40
0
 40
1
 40
1
 40
1
 40
1
 10
128.676507
 20
284.009265
 30
0.0
 10
142.552782
 20
292.020736
 30
0.0
 10
159.649058
 20
292.020736
 30
0.0
 10
173.525334
 20
284.009265
 30
0.0
  0
SPLINE
  5
136
100
AcDbEntity
  8
Capa_1
 62
1
100
AcDbSpline
 70
8
 71
3
 72
8
 73
4
 74
0
 40
0
 40
0
 40
0
 40
0
 40
1
 40
1
 40
1
 40
1
 10
173.525334
 20
284.009265
 30
0.0
 10
187.401609
 20
275.997794
 30
0.0
 10
195.949747
 20
261.191986
 30
0.0
 10
195.949747
 20
245.169044
 30
0.0
  0
LWPOLYLINE
  5
137
100
AcDbEntity
  8
Capa_1
 62
1
100
AcDbPolyline
 90
1
 70
1
 10
98.865299
 20
245.169044
 30
0.0
  0
SPLINE
  5
138
100
AcDbEntity
  8
Capa_1
 62
1
100
AcDbSpline
 70
8
 71
3
 72
8
 73
4
 74
0
 40
0
 40
0
 40
0
 40
0
 40
1
 40
1
 40
1
 40
1
 10
293.034184
 20
245.169018
 30
0.0
 10
293.034184
 20
229.146075
 30
0.0
 10
284.486046
 20
214.340266
 30
0.0
 10
270.609772
 20
206.328794
 30
0.0
  0
SPLINE
  5
139
100
AcDbEntity
  8
Capa_1
 62
1
100
AcDbSpline
 70
8
 71
3
 72
8
 73
4
 74
0
 40
0
 40
0
 40
0
 40
0
 40
1
 40
1
 40
1
 40
1
 10
270.609772
 20
206.328794
 30
0.0
 10
256.733498
 20
198.317323
 30
0.0
 10
239.637222
 20
198.317323
 30
0.0
 10
225.760948
 20
206.328794
 30
0.0
  0
SPLINE
  5
13a
100
AcDbEntity
  8
Capa_1
 62
1
100
AcDbSpline
 70
8
 71
3
 72
8
 73
4
 74
0
 40
0
 40
0
 40
0
 40
0
 40
1
 40
1
 40
1
 40
1
 10
225.760948
 20
206.328794
 30
0.0
 10
211.884674
 20
214.340266
 30
0.0
 10
203.336536
 20
229.146075
 30
0.0
 10
203.336536
 20
245.169018
 30
0.0
  0
SPLINE
  5
13b
100
AcDbEntity
  8
Capa_1
 62
1
100
AcDbSpline
 70
8
 71
3
 72
8
 73
4
 74
0
 40
0
 40
0
 40
0
 40
0
 40
1
 40
1
 40
1
 40
1
 10
203.336536
 20
245.169018
 30
0.0
 10
203.336536
 20
261.191961
 30
0.0
 10
211.884674
 20
275.997770
 30
0.0
 10
225.760948
 20
284.009242
 30
0.0
  0
SPLINE
  5
13c
100
AcDbEntity
  8
Capa_1
 62
1
100
AcDbSpline
 70
8
 71
3
 72
8
 73
4
 74
0
 40
0
 40
0
 40
0
 40
0
 40
1
 40
1
 40
1
 40
1
 10
225.760948
 20
284.009242
 30
0.0
 10
239.637222
 20
292.020713
 30
0.0
 10
256.733498
 20
292.020713
 30
0.0
 10
270.609772
 20
284.009242
 30
0.0
  0
SPLINE
  5
13d
100
AcDbEntity
  8
Capa_1
 62
1
100
AcDbSpline
 70
8
 71
3
 72
8
 73
4
 74
0
 40
0
 40
0
 40
0
 40
0
 40
1
 40
1
 40
1
 40
1
 10
270.609772
 20
284.009242
 30
0.0
 10
284.486046
 20
275.997770
 30
0.0
 10
293.034184
 20
261.191961
 30
0.0
 10
293.034184
 20
245.169018
 30
0.0
  0
LWPOLYLINE
  5
13e
100
AcDbEntity
  8
Capa_1
 62
1
100
AcDbPolyline
 90
1
 70
1
 10
195.949747
 20
245.169044
 30
0.0
  0
LWPOLYLINE
  5
13f
100
AcDbEntity
  8
Capa_1
 62
1
100
AcDbPolyline
 90
1
 70
1
 10
293.034184
 20
245.169018
 30
0.0
  0
ENDSEC
  0
SECTION
  2
OBJECTS
  0
DICTIONARY
  5
C
330
0
100
AcDbDictionary
  3
ACAD_GROUP
350
D
  3
ACAD_MLINESTYLE
350
17
  0
DICTIONARY
  5
D
330
C
100
AcDbDictionary
  0
DICTIONARY
  5
1A
330
C
100
AcDbDictionary
  0
DICTIONARY
  5
17
330
C
100
AcDbDictionary
  3
STANDARD
350
18
  0
DICTIONARY
  5
19
330
C
100
AcDbDictionary
  0
ENDSEC
  0
EOF
