G04 #@! TF.GenerationSoftware,KiCad,Pcbnew,(5.1.9)-1*
G04 #@! TF.CreationDate,2021-10-29T13:55:56-03:00*
G04 #@! TF.ProjectId,RG_Led_ring,52475f4c-6564-45f7-9269-6e672e6b6963,rev?*
G04 #@! TF.SameCoordinates,Original*
G04 #@! TF.FileFunction,Legend,Bot*
G04 #@! TF.FilePolarity,Positive*
%FSLAX46Y46*%
G04 Gerber Fmt 4.6, Leading zero omitted, Abs format (unit mm)*
G04 Created by KiCad (PCBNEW (5.1.9)-1) date 2021-10-29 13:55:56*
%MOMM*%
%LPD*%
G01*
G04 APERTURE LIST*
%ADD10C,0.300000*%
%ADD11C,0.010000*%
%ADD12C,0.120000*%
%ADD13C,0.150000*%
%ADD14O,2.900000X2.200000*%
%ADD15C,2.200000*%
%ADD16O,2.200000X2.900000*%
G04 APERTURE END LIST*
D10*
X132234009Y-125639933D02*
X131227310Y-126221338D01*
X131198228Y-125156941D02*
X130352992Y-126969557D01*
X131043512Y-127291552D01*
X131256391Y-127285735D01*
X131382956Y-127239670D01*
X131549770Y-127107289D01*
X131670518Y-126848344D01*
X131664701Y-126635464D01*
X131618636Y-126508900D01*
X131486255Y-126342086D01*
X130795735Y-126020091D01*
X133420083Y-128504849D02*
X132953146Y-125449854D01*
X135054253Y-129056707D02*
X134841373Y-129062523D01*
X134582428Y-128941775D01*
X134363732Y-128734712D01*
X134271601Y-128481583D01*
X134265785Y-128268704D01*
X134340467Y-127883194D01*
X134461215Y-127624249D01*
X134708528Y-127319239D01*
X134875342Y-127186858D01*
X135128470Y-127094727D01*
X135427665Y-127129160D01*
X135600295Y-127209658D01*
X135818990Y-127416721D01*
X135865056Y-127543286D01*
X135583311Y-128147491D01*
X135238051Y-127986494D01*
X137781436Y-129067410D02*
X139162476Y-129711400D01*
X142591812Y-130469856D02*
X141728662Y-130067363D01*
X140883425Y-131879978D01*
X142753274Y-131701067D02*
X143357479Y-131982813D01*
X144059167Y-131154095D02*
X143196017Y-130751602D01*
X142350781Y-132564217D01*
X143213931Y-132966711D01*
X144836003Y-131516340D02*
X143990766Y-133328955D01*
X144422341Y-133530202D01*
X144721536Y-133564635D01*
X144974665Y-133472504D01*
X145141478Y-133340123D01*
X145388791Y-133035112D01*
X145509539Y-132776167D01*
X145584221Y-132390658D01*
X145578405Y-132177778D01*
X145486274Y-131924650D01*
X145267578Y-131717586D01*
X144836003Y-131516340D01*
X132836111Y-122880806D02*
X131972961Y-122478313D01*
X131127725Y-124290928D01*
X134217152Y-123524796D02*
X133774409Y-124474261D01*
X133607595Y-124606642D01*
X133394716Y-124612458D01*
X133049456Y-124451461D01*
X132917075Y-124284647D01*
X134176902Y-123611111D02*
X134044522Y-123444297D01*
X133612947Y-123243050D01*
X133400067Y-123248867D01*
X133233253Y-123381247D01*
X133152755Y-123553877D01*
X133158571Y-123766757D01*
X133290952Y-123933571D01*
X133722527Y-124134817D01*
X133854908Y-124301631D01*
X135080302Y-123927289D02*
X134235065Y-125739905D01*
X134557060Y-125049385D02*
X134689441Y-125216199D01*
X135034701Y-125377196D01*
X135247581Y-125371380D01*
X135374145Y-125325314D01*
X135540959Y-125192933D01*
X135782455Y-124675043D01*
X135776639Y-124462164D01*
X135730573Y-124335599D01*
X135598192Y-124168786D01*
X135252932Y-124007788D01*
X135040053Y-124013604D01*
X135616106Y-126383895D02*
X136651886Y-126866887D01*
X136979233Y-124812775D02*
X136133996Y-126625391D01*
X138751599Y-125744327D02*
X138619218Y-125577513D01*
X138273958Y-125416516D01*
X138061079Y-125422332D01*
X137894265Y-125554713D01*
X137572270Y-126245233D01*
X137578086Y-126458112D01*
X137710467Y-126624926D01*
X138055727Y-126785924D01*
X138268607Y-126780107D01*
X138435420Y-126647727D01*
X138515919Y-126475096D01*
X137733267Y-125899973D01*
X140391584Y-126509065D02*
X140259204Y-126342251D01*
X139913944Y-126181254D01*
X139701064Y-126187070D01*
X139574500Y-126233136D01*
X139407686Y-126365516D01*
X139166190Y-126883406D01*
X139172006Y-127096286D01*
X139218072Y-127222850D01*
X139350453Y-127389664D01*
X139695713Y-127550661D01*
X139908592Y-127544845D01*
X142071819Y-127187487D02*
X141208669Y-126784994D01*
X140363432Y-128597609D01*
X142676024Y-127469233D02*
X142112533Y-128677643D01*
X141830788Y-129281849D02*
X141784722Y-129155284D01*
X141911287Y-129109219D01*
X141957352Y-129235783D01*
X141830788Y-129281849D01*
X141911287Y-129109219D01*
X143539175Y-127871727D02*
X142693938Y-129684342D01*
X143015933Y-128993822D02*
X143148314Y-129160636D01*
X143493574Y-129321633D01*
X143706453Y-129315817D01*
X143833018Y-129269751D01*
X143999831Y-129137370D01*
X144241328Y-128619480D01*
X144235511Y-128406601D01*
X144189446Y-128280036D01*
X144057065Y-128113223D01*
X143711805Y-127952225D01*
X143498925Y-127958042D01*
X145179160Y-128636464D02*
X144615669Y-129844875D01*
X144776667Y-129499615D02*
X144782483Y-129712494D01*
X144828549Y-129839058D01*
X144960929Y-130005872D01*
X145133559Y-130086371D01*
X146951526Y-129568016D02*
X146819146Y-129401202D01*
X146473886Y-129240205D01*
X146261006Y-129246021D01*
X146094192Y-129378402D01*
X145772198Y-130068922D01*
X145778014Y-130281801D01*
X145910395Y-130448615D01*
X146255655Y-130609613D01*
X146468534Y-130603796D01*
X146635348Y-130471416D01*
X146715847Y-130298786D01*
X145933195Y-129723662D01*
D11*
G36*
X157155852Y-130140777D02*
G01*
X157221506Y-130104578D01*
X157254247Y-130078727D01*
X157330758Y-129986288D01*
X157382956Y-129881345D01*
X157410909Y-129763411D01*
X157414685Y-129632004D01*
X157394348Y-129486637D01*
X157355887Y-129344710D01*
X157296539Y-129191822D01*
X157226146Y-129064769D01*
X157144488Y-128963326D01*
X157051351Y-128887265D01*
X156946513Y-128836361D01*
X156843588Y-128812084D01*
X156781221Y-128811838D01*
X156704454Y-128823363D01*
X156623166Y-128844049D01*
X156547238Y-128871285D01*
X156486553Y-128902461D01*
X156477217Y-128908865D01*
X156393972Y-128985346D01*
X156332808Y-129077825D01*
X156293430Y-129187066D01*
X156275543Y-129313832D01*
X156276488Y-129428085D01*
X156286687Y-129498222D01*
X156307858Y-129583984D01*
X156337279Y-129677896D01*
X156372229Y-129772489D01*
X156409987Y-129860287D01*
X156447829Y-129933818D01*
X156476727Y-129977858D01*
X156566253Y-130076557D01*
X156661463Y-130148268D01*
X156763812Y-130193905D01*
X156849488Y-130211983D01*
X156914882Y-130211068D01*
X156993661Y-130196945D01*
X157076944Y-130172541D01*
X157155852Y-130140777D01*
G37*
X157155852Y-130140777D02*
X157221506Y-130104578D01*
X157254247Y-130078727D01*
X157330758Y-129986288D01*
X157382956Y-129881345D01*
X157410909Y-129763411D01*
X157414685Y-129632004D01*
X157394348Y-129486637D01*
X157355887Y-129344710D01*
X157296539Y-129191822D01*
X157226146Y-129064769D01*
X157144488Y-128963326D01*
X157051351Y-128887265D01*
X156946513Y-128836361D01*
X156843588Y-128812084D01*
X156781221Y-128811838D01*
X156704454Y-128823363D01*
X156623166Y-128844049D01*
X156547238Y-128871285D01*
X156486553Y-128902461D01*
X156477217Y-128908865D01*
X156393972Y-128985346D01*
X156332808Y-129077825D01*
X156293430Y-129187066D01*
X156275543Y-129313832D01*
X156276488Y-129428085D01*
X156286687Y-129498222D01*
X156307858Y-129583984D01*
X156337279Y-129677896D01*
X156372229Y-129772489D01*
X156409987Y-129860287D01*
X156447829Y-129933818D01*
X156476727Y-129977858D01*
X156566253Y-130076557D01*
X156661463Y-130148268D01*
X156763812Y-130193905D01*
X156849488Y-130211983D01*
X156914882Y-130211068D01*
X156993661Y-130196945D01*
X157076944Y-130172541D01*
X157155852Y-130140777D01*
G36*
X162614086Y-126805329D02*
G01*
X164009814Y-126351830D01*
X163887718Y-125976057D01*
X162089375Y-126560374D01*
X162992014Y-129338410D01*
X163394628Y-129207592D01*
X162614086Y-126805329D01*
G37*
X162614086Y-126805329D02*
X164009814Y-126351830D01*
X163887718Y-125976057D01*
X162089375Y-126560374D01*
X162992014Y-129338410D01*
X163394628Y-129207592D01*
X162614086Y-126805329D01*
G36*
X170099611Y-126167593D02*
G01*
X170216463Y-126103666D01*
X170329078Y-126025731D01*
X170343055Y-126014966D01*
X170388132Y-125977363D01*
X170437661Y-125931995D01*
X170487482Y-125883209D01*
X170533440Y-125835351D01*
X170571377Y-125792768D01*
X170597136Y-125759804D01*
X170606560Y-125740808D01*
X170606387Y-125739646D01*
X170593323Y-125727744D01*
X170559724Y-125703529D01*
X170509147Y-125669382D01*
X170445152Y-125627682D01*
X170371297Y-125580812D01*
X170336142Y-125558883D01*
X170284937Y-125527112D01*
X170215077Y-125602594D01*
X170170871Y-125646353D01*
X170113684Y-125697468D01*
X170053611Y-125747044D01*
X170033465Y-125762620D01*
X169981868Y-125800596D01*
X169938883Y-125828505D01*
X169895986Y-125850633D01*
X169844658Y-125871268D01*
X169776375Y-125894699D01*
X169760775Y-125899823D01*
X169691064Y-125922187D01*
X169640676Y-125936476D01*
X169602251Y-125943802D01*
X169568427Y-125945283D01*
X169531845Y-125942033D01*
X169506233Y-125938385D01*
X169421532Y-125914901D01*
X169354052Y-125874212D01*
X169306562Y-125819221D01*
X169281828Y-125752827D01*
X169279568Y-125700733D01*
X169286945Y-125662065D01*
X169304114Y-125626759D01*
X169333680Y-125592990D01*
X169378250Y-125558933D01*
X169440430Y-125522762D01*
X169522826Y-125482655D01*
X169628044Y-125436781D01*
X169697442Y-125408085D01*
X169833336Y-125350116D01*
X169944847Y-125296417D01*
X170035066Y-125244806D01*
X170107088Y-125193106D01*
X170164003Y-125139138D01*
X170208904Y-125080722D01*
X170240046Y-125025714D01*
X170270041Y-124955420D01*
X170286765Y-124888894D01*
X170290192Y-124819868D01*
X170280291Y-124742080D01*
X170257033Y-124649260D01*
X170237983Y-124587827D01*
X170212440Y-124511402D01*
X170191595Y-124455660D01*
X170172445Y-124414131D01*
X170151988Y-124380349D01*
X170127221Y-124347845D01*
X170125754Y-124346063D01*
X170041147Y-124261714D01*
X169943994Y-124199211D01*
X169833322Y-124158437D01*
X169708155Y-124139275D01*
X169567521Y-124141610D01*
X169410443Y-124165322D01*
X169235949Y-124210297D01*
X169169388Y-124231435D01*
X169079782Y-124262856D01*
X169008248Y-124292423D01*
X168945308Y-124324420D01*
X168888981Y-124358332D01*
X168804298Y-124413867D01*
X168738029Y-124461344D01*
X168683644Y-124505909D01*
X168634617Y-124552707D01*
X168611487Y-124577024D01*
X168571086Y-124623158D01*
X168530893Y-124673411D01*
X168494794Y-124722349D01*
X168466674Y-124764544D01*
X168450418Y-124794563D01*
X168448155Y-124805358D01*
X168460480Y-124816481D01*
X168491129Y-124839123D01*
X168534651Y-124869598D01*
X168585597Y-124904224D01*
X168638511Y-124939315D01*
X168687945Y-124971188D01*
X168728445Y-124996157D01*
X168742415Y-125004222D01*
X168756208Y-125006284D01*
X168774392Y-124995960D01*
X168800796Y-124969986D01*
X168839252Y-124925100D01*
X168848414Y-124913948D01*
X168970166Y-124783893D01*
X169101542Y-124679268D01*
X169241560Y-124600732D01*
X169389240Y-124548943D01*
X169394667Y-124547591D01*
X169516597Y-124524638D01*
X169618707Y-124520734D01*
X169701984Y-124535868D01*
X169721592Y-124543312D01*
X169787992Y-124579974D01*
X169833484Y-124626990D01*
X169865268Y-124692221D01*
X169869539Y-124704805D01*
X169882151Y-124761364D01*
X169879883Y-124812503D01*
X169860926Y-124859979D01*
X169823471Y-124905549D01*
X169765708Y-124950974D01*
X169685828Y-124998011D01*
X169582021Y-125048419D01*
X169463602Y-125099380D01*
X169323445Y-125159519D01*
X169208011Y-125214581D01*
X169114691Y-125266518D01*
X169040874Y-125317279D01*
X168983951Y-125368818D01*
X168941311Y-125423083D01*
X168910345Y-125482028D01*
X168895040Y-125524424D01*
X168879605Y-125579921D01*
X168871567Y-125628072D01*
X168871484Y-125675594D01*
X168879917Y-125729212D01*
X168897423Y-125795643D01*
X168924564Y-125881611D01*
X168924847Y-125882473D01*
X168961178Y-125984742D01*
X168996946Y-126064379D01*
X169035881Y-126126645D01*
X169081718Y-126176802D01*
X169138188Y-126220110D01*
X169184295Y-126248178D01*
X169277213Y-126291644D01*
X169374503Y-126317644D01*
X169480140Y-126326310D01*
X169598095Y-126317769D01*
X169732345Y-126292151D01*
X169821354Y-126268923D01*
X169970563Y-126221388D01*
X170099611Y-126167593D01*
G37*
X170099611Y-126167593D02*
X170216463Y-126103666D01*
X170329078Y-126025731D01*
X170343055Y-126014966D01*
X170388132Y-125977363D01*
X170437661Y-125931995D01*
X170487482Y-125883209D01*
X170533440Y-125835351D01*
X170571377Y-125792768D01*
X170597136Y-125759804D01*
X170606560Y-125740808D01*
X170606387Y-125739646D01*
X170593323Y-125727744D01*
X170559724Y-125703529D01*
X170509147Y-125669382D01*
X170445152Y-125627682D01*
X170371297Y-125580812D01*
X170336142Y-125558883D01*
X170284937Y-125527112D01*
X170215077Y-125602594D01*
X170170871Y-125646353D01*
X170113684Y-125697468D01*
X170053611Y-125747044D01*
X170033465Y-125762620D01*
X169981868Y-125800596D01*
X169938883Y-125828505D01*
X169895986Y-125850633D01*
X169844658Y-125871268D01*
X169776375Y-125894699D01*
X169760775Y-125899823D01*
X169691064Y-125922187D01*
X169640676Y-125936476D01*
X169602251Y-125943802D01*
X169568427Y-125945283D01*
X169531845Y-125942033D01*
X169506233Y-125938385D01*
X169421532Y-125914901D01*
X169354052Y-125874212D01*
X169306562Y-125819221D01*
X169281828Y-125752827D01*
X169279568Y-125700733D01*
X169286945Y-125662065D01*
X169304114Y-125626759D01*
X169333680Y-125592990D01*
X169378250Y-125558933D01*
X169440430Y-125522762D01*
X169522826Y-125482655D01*
X169628044Y-125436781D01*
X169697442Y-125408085D01*
X169833336Y-125350116D01*
X169944847Y-125296417D01*
X170035066Y-125244806D01*
X170107088Y-125193106D01*
X170164003Y-125139138D01*
X170208904Y-125080722D01*
X170240046Y-125025714D01*
X170270041Y-124955420D01*
X170286765Y-124888894D01*
X170290192Y-124819868D01*
X170280291Y-124742080D01*
X170257033Y-124649260D01*
X170237983Y-124587827D01*
X170212440Y-124511402D01*
X170191595Y-124455660D01*
X170172445Y-124414131D01*
X170151988Y-124380349D01*
X170127221Y-124347845D01*
X170125754Y-124346063D01*
X170041147Y-124261714D01*
X169943994Y-124199211D01*
X169833322Y-124158437D01*
X169708155Y-124139275D01*
X169567521Y-124141610D01*
X169410443Y-124165322D01*
X169235949Y-124210297D01*
X169169388Y-124231435D01*
X169079782Y-124262856D01*
X169008248Y-124292423D01*
X168945308Y-124324420D01*
X168888981Y-124358332D01*
X168804298Y-124413867D01*
X168738029Y-124461344D01*
X168683644Y-124505909D01*
X168634617Y-124552707D01*
X168611487Y-124577024D01*
X168571086Y-124623158D01*
X168530893Y-124673411D01*
X168494794Y-124722349D01*
X168466674Y-124764544D01*
X168450418Y-124794563D01*
X168448155Y-124805358D01*
X168460480Y-124816481D01*
X168491129Y-124839123D01*
X168534651Y-124869598D01*
X168585597Y-124904224D01*
X168638511Y-124939315D01*
X168687945Y-124971188D01*
X168728445Y-124996157D01*
X168742415Y-125004222D01*
X168756208Y-125006284D01*
X168774392Y-124995960D01*
X168800796Y-124969986D01*
X168839252Y-124925100D01*
X168848414Y-124913948D01*
X168970166Y-124783893D01*
X169101542Y-124679268D01*
X169241560Y-124600732D01*
X169389240Y-124548943D01*
X169394667Y-124547591D01*
X169516597Y-124524638D01*
X169618707Y-124520734D01*
X169701984Y-124535868D01*
X169721592Y-124543312D01*
X169787992Y-124579974D01*
X169833484Y-124626990D01*
X169865268Y-124692221D01*
X169869539Y-124704805D01*
X169882151Y-124761364D01*
X169879883Y-124812503D01*
X169860926Y-124859979D01*
X169823471Y-124905549D01*
X169765708Y-124950974D01*
X169685828Y-124998011D01*
X169582021Y-125048419D01*
X169463602Y-125099380D01*
X169323445Y-125159519D01*
X169208011Y-125214581D01*
X169114691Y-125266518D01*
X169040874Y-125317279D01*
X168983951Y-125368818D01*
X168941311Y-125423083D01*
X168910345Y-125482028D01*
X168895040Y-125524424D01*
X168879605Y-125579921D01*
X168871567Y-125628072D01*
X168871484Y-125675594D01*
X168879917Y-125729212D01*
X168897423Y-125795643D01*
X168924564Y-125881611D01*
X168924847Y-125882473D01*
X168961178Y-125984742D01*
X168996946Y-126064379D01*
X169035881Y-126126645D01*
X169081718Y-126176802D01*
X169138188Y-126220110D01*
X169184295Y-126248178D01*
X169277213Y-126291644D01*
X169374503Y-126317644D01*
X169480140Y-126326310D01*
X169598095Y-126317769D01*
X169732345Y-126292151D01*
X169821354Y-126268923D01*
X169970563Y-126221388D01*
X170099611Y-126167593D01*
G36*
X167334200Y-126765369D02*
G01*
X167400835Y-126810447D01*
X167511816Y-126868981D01*
X167633641Y-126903703D01*
X167760632Y-126913683D01*
X167887115Y-126897994D01*
X167906439Y-126893170D01*
X168045052Y-126844027D01*
X168162803Y-126776705D01*
X168259048Y-126691885D01*
X168333143Y-126590247D01*
X168384444Y-126472474D01*
X168409566Y-126360772D01*
X168416712Y-126301672D01*
X168420020Y-126246352D01*
X168418782Y-126191016D01*
X168412289Y-126131867D01*
X168399832Y-126065114D01*
X168380707Y-125986960D01*
X168354202Y-125893612D01*
X168319611Y-125781273D01*
X168276286Y-125646334D01*
X168236003Y-125523433D01*
X168202576Y-125424129D01*
X168174718Y-125344995D01*
X168151147Y-125282607D01*
X168130578Y-125233536D01*
X168111729Y-125194357D01*
X168096957Y-125167719D01*
X168010538Y-125045251D01*
X167911336Y-124947635D01*
X167800638Y-124875351D01*
X167679737Y-124828886D01*
X167549925Y-124808719D01*
X167412491Y-124815335D01*
X167268727Y-124849215D01*
X167256204Y-124853385D01*
X167200315Y-124874219D01*
X167148377Y-124896601D01*
X167114653Y-124913996D01*
X167028044Y-124981158D01*
X166952637Y-125067770D01*
X166895061Y-125165431D01*
X166874018Y-125218875D01*
X166852916Y-125284129D01*
X166773117Y-125038533D01*
X166383924Y-125164990D01*
X166745056Y-126276440D01*
X167135883Y-126149453D01*
X167105538Y-126054972D01*
X167075630Y-125957946D01*
X167047576Y-125863000D01*
X167022793Y-125774761D01*
X167002698Y-125697850D01*
X166988708Y-125636896D01*
X166982238Y-125596524D01*
X166981979Y-125588992D01*
X166991244Y-125531632D01*
X167013181Y-125465345D01*
X167043029Y-125401652D01*
X167076029Y-125352071D01*
X167083052Y-125344390D01*
X167155415Y-125288781D01*
X167245086Y-125246859D01*
X167343366Y-125221342D01*
X167441560Y-125214947D01*
X167483999Y-125219125D01*
X167580061Y-125248246D01*
X167665044Y-125301985D01*
X167734588Y-125377549D01*
X167737299Y-125381441D01*
X167758557Y-125420436D01*
X167785177Y-125481635D01*
X167815496Y-125559909D01*
X167847850Y-125650126D01*
X167880576Y-125747158D01*
X167912013Y-125845874D01*
X167940495Y-125941146D01*
X167964359Y-126027843D01*
X167981943Y-126100835D01*
X167991583Y-126154991D01*
X167992815Y-126169499D01*
X167984726Y-126276971D01*
X167951720Y-126372536D01*
X167894419Y-126454532D01*
X167880535Y-126468732D01*
X167842539Y-126503059D01*
X167806608Y-126527583D01*
X167762959Y-126547786D01*
X167701813Y-126569152D01*
X167700831Y-126569471D01*
X167639259Y-126588075D01*
X167592698Y-126597443D01*
X167549954Y-126598813D01*
X167499830Y-126593425D01*
X167493152Y-126592438D01*
X167397858Y-126564753D01*
X167316661Y-126512725D01*
X167250276Y-126436857D01*
X167233301Y-126409426D01*
X167215374Y-126371376D01*
X167192218Y-126312280D01*
X167165248Y-126236764D01*
X167135883Y-126149453D01*
X166745056Y-126276440D01*
X167286563Y-127943026D01*
X167675756Y-127816570D01*
X167334200Y-126765369D01*
G37*
X167334200Y-126765369D02*
X167400835Y-126810447D01*
X167511816Y-126868981D01*
X167633641Y-126903703D01*
X167760632Y-126913683D01*
X167887115Y-126897994D01*
X167906439Y-126893170D01*
X168045052Y-126844027D01*
X168162803Y-126776705D01*
X168259048Y-126691885D01*
X168333143Y-126590247D01*
X168384444Y-126472474D01*
X168409566Y-126360772D01*
X168416712Y-126301672D01*
X168420020Y-126246352D01*
X168418782Y-126191016D01*
X168412289Y-126131867D01*
X168399832Y-126065114D01*
X168380707Y-125986960D01*
X168354202Y-125893612D01*
X168319611Y-125781273D01*
X168276286Y-125646334D01*
X168236003Y-125523433D01*
X168202576Y-125424129D01*
X168174718Y-125344995D01*
X168151147Y-125282607D01*
X168130578Y-125233536D01*
X168111729Y-125194357D01*
X168096957Y-125167719D01*
X168010538Y-125045251D01*
X167911336Y-124947635D01*
X167800638Y-124875351D01*
X167679737Y-124828886D01*
X167549925Y-124808719D01*
X167412491Y-124815335D01*
X167268727Y-124849215D01*
X167256204Y-124853385D01*
X167200315Y-124874219D01*
X167148377Y-124896601D01*
X167114653Y-124913996D01*
X167028044Y-124981158D01*
X166952637Y-125067770D01*
X166895061Y-125165431D01*
X166874018Y-125218875D01*
X166852916Y-125284129D01*
X166773117Y-125038533D01*
X166383924Y-125164990D01*
X166745056Y-126276440D01*
X167135883Y-126149453D01*
X167105538Y-126054972D01*
X167075630Y-125957946D01*
X167047576Y-125863000D01*
X167022793Y-125774761D01*
X167002698Y-125697850D01*
X166988708Y-125636896D01*
X166982238Y-125596524D01*
X166981979Y-125588992D01*
X166991244Y-125531632D01*
X167013181Y-125465345D01*
X167043029Y-125401652D01*
X167076029Y-125352071D01*
X167083052Y-125344390D01*
X167155415Y-125288781D01*
X167245086Y-125246859D01*
X167343366Y-125221342D01*
X167441560Y-125214947D01*
X167483999Y-125219125D01*
X167580061Y-125248246D01*
X167665044Y-125301985D01*
X167734588Y-125377549D01*
X167737299Y-125381441D01*
X167758557Y-125420436D01*
X167785177Y-125481635D01*
X167815496Y-125559909D01*
X167847850Y-125650126D01*
X167880576Y-125747158D01*
X167912013Y-125845874D01*
X167940495Y-125941146D01*
X167964359Y-126027843D01*
X167981943Y-126100835D01*
X167991583Y-126154991D01*
X167992815Y-126169499D01*
X167984726Y-126276971D01*
X167951720Y-126372536D01*
X167894419Y-126454532D01*
X167880535Y-126468732D01*
X167842539Y-126503059D01*
X167806608Y-126527583D01*
X167762959Y-126547786D01*
X167701813Y-126569152D01*
X167700831Y-126569471D01*
X167639259Y-126588075D01*
X167592698Y-126597443D01*
X167549954Y-126598813D01*
X167499830Y-126593425D01*
X167493152Y-126592438D01*
X167397858Y-126564753D01*
X167316661Y-126512725D01*
X167250276Y-126436857D01*
X167233301Y-126409426D01*
X167215374Y-126371376D01*
X167192218Y-126312280D01*
X167165248Y-126236764D01*
X167135883Y-126149453D01*
X166745056Y-126276440D01*
X167286563Y-127943026D01*
X167675756Y-127816570D01*
X167334200Y-126765369D01*
G36*
X165818920Y-127563204D02*
G01*
X165952454Y-127487179D01*
X166062450Y-127397501D01*
X166148341Y-127294727D01*
X166209560Y-127179416D01*
X166245543Y-127052122D01*
X166245853Y-127050326D01*
X166252510Y-127008224D01*
X166256955Y-126968629D01*
X166258619Y-126929036D01*
X166256929Y-126886938D01*
X166251313Y-126839828D01*
X166241200Y-126785201D01*
X166226018Y-126720549D01*
X166205195Y-126643367D01*
X166178161Y-126551148D01*
X166144342Y-126441386D01*
X166103167Y-126311575D01*
X166054066Y-126159206D01*
X166015429Y-126040118D01*
X165793424Y-125356855D01*
X165417651Y-125478951D01*
X165461401Y-125613601D01*
X165379021Y-125589163D01*
X165296252Y-125568715D01*
X165219660Y-125560091D01*
X165141335Y-125563611D01*
X165053367Y-125579595D01*
X164954574Y-125606342D01*
X164886706Y-125627184D01*
X164826327Y-125646756D01*
X164779941Y-125662880D01*
X164754055Y-125673382D01*
X164753835Y-125673497D01*
X164644817Y-125735103D01*
X164559165Y-125794258D01*
X164492719Y-125854751D01*
X164441320Y-125920369D01*
X164400810Y-125994896D01*
X164400785Y-125994951D01*
X164370014Y-126076364D01*
X164354735Y-126155458D01*
X164354745Y-126239383D01*
X164369840Y-126335292D01*
X164388925Y-126412124D01*
X164411939Y-126480049D01*
X164771326Y-126363277D01*
X164749215Y-126273298D01*
X164746302Y-126238646D01*
X164756241Y-126168661D01*
X164789331Y-126098791D01*
X164841424Y-126036318D01*
X164878611Y-126006409D01*
X164930937Y-125977082D01*
X165002543Y-125945646D01*
X165084941Y-125915043D01*
X165169642Y-125888213D01*
X165248162Y-125868095D01*
X165306448Y-125858169D01*
X165363014Y-125855157D01*
X165418999Y-125856748D01*
X165440029Y-125859080D01*
X165477990Y-125866335D01*
X165507669Y-125877318D01*
X165531786Y-125895894D01*
X165553064Y-125925932D01*
X165574223Y-125971297D01*
X165597985Y-126035856D01*
X165627070Y-126123477D01*
X165696727Y-126337861D01*
X165386259Y-126438738D01*
X165262774Y-126477961D01*
X165162182Y-126507977D01*
X165085458Y-126528516D01*
X165033581Y-126539308D01*
X165016769Y-126540978D01*
X164937183Y-126529834D01*
X164867972Y-126494520D01*
X164811798Y-126438009D01*
X164771326Y-126363277D01*
X164411939Y-126480049D01*
X164435534Y-126549687D01*
X164493314Y-126662165D01*
X164563414Y-126750860D01*
X164646986Y-126817070D01*
X164745181Y-126862096D01*
X164800613Y-126877179D01*
X164852010Y-126886889D01*
X164901494Y-126892081D01*
X164952907Y-126892135D01*
X165010092Y-126886434D01*
X165076891Y-126874358D01*
X165157147Y-126855291D01*
X165254702Y-126828616D01*
X165373397Y-126793711D01*
X165434518Y-126775221D01*
X165802455Y-126663257D01*
X165829470Y-126746401D01*
X165854356Y-126859218D01*
X165853186Y-126963498D01*
X165829994Y-127048713D01*
X165798107Y-127112882D01*
X165759198Y-127162897D01*
X165707598Y-127203555D01*
X165637637Y-127239659D01*
X165574847Y-127264740D01*
X165507977Y-127288420D01*
X165456295Y-127302979D01*
X165409074Y-127310477D01*
X165355588Y-127312971D01*
X165323452Y-127312988D01*
X165259349Y-127310583D01*
X165198105Y-127305036D01*
X165151350Y-127297460D01*
X165145384Y-127295970D01*
X165086125Y-127279846D01*
X164977739Y-127419317D01*
X164936218Y-127472938D01*
X164901415Y-127518249D01*
X164876775Y-127550738D01*
X164865744Y-127565892D01*
X164865537Y-127566249D01*
X164873613Y-127578716D01*
X164903347Y-127596578D01*
X164949314Y-127617291D01*
X165006091Y-127638310D01*
X165045689Y-127650773D01*
X165199343Y-127681099D01*
X165360767Y-127684507D01*
X165529332Y-127661023D01*
X165662413Y-127625019D01*
X165818920Y-127563204D01*
G37*
X165818920Y-127563204D02*
X165952454Y-127487179D01*
X166062450Y-127397501D01*
X166148341Y-127294727D01*
X166209560Y-127179416D01*
X166245543Y-127052122D01*
X166245853Y-127050326D01*
X166252510Y-127008224D01*
X166256955Y-126968629D01*
X166258619Y-126929036D01*
X166256929Y-126886938D01*
X166251313Y-126839828D01*
X166241200Y-126785201D01*
X166226018Y-126720549D01*
X166205195Y-126643367D01*
X166178161Y-126551148D01*
X166144342Y-126441386D01*
X166103167Y-126311575D01*
X166054066Y-126159206D01*
X166015429Y-126040118D01*
X165793424Y-125356855D01*
X165417651Y-125478951D01*
X165461401Y-125613601D01*
X165379021Y-125589163D01*
X165296252Y-125568715D01*
X165219660Y-125560091D01*
X165141335Y-125563611D01*
X165053367Y-125579595D01*
X164954574Y-125606342D01*
X164886706Y-125627184D01*
X164826327Y-125646756D01*
X164779941Y-125662880D01*
X164754055Y-125673382D01*
X164753835Y-125673497D01*
X164644817Y-125735103D01*
X164559165Y-125794258D01*
X164492719Y-125854751D01*
X164441320Y-125920369D01*
X164400810Y-125994896D01*
X164400785Y-125994951D01*
X164370014Y-126076364D01*
X164354735Y-126155458D01*
X164354745Y-126239383D01*
X164369840Y-126335292D01*
X164388925Y-126412124D01*
X164411939Y-126480049D01*
X164771326Y-126363277D01*
X164749215Y-126273298D01*
X164746302Y-126238646D01*
X164756241Y-126168661D01*
X164789331Y-126098791D01*
X164841424Y-126036318D01*
X164878611Y-126006409D01*
X164930937Y-125977082D01*
X165002543Y-125945646D01*
X165084941Y-125915043D01*
X165169642Y-125888213D01*
X165248162Y-125868095D01*
X165306448Y-125858169D01*
X165363014Y-125855157D01*
X165418999Y-125856748D01*
X165440029Y-125859080D01*
X165477990Y-125866335D01*
X165507669Y-125877318D01*
X165531786Y-125895894D01*
X165553064Y-125925932D01*
X165574223Y-125971297D01*
X165597985Y-126035856D01*
X165627070Y-126123477D01*
X165696727Y-126337861D01*
X165386259Y-126438738D01*
X165262774Y-126477961D01*
X165162182Y-126507977D01*
X165085458Y-126528516D01*
X165033581Y-126539308D01*
X165016769Y-126540978D01*
X164937183Y-126529834D01*
X164867972Y-126494520D01*
X164811798Y-126438009D01*
X164771326Y-126363277D01*
X164411939Y-126480049D01*
X164435534Y-126549687D01*
X164493314Y-126662165D01*
X164563414Y-126750860D01*
X164646986Y-126817070D01*
X164745181Y-126862096D01*
X164800613Y-126877179D01*
X164852010Y-126886889D01*
X164901494Y-126892081D01*
X164952907Y-126892135D01*
X165010092Y-126886434D01*
X165076891Y-126874358D01*
X165157147Y-126855291D01*
X165254702Y-126828616D01*
X165373397Y-126793711D01*
X165434518Y-126775221D01*
X165802455Y-126663257D01*
X165829470Y-126746401D01*
X165854356Y-126859218D01*
X165853186Y-126963498D01*
X165829994Y-127048713D01*
X165798107Y-127112882D01*
X165759198Y-127162897D01*
X165707598Y-127203555D01*
X165637637Y-127239659D01*
X165574847Y-127264740D01*
X165507977Y-127288420D01*
X165456295Y-127302979D01*
X165409074Y-127310477D01*
X165355588Y-127312971D01*
X165323452Y-127312988D01*
X165259349Y-127310583D01*
X165198105Y-127305036D01*
X165151350Y-127297460D01*
X165145384Y-127295970D01*
X165086125Y-127279846D01*
X164977739Y-127419317D01*
X164936218Y-127472938D01*
X164901415Y-127518249D01*
X164876775Y-127550738D01*
X164865744Y-127565892D01*
X164865537Y-127566249D01*
X164873613Y-127578716D01*
X164903347Y-127596578D01*
X164949314Y-127617291D01*
X165006091Y-127638310D01*
X165045689Y-127650773D01*
X165199343Y-127681099D01*
X165360767Y-127684507D01*
X165529332Y-127661023D01*
X165662413Y-127625019D01*
X165818920Y-127563204D01*
G36*
X161799295Y-131535829D02*
G01*
X161888197Y-131505412D01*
X161956329Y-131479396D01*
X162006753Y-131455698D01*
X162042530Y-131432239D01*
X162066720Y-131406937D01*
X162082386Y-131377712D01*
X162092587Y-131342481D01*
X162100386Y-131299166D01*
X162101750Y-131290485D01*
X162106638Y-131254051D01*
X162107773Y-131222434D01*
X162104047Y-131189121D01*
X162094358Y-131147599D01*
X162077601Y-131091355D01*
X162057215Y-131027845D01*
X161999445Y-130850047D01*
X162276867Y-130755124D01*
X162554289Y-130660200D01*
X162629344Y-130587139D01*
X162703507Y-130496849D01*
X162756298Y-130393445D01*
X162784706Y-130283263D01*
X162787784Y-130253486D01*
X162793839Y-130166921D01*
X161442061Y-126006578D01*
X161370767Y-125931056D01*
X161279038Y-125851725D01*
X161176638Y-125797960D01*
X161060289Y-125768096D01*
X161047230Y-125766291D01*
X160944259Y-125753106D01*
X160400060Y-125919279D01*
X160333778Y-125730885D01*
X160306880Y-125655409D01*
X160286253Y-125601359D01*
X160269162Y-125563418D01*
X160252867Y-125536265D01*
X160234632Y-125514584D01*
X160211718Y-125493055D01*
X160211046Y-125492460D01*
X160183224Y-125468136D01*
X160158763Y-125449747D01*
X160134146Y-125437604D01*
X160105858Y-125432021D01*
X160070379Y-125433308D01*
X160024194Y-125441779D01*
X159963785Y-125457743D01*
X159885635Y-125481516D01*
X159786226Y-125513408D01*
X159715326Y-125536435D01*
X159357632Y-125652657D01*
X159323408Y-125719826D01*
X159300825Y-125778079D01*
X159291659Y-125841477D01*
X159296157Y-125914949D01*
X159314571Y-126003424D01*
X159342593Y-126097937D01*
X159391949Y-126249836D01*
X158482403Y-126545366D01*
X158416855Y-126362651D01*
X158381619Y-126269818D01*
X158349699Y-126199978D01*
X158317890Y-126148666D01*
X158282986Y-126111414D01*
X158241783Y-126083759D01*
X158204219Y-126066383D01*
X158150889Y-126044751D01*
X157799648Y-126158932D01*
X157684019Y-126196728D01*
X157592321Y-126227745D01*
X157521606Y-126253822D01*
X157468932Y-126276797D01*
X157431351Y-126298506D01*
X157405918Y-126320787D01*
X157389689Y-126345480D01*
X157379719Y-126374419D01*
X157373063Y-126409444D01*
X157370506Y-126426690D01*
X157366923Y-126460855D01*
X157367460Y-126494219D01*
X157373183Y-126533016D01*
X157385159Y-126583480D01*
X157404451Y-126651846D01*
X157415205Y-126688106D01*
X157470793Y-126874058D01*
X156564037Y-127168681D01*
X156498665Y-126990865D01*
X156460369Y-126893637D01*
X156424641Y-126819906D01*
X156388499Y-126765499D01*
X156348960Y-126726241D01*
X156303040Y-126697956D01*
X156283012Y-126689102D01*
X156231763Y-126668313D01*
X155872250Y-126785126D01*
X155757362Y-126822548D01*
X155666344Y-126853039D01*
X155596271Y-126878517D01*
X155544212Y-126900899D01*
X155507238Y-126922100D01*
X155482423Y-126944037D01*
X155466836Y-126968627D01*
X155457549Y-126997785D01*
X155451635Y-127033429D01*
X155447995Y-127062760D01*
X155444869Y-127098179D01*
X155445749Y-127131474D01*
X155451848Y-127169122D01*
X155464381Y-127217603D01*
X155484564Y-127283399D01*
X155496049Y-127319097D01*
X155553696Y-127496960D01*
X154630201Y-127797022D01*
X154563449Y-127607280D01*
X154536461Y-127531525D01*
X154515774Y-127477224D01*
X154498671Y-127439089D01*
X154482435Y-127411830D01*
X154464347Y-127390160D01*
X154441691Y-127368789D01*
X154440247Y-127367506D01*
X154412424Y-127343182D01*
X154387963Y-127324793D01*
X154363346Y-127312651D01*
X154335058Y-127307067D01*
X154299579Y-127308355D01*
X154253394Y-127316825D01*
X154192985Y-127332790D01*
X154114835Y-127356562D01*
X154015427Y-127388454D01*
X153944526Y-127411482D01*
X153586832Y-127527703D01*
X153552609Y-127594872D01*
X153529943Y-127653514D01*
X153520848Y-127717437D01*
X153525569Y-127791563D01*
X153544352Y-127880814D01*
X153571339Y-127971583D01*
X153620239Y-128122082D01*
X153357047Y-128213933D01*
X153263943Y-128246747D01*
X153193131Y-128272712D01*
X153140106Y-128293832D01*
X153100362Y-128312115D01*
X153069395Y-128329562D01*
X153042699Y-128348181D01*
X153026534Y-128361012D01*
X152958259Y-128432275D01*
X152901027Y-128521497D01*
X152860297Y-128618973D01*
X152845025Y-128683647D01*
X152830822Y-128774864D01*
X153429860Y-130618510D01*
X154872634Y-130149725D01*
X154815045Y-129972458D01*
X154765664Y-129819917D01*
X154723983Y-129689983D01*
X154689493Y-129580536D01*
X154661687Y-129489461D01*
X154640059Y-129414638D01*
X154624098Y-129353948D01*
X154613297Y-129305277D01*
X154607149Y-129266502D01*
X154605146Y-129235508D01*
X154606779Y-129210176D01*
X154611541Y-129188388D01*
X154618923Y-129168026D01*
X154628419Y-129146972D01*
X154630910Y-129141680D01*
X154676855Y-129075455D01*
X154740944Y-129026653D01*
X154816639Y-128999010D01*
X154887356Y-128995125D01*
X154948963Y-129011113D01*
X155013484Y-129044360D01*
X155068889Y-129088182D01*
X155083180Y-129103896D01*
X155094737Y-129126019D01*
X155113791Y-129172182D01*
X155139380Y-129239494D01*
X155170547Y-129325068D01*
X155206331Y-129426016D01*
X155245775Y-129539451D01*
X155287918Y-129662484D01*
X155331801Y-129792228D01*
X155376465Y-129925794D01*
X155395002Y-129981840D01*
X155819244Y-129843996D01*
X155784441Y-129731542D01*
X155760157Y-129637806D01*
X155745534Y-129555684D01*
X155739714Y-129478067D01*
X155741837Y-129397849D01*
X155751045Y-129307923D01*
X155752826Y-129294340D01*
X155786789Y-129133934D01*
X155843453Y-128987308D01*
X155898916Y-128890132D01*
X155983372Y-128782248D01*
X156088294Y-128679257D01*
X156205986Y-128587915D01*
X156323098Y-128517832D01*
X156370609Y-128497872D01*
X156438183Y-128474966D01*
X156518109Y-128451175D01*
X156602675Y-128428558D01*
X156684170Y-128409177D01*
X156754882Y-128395092D01*
X156807100Y-128388363D01*
X156807743Y-128388327D01*
X156982642Y-128391539D01*
X157147071Y-128420888D01*
X157300441Y-128476078D01*
X157442169Y-128556811D01*
X157571666Y-128662790D01*
X157688348Y-128793718D01*
X157734760Y-128858093D01*
X157761515Y-128899411D01*
X157783892Y-128939301D01*
X157804498Y-128983794D01*
X157825940Y-129038921D01*
X157850826Y-129110713D01*
X157872575Y-129176828D01*
X157900618Y-129264767D01*
X157920612Y-129332528D01*
X157933989Y-129386514D01*
X157942180Y-129433129D01*
X157946620Y-129478777D01*
X157948325Y-129515531D01*
X157941719Y-129695522D01*
X157910120Y-129862621D01*
X157853967Y-130016180D01*
X157790629Y-130126149D01*
X158394727Y-129929865D01*
X158389344Y-129906896D01*
X158385095Y-129877006D01*
X158381901Y-129837554D01*
X158379689Y-129785899D01*
X158378379Y-129719399D01*
X158377896Y-129635413D01*
X158378162Y-129531299D01*
X158379100Y-129404416D01*
X158380635Y-129252122D01*
X158380749Y-129241690D01*
X158383079Y-129031754D01*
X158385193Y-128848126D01*
X158387139Y-128688897D01*
X158388963Y-128552153D01*
X158390712Y-128435986D01*
X158392434Y-128338482D01*
X158394176Y-128257730D01*
X158395986Y-128191820D01*
X158397909Y-128138839D01*
X158399993Y-128096876D01*
X158402286Y-128064019D01*
X158404835Y-128038358D01*
X158407687Y-128017979D01*
X158410889Y-128000973D01*
X158411424Y-127998495D01*
X158438267Y-127920657D01*
X158480046Y-127853013D01*
X158528121Y-127806770D01*
X158583903Y-127777283D01*
X158651645Y-127754132D01*
X158716673Y-127741960D01*
X158735528Y-127741148D01*
X158803042Y-127751655D01*
X158868723Y-127783290D01*
X158935334Y-127837963D01*
X159005635Y-127917587D01*
X159023090Y-127940259D01*
X159041672Y-127966203D01*
X159073943Y-128012674D01*
X159117904Y-128076741D01*
X159171559Y-128155470D01*
X159232909Y-128245926D01*
X159299958Y-128345177D01*
X159370707Y-128450290D01*
X159391651Y-128481480D01*
X159461426Y-128585258D01*
X159526652Y-128681912D01*
X159585585Y-128768879D01*
X159636477Y-128843601D01*
X159677584Y-128903516D01*
X159707157Y-128946063D01*
X159723451Y-128968683D01*
X159725798Y-128971520D01*
X159728347Y-128960742D01*
X159729950Y-128924461D01*
X159730629Y-128865378D01*
X159730401Y-128786197D01*
X159729287Y-128689622D01*
X159727307Y-128578353D01*
X159724480Y-128455092D01*
X159721195Y-128335013D01*
X159717484Y-128198838D01*
X159714490Y-128068578D01*
X159712250Y-127947523D01*
X159710800Y-127838964D01*
X159710176Y-127746194D01*
X159710414Y-127672500D01*
X159711551Y-127621178D01*
X159713069Y-127598916D01*
X159735414Y-127506701D01*
X159777374Y-127433809D01*
X159840744Y-127378123D01*
X159927315Y-127337526D01*
X159937183Y-127334258D01*
X160023977Y-127319685D01*
X160107826Y-127332783D01*
X160189078Y-127373694D01*
X160268074Y-127442561D01*
X160306427Y-127487009D01*
X160358394Y-127553127D01*
X160420551Y-127633629D01*
X160491130Y-127726115D01*
X160568359Y-127828181D01*
X160650464Y-127937426D01*
X160735675Y-128051447D01*
X160822220Y-128167843D01*
X160908327Y-128284211D01*
X160992226Y-128398149D01*
X161072143Y-128507256D01*
X161146308Y-128609128D01*
X161212951Y-128701365D01*
X161270297Y-128781563D01*
X161316576Y-128847322D01*
X161350017Y-128896238D01*
X161368847Y-128925910D01*
X161371711Y-128931423D01*
X161394658Y-129013504D01*
X161390930Y-129089153D01*
X161361838Y-129155554D01*
X161308695Y-129209893D01*
X161232815Y-129249351D01*
X161221702Y-129253127D01*
X161144877Y-129268776D01*
X161079748Y-129260558D01*
X161021185Y-129227258D01*
X160990580Y-129198525D01*
X160973820Y-129177555D01*
X160942926Y-129135672D01*
X160899612Y-129075312D01*
X160845590Y-128998915D01*
X160782576Y-128908920D01*
X160712281Y-128807765D01*
X160636420Y-128697888D01*
X160556707Y-128581728D01*
X160540230Y-128557631D01*
X160436515Y-128406427D01*
X160348129Y-128278795D01*
X160275011Y-128174653D01*
X160217100Y-128093917D01*
X160174337Y-128036504D01*
X160146660Y-128002330D01*
X160134010Y-127991310D01*
X160133133Y-127992553D01*
X160133195Y-128012314D01*
X160134254Y-128057118D01*
X160136208Y-128123805D01*
X160138954Y-128209217D01*
X160142388Y-128310195D01*
X160146407Y-128423581D01*
X160150910Y-128546215D01*
X160152621Y-128591788D01*
X160159131Y-128766110D01*
X160164433Y-128914622D01*
X160168485Y-129039713D01*
X160171246Y-129143768D01*
X160172676Y-129229179D01*
X160172730Y-129298333D01*
X160171368Y-129353616D01*
X160168547Y-129397419D01*
X160164228Y-129432128D01*
X160158367Y-129460131D01*
X160150923Y-129483819D01*
X160141855Y-129505577D01*
X160136465Y-129516959D01*
X160085754Y-129591959D01*
X160019178Y-129645717D01*
X159940832Y-129676944D01*
X159854813Y-129684347D01*
X159765217Y-129666639D01*
X159720443Y-129648007D01*
X159703454Y-129639327D01*
X159687551Y-129629809D01*
X159671371Y-129617619D01*
X159653547Y-129600926D01*
X159632717Y-129577895D01*
X159607516Y-129546691D01*
X159576581Y-129505482D01*
X159538547Y-129452434D01*
X159492048Y-129385714D01*
X159435723Y-129303488D01*
X159368207Y-129203922D01*
X159288135Y-129085182D01*
X159194144Y-128945437D01*
X159160461Y-128895324D01*
X159089235Y-128789532D01*
X159023013Y-128691529D01*
X158963412Y-128603682D01*
X158912050Y-128528359D01*
X158870543Y-128467929D01*
X158840512Y-128424757D01*
X158823570Y-128401212D01*
X158820352Y-128397503D01*
X158820309Y-128412120D01*
X158821075Y-128452220D01*
X158822580Y-128515083D01*
X158824748Y-128597983D01*
X158827507Y-128698197D01*
X158830782Y-128813002D01*
X158834500Y-128939673D01*
X158838589Y-129075488D01*
X158839115Y-129092758D01*
X158844404Y-129273276D01*
X158848362Y-129427766D01*
X158850926Y-129558395D01*
X158852032Y-129667329D01*
X158851621Y-129756734D01*
X158849630Y-129828776D01*
X158845995Y-129885622D01*
X158840656Y-129929439D01*
X158833550Y-129962390D01*
X158824614Y-129986645D01*
X158813787Y-130004367D01*
X158812917Y-130005469D01*
X158761944Y-130048925D01*
X158694820Y-130078411D01*
X158621677Y-130090234D01*
X158585512Y-130088300D01*
X158507985Y-130066855D01*
X158449416Y-130025303D01*
X158407027Y-129961535D01*
X158401322Y-129948556D01*
X158394727Y-129929865D01*
X157790629Y-130126149D01*
X157773693Y-130155552D01*
X157669736Y-130280090D01*
X157542533Y-130389147D01*
X157392517Y-130482073D01*
X157255085Y-130544877D01*
X157079802Y-130600809D01*
X156906447Y-130629538D01*
X156736400Y-130631093D01*
X156571039Y-130605509D01*
X156411748Y-130552817D01*
X156349710Y-130523991D01*
X156276611Y-130485206D01*
X156220254Y-130449709D01*
X156171089Y-130410522D01*
X156119572Y-130360663D01*
X156103652Y-130344076D01*
X156037090Y-130271338D01*
X155983999Y-130205707D01*
X155940693Y-130140702D01*
X155903485Y-130069842D01*
X155868690Y-129986649D01*
X155832622Y-129884641D01*
X155819244Y-129843996D01*
X155395002Y-129981840D01*
X155420952Y-130060295D01*
X155464301Y-130192843D01*
X155505553Y-130320550D01*
X155543750Y-130440527D01*
X155577932Y-130549887D01*
X155607140Y-130645741D01*
X155630415Y-130725204D01*
X155646797Y-130785386D01*
X155655327Y-130823398D01*
X155656085Y-130828769D01*
X155653382Y-130913781D01*
X155628382Y-130989253D01*
X155585037Y-131052334D01*
X155527301Y-131100174D01*
X155459127Y-131129923D01*
X155384467Y-131138729D01*
X155307275Y-131123742D01*
X155270145Y-131107077D01*
X155224761Y-131076564D01*
X155185480Y-131040183D01*
X155172776Y-131024058D01*
X155160489Y-130998234D01*
X155139999Y-130945512D01*
X155111341Y-130865991D01*
X155074547Y-130759767D01*
X155029652Y-130626938D01*
X154976689Y-130467600D01*
X154915690Y-130281850D01*
X154872634Y-130149725D01*
X153429860Y-130618510D01*
X153934854Y-132172723D01*
X155377849Y-131703866D01*
X155364436Y-131620597D01*
X155376418Y-131542682D01*
X155411011Y-131473810D01*
X155465438Y-131417670D01*
X155536916Y-131377950D01*
X155622667Y-131358339D01*
X155639080Y-131357243D01*
X155713534Y-131366337D01*
X155785966Y-131396441D01*
X155833789Y-131432338D01*
X155865243Y-131476665D01*
X155891076Y-131536746D01*
X155907342Y-131600580D01*
X155910094Y-131656160D01*
X155909283Y-131661985D01*
X155882515Y-131741750D01*
X155834231Y-131807799D01*
X155769236Y-131856529D01*
X155692337Y-131884345D01*
X155608344Y-131887648D01*
X155607847Y-131887589D01*
X155520607Y-131864948D01*
X155450866Y-131820675D01*
X155399971Y-131755844D01*
X155377849Y-131703866D01*
X153934854Y-132172723D01*
X154200042Y-132988889D01*
X154265276Y-133056086D01*
X154357178Y-133131012D01*
X154464285Y-133184120D01*
X154573326Y-133211513D01*
X154604036Y-133215462D01*
X154631215Y-133217111D01*
X154659420Y-133215556D01*
X154693214Y-133209894D01*
X154737157Y-133199222D01*
X154795811Y-133182638D01*
X154873736Y-133159237D01*
X154940735Y-133138764D01*
X155219246Y-133053468D01*
X155284092Y-133235137D01*
X155310849Y-133309078D01*
X155331499Y-133362014D01*
X155349069Y-133399636D01*
X155366585Y-133427642D01*
X155387076Y-133451725D01*
X155412372Y-133476457D01*
X155443696Y-133504920D01*
X155472034Y-133526167D01*
X155501018Y-133539993D01*
X155534282Y-133546190D01*
X155575460Y-133544551D01*
X155628186Y-133534869D01*
X155696093Y-133516937D01*
X155782815Y-133490548D01*
X155891986Y-133455494D01*
X155915762Y-133447773D01*
X156028495Y-133410876D01*
X156117397Y-133380459D01*
X156185529Y-133354443D01*
X156235953Y-133330745D01*
X156271730Y-133307285D01*
X156295920Y-133281984D01*
X156311586Y-133252758D01*
X156321787Y-133217528D01*
X156329586Y-133174213D01*
X156330950Y-133165531D01*
X156335829Y-133129224D01*
X156336981Y-133097714D01*
X156333306Y-133064529D01*
X156323699Y-133023196D01*
X156307059Y-132967240D01*
X156286043Y-132901744D01*
X156227900Y-132722798D01*
X156688698Y-132576979D01*
X157149496Y-132431161D01*
X157219470Y-132623566D01*
X157251588Y-132709414D01*
X157278446Y-132773067D01*
X157303286Y-132819238D01*
X157329353Y-132852642D01*
X157359888Y-132877993D01*
X157398137Y-132900007D01*
X157415511Y-132908546D01*
X157470909Y-132935057D01*
X157816848Y-132826802D01*
X157933266Y-132790156D01*
X158025696Y-132759945D01*
X158097117Y-132734278D01*
X158150508Y-132711259D01*
X158188845Y-132688999D01*
X158215110Y-132665603D01*
X158232278Y-132639179D01*
X158243328Y-132607835D01*
X158251238Y-132569677D01*
X158254776Y-132548505D01*
X158260141Y-132510128D01*
X158261626Y-132476335D01*
X158258301Y-132440486D01*
X158249231Y-132395943D01*
X158233487Y-132336066D01*
X158216669Y-132276857D01*
X158164062Y-132094090D01*
X159070636Y-131799527D01*
X159137388Y-131989269D01*
X159164697Y-132065730D01*
X159185799Y-132120706D01*
X159203357Y-132159500D01*
X159220030Y-132187421D01*
X159238482Y-132209774D01*
X159257144Y-132227983D01*
X159301116Y-132261111D01*
X159349514Y-132286948D01*
X159366850Y-132293173D01*
X159384714Y-132297903D01*
X159401919Y-132300415D01*
X159422016Y-132299825D01*
X159448557Y-132295245D01*
X159485094Y-132285791D01*
X159535179Y-132270576D01*
X159602360Y-132248716D01*
X159690194Y-132219323D01*
X159767337Y-132193297D01*
X159879541Y-132155273D01*
X159968046Y-132124337D01*
X160035872Y-132098492D01*
X160086039Y-132075740D01*
X160121568Y-132054085D01*
X160145478Y-132031529D01*
X160160791Y-132006076D01*
X160170528Y-131975728D01*
X160177707Y-131938489D01*
X160180744Y-131919961D01*
X160185052Y-131886230D01*
X160185362Y-131854205D01*
X160180655Y-131817674D01*
X160169913Y-131770424D01*
X160152119Y-131706242D01*
X160137710Y-131657277D01*
X160082261Y-131470830D01*
X160989233Y-131176137D01*
X161054485Y-131358948D01*
X161081320Y-131433125D01*
X161102016Y-131486267D01*
X161119581Y-131524039D01*
X161137022Y-131552103D01*
X161157344Y-131576125D01*
X161183172Y-131601411D01*
X161214496Y-131629873D01*
X161242834Y-131651120D01*
X161271817Y-131664947D01*
X161305082Y-131671143D01*
X161346260Y-131669504D01*
X161398986Y-131659822D01*
X161466892Y-131641891D01*
X161553615Y-131615501D01*
X161662786Y-131580448D01*
X161686562Y-131572727D01*
X161799295Y-131535829D01*
G37*
X161799295Y-131535829D02*
X161888197Y-131505412D01*
X161956329Y-131479396D01*
X162006753Y-131455698D01*
X162042530Y-131432239D01*
X162066720Y-131406937D01*
X162082386Y-131377712D01*
X162092587Y-131342481D01*
X162100386Y-131299166D01*
X162101750Y-131290485D01*
X162106638Y-131254051D01*
X162107773Y-131222434D01*
X162104047Y-131189121D01*
X162094358Y-131147599D01*
X162077601Y-131091355D01*
X162057215Y-131027845D01*
X161999445Y-130850047D01*
X162276867Y-130755124D01*
X162554289Y-130660200D01*
X162629344Y-130587139D01*
X162703507Y-130496849D01*
X162756298Y-130393445D01*
X162784706Y-130283263D01*
X162787784Y-130253486D01*
X162793839Y-130166921D01*
X161442061Y-126006578D01*
X161370767Y-125931056D01*
X161279038Y-125851725D01*
X161176638Y-125797960D01*
X161060289Y-125768096D01*
X161047230Y-125766291D01*
X160944259Y-125753106D01*
X160400060Y-125919279D01*
X160333778Y-125730885D01*
X160306880Y-125655409D01*
X160286253Y-125601359D01*
X160269162Y-125563418D01*
X160252867Y-125536265D01*
X160234632Y-125514584D01*
X160211718Y-125493055D01*
X160211046Y-125492460D01*
X160183224Y-125468136D01*
X160158763Y-125449747D01*
X160134146Y-125437604D01*
X160105858Y-125432021D01*
X160070379Y-125433308D01*
X160024194Y-125441779D01*
X159963785Y-125457743D01*
X159885635Y-125481516D01*
X159786226Y-125513408D01*
X159715326Y-125536435D01*
X159357632Y-125652657D01*
X159323408Y-125719826D01*
X159300825Y-125778079D01*
X159291659Y-125841477D01*
X159296157Y-125914949D01*
X159314571Y-126003424D01*
X159342593Y-126097937D01*
X159391949Y-126249836D01*
X158482403Y-126545366D01*
X158416855Y-126362651D01*
X158381619Y-126269818D01*
X158349699Y-126199978D01*
X158317890Y-126148666D01*
X158282986Y-126111414D01*
X158241783Y-126083759D01*
X158204219Y-126066383D01*
X158150889Y-126044751D01*
X157799648Y-126158932D01*
X157684019Y-126196728D01*
X157592321Y-126227745D01*
X157521606Y-126253822D01*
X157468932Y-126276797D01*
X157431351Y-126298506D01*
X157405918Y-126320787D01*
X157389689Y-126345480D01*
X157379719Y-126374419D01*
X157373063Y-126409444D01*
X157370506Y-126426690D01*
X157366923Y-126460855D01*
X157367460Y-126494219D01*
X157373183Y-126533016D01*
X157385159Y-126583480D01*
X157404451Y-126651846D01*
X157415205Y-126688106D01*
X157470793Y-126874058D01*
X156564037Y-127168681D01*
X156498665Y-126990865D01*
X156460369Y-126893637D01*
X156424641Y-126819906D01*
X156388499Y-126765499D01*
X156348960Y-126726241D01*
X156303040Y-126697956D01*
X156283012Y-126689102D01*
X156231763Y-126668313D01*
X155872250Y-126785126D01*
X155757362Y-126822548D01*
X155666344Y-126853039D01*
X155596271Y-126878517D01*
X155544212Y-126900899D01*
X155507238Y-126922100D01*
X155482423Y-126944037D01*
X155466836Y-126968627D01*
X155457549Y-126997785D01*
X155451635Y-127033429D01*
X155447995Y-127062760D01*
X155444869Y-127098179D01*
X155445749Y-127131474D01*
X155451848Y-127169122D01*
X155464381Y-127217603D01*
X155484564Y-127283399D01*
X155496049Y-127319097D01*
X155553696Y-127496960D01*
X154630201Y-127797022D01*
X154563449Y-127607280D01*
X154536461Y-127531525D01*
X154515774Y-127477224D01*
X154498671Y-127439089D01*
X154482435Y-127411830D01*
X154464347Y-127390160D01*
X154441691Y-127368789D01*
X154440247Y-127367506D01*
X154412424Y-127343182D01*
X154387963Y-127324793D01*
X154363346Y-127312651D01*
X154335058Y-127307067D01*
X154299579Y-127308355D01*
X154253394Y-127316825D01*
X154192985Y-127332790D01*
X154114835Y-127356562D01*
X154015427Y-127388454D01*
X153944526Y-127411482D01*
X153586832Y-127527703D01*
X153552609Y-127594872D01*
X153529943Y-127653514D01*
X153520848Y-127717437D01*
X153525569Y-127791563D01*
X153544352Y-127880814D01*
X153571339Y-127971583D01*
X153620239Y-128122082D01*
X153357047Y-128213933D01*
X153263943Y-128246747D01*
X153193131Y-128272712D01*
X153140106Y-128293832D01*
X153100362Y-128312115D01*
X153069395Y-128329562D01*
X153042699Y-128348181D01*
X153026534Y-128361012D01*
X152958259Y-128432275D01*
X152901027Y-128521497D01*
X152860297Y-128618973D01*
X152845025Y-128683647D01*
X152830822Y-128774864D01*
X153429860Y-130618510D01*
X154872634Y-130149725D01*
X154815045Y-129972458D01*
X154765664Y-129819917D01*
X154723983Y-129689983D01*
X154689493Y-129580536D01*
X154661687Y-129489461D01*
X154640059Y-129414638D01*
X154624098Y-129353948D01*
X154613297Y-129305277D01*
X154607149Y-129266502D01*
X154605146Y-129235508D01*
X154606779Y-129210176D01*
X154611541Y-129188388D01*
X154618923Y-129168026D01*
X154628419Y-129146972D01*
X154630910Y-129141680D01*
X154676855Y-129075455D01*
X154740944Y-129026653D01*
X154816639Y-128999010D01*
X154887356Y-128995125D01*
X154948963Y-129011113D01*
X155013484Y-129044360D01*
X155068889Y-129088182D01*
X155083180Y-129103896D01*
X155094737Y-129126019D01*
X155113791Y-129172182D01*
X155139380Y-129239494D01*
X155170547Y-129325068D01*
X155206331Y-129426016D01*
X155245775Y-129539451D01*
X155287918Y-129662484D01*
X155331801Y-129792228D01*
X155376465Y-129925794D01*
X155395002Y-129981840D01*
X155819244Y-129843996D01*
X155784441Y-129731542D01*
X155760157Y-129637806D01*
X155745534Y-129555684D01*
X155739714Y-129478067D01*
X155741837Y-129397849D01*
X155751045Y-129307923D01*
X155752826Y-129294340D01*
X155786789Y-129133934D01*
X155843453Y-128987308D01*
X155898916Y-128890132D01*
X155983372Y-128782248D01*
X156088294Y-128679257D01*
X156205986Y-128587915D01*
X156323098Y-128517832D01*
X156370609Y-128497872D01*
X156438183Y-128474966D01*
X156518109Y-128451175D01*
X156602675Y-128428558D01*
X156684170Y-128409177D01*
X156754882Y-128395092D01*
X156807100Y-128388363D01*
X156807743Y-128388327D01*
X156982642Y-128391539D01*
X157147071Y-128420888D01*
X157300441Y-128476078D01*
X157442169Y-128556811D01*
X157571666Y-128662790D01*
X157688348Y-128793718D01*
X157734760Y-128858093D01*
X157761515Y-128899411D01*
X157783892Y-128939301D01*
X157804498Y-128983794D01*
X157825940Y-129038921D01*
X157850826Y-129110713D01*
X157872575Y-129176828D01*
X157900618Y-129264767D01*
X157920612Y-129332528D01*
X157933989Y-129386514D01*
X157942180Y-129433129D01*
X157946620Y-129478777D01*
X157948325Y-129515531D01*
X157941719Y-129695522D01*
X157910120Y-129862621D01*
X157853967Y-130016180D01*
X157790629Y-130126149D01*
X158394727Y-129929865D01*
X158389344Y-129906896D01*
X158385095Y-129877006D01*
X158381901Y-129837554D01*
X158379689Y-129785899D01*
X158378379Y-129719399D01*
X158377896Y-129635413D01*
X158378162Y-129531299D01*
X158379100Y-129404416D01*
X158380635Y-129252122D01*
X158380749Y-129241690D01*
X158383079Y-129031754D01*
X158385193Y-128848126D01*
X158387139Y-128688897D01*
X158388963Y-128552153D01*
X158390712Y-128435986D01*
X158392434Y-128338482D01*
X158394176Y-128257730D01*
X158395986Y-128191820D01*
X158397909Y-128138839D01*
X158399993Y-128096876D01*
X158402286Y-128064019D01*
X158404835Y-128038358D01*
X158407687Y-128017979D01*
X158410889Y-128000973D01*
X158411424Y-127998495D01*
X158438267Y-127920657D01*
X158480046Y-127853013D01*
X158528121Y-127806770D01*
X158583903Y-127777283D01*
X158651645Y-127754132D01*
X158716673Y-127741960D01*
X158735528Y-127741148D01*
X158803042Y-127751655D01*
X158868723Y-127783290D01*
X158935334Y-127837963D01*
X159005635Y-127917587D01*
X159023090Y-127940259D01*
X159041672Y-127966203D01*
X159073943Y-128012674D01*
X159117904Y-128076741D01*
X159171559Y-128155470D01*
X159232909Y-128245926D01*
X159299958Y-128345177D01*
X159370707Y-128450290D01*
X159391651Y-128481480D01*
X159461426Y-128585258D01*
X159526652Y-128681912D01*
X159585585Y-128768879D01*
X159636477Y-128843601D01*
X159677584Y-128903516D01*
X159707157Y-128946063D01*
X159723451Y-128968683D01*
X159725798Y-128971520D01*
X159728347Y-128960742D01*
X159729950Y-128924461D01*
X159730629Y-128865378D01*
X159730401Y-128786197D01*
X159729287Y-128689622D01*
X159727307Y-128578353D01*
X159724480Y-128455092D01*
X159721195Y-128335013D01*
X159717484Y-128198838D01*
X159714490Y-128068578D01*
X159712250Y-127947523D01*
X159710800Y-127838964D01*
X159710176Y-127746194D01*
X159710414Y-127672500D01*
X159711551Y-127621178D01*
X159713069Y-127598916D01*
X159735414Y-127506701D01*
X159777374Y-127433809D01*
X159840744Y-127378123D01*
X159927315Y-127337526D01*
X159937183Y-127334258D01*
X160023977Y-127319685D01*
X160107826Y-127332783D01*
X160189078Y-127373694D01*
X160268074Y-127442561D01*
X160306427Y-127487009D01*
X160358394Y-127553127D01*
X160420551Y-127633629D01*
X160491130Y-127726115D01*
X160568359Y-127828181D01*
X160650464Y-127937426D01*
X160735675Y-128051447D01*
X160822220Y-128167843D01*
X160908327Y-128284211D01*
X160992226Y-128398149D01*
X161072143Y-128507256D01*
X161146308Y-128609128D01*
X161212951Y-128701365D01*
X161270297Y-128781563D01*
X161316576Y-128847322D01*
X161350017Y-128896238D01*
X161368847Y-128925910D01*
X161371711Y-128931423D01*
X161394658Y-129013504D01*
X161390930Y-129089153D01*
X161361838Y-129155554D01*
X161308695Y-129209893D01*
X161232815Y-129249351D01*
X161221702Y-129253127D01*
X161144877Y-129268776D01*
X161079748Y-129260558D01*
X161021185Y-129227258D01*
X160990580Y-129198525D01*
X160973820Y-129177555D01*
X160942926Y-129135672D01*
X160899612Y-129075312D01*
X160845590Y-128998915D01*
X160782576Y-128908920D01*
X160712281Y-128807765D01*
X160636420Y-128697888D01*
X160556707Y-128581728D01*
X160540230Y-128557631D01*
X160436515Y-128406427D01*
X160348129Y-128278795D01*
X160275011Y-128174653D01*
X160217100Y-128093917D01*
X160174337Y-128036504D01*
X160146660Y-128002330D01*
X160134010Y-127991310D01*
X160133133Y-127992553D01*
X160133195Y-128012314D01*
X160134254Y-128057118D01*
X160136208Y-128123805D01*
X160138954Y-128209217D01*
X160142388Y-128310195D01*
X160146407Y-128423581D01*
X160150910Y-128546215D01*
X160152621Y-128591788D01*
X160159131Y-128766110D01*
X160164433Y-128914622D01*
X160168485Y-129039713D01*
X160171246Y-129143768D01*
X160172676Y-129229179D01*
X160172730Y-129298333D01*
X160171368Y-129353616D01*
X160168547Y-129397419D01*
X160164228Y-129432128D01*
X160158367Y-129460131D01*
X160150923Y-129483819D01*
X160141855Y-129505577D01*
X160136465Y-129516959D01*
X160085754Y-129591959D01*
X160019178Y-129645717D01*
X159940832Y-129676944D01*
X159854813Y-129684347D01*
X159765217Y-129666639D01*
X159720443Y-129648007D01*
X159703454Y-129639327D01*
X159687551Y-129629809D01*
X159671371Y-129617619D01*
X159653547Y-129600926D01*
X159632717Y-129577895D01*
X159607516Y-129546691D01*
X159576581Y-129505482D01*
X159538547Y-129452434D01*
X159492048Y-129385714D01*
X159435723Y-129303488D01*
X159368207Y-129203922D01*
X159288135Y-129085182D01*
X159194144Y-128945437D01*
X159160461Y-128895324D01*
X159089235Y-128789532D01*
X159023013Y-128691529D01*
X158963412Y-128603682D01*
X158912050Y-128528359D01*
X158870543Y-128467929D01*
X158840512Y-128424757D01*
X158823570Y-128401212D01*
X158820352Y-128397503D01*
X158820309Y-128412120D01*
X158821075Y-128452220D01*
X158822580Y-128515083D01*
X158824748Y-128597983D01*
X158827507Y-128698197D01*
X158830782Y-128813002D01*
X158834500Y-128939673D01*
X158838589Y-129075488D01*
X158839115Y-129092758D01*
X158844404Y-129273276D01*
X158848362Y-129427766D01*
X158850926Y-129558395D01*
X158852032Y-129667329D01*
X158851621Y-129756734D01*
X158849630Y-129828776D01*
X158845995Y-129885622D01*
X158840656Y-129929439D01*
X158833550Y-129962390D01*
X158824614Y-129986645D01*
X158813787Y-130004367D01*
X158812917Y-130005469D01*
X158761944Y-130048925D01*
X158694820Y-130078411D01*
X158621677Y-130090234D01*
X158585512Y-130088300D01*
X158507985Y-130066855D01*
X158449416Y-130025303D01*
X158407027Y-129961535D01*
X158401322Y-129948556D01*
X158394727Y-129929865D01*
X157790629Y-130126149D01*
X157773693Y-130155552D01*
X157669736Y-130280090D01*
X157542533Y-130389147D01*
X157392517Y-130482073D01*
X157255085Y-130544877D01*
X157079802Y-130600809D01*
X156906447Y-130629538D01*
X156736400Y-130631093D01*
X156571039Y-130605509D01*
X156411748Y-130552817D01*
X156349710Y-130523991D01*
X156276611Y-130485206D01*
X156220254Y-130449709D01*
X156171089Y-130410522D01*
X156119572Y-130360663D01*
X156103652Y-130344076D01*
X156037090Y-130271338D01*
X155983999Y-130205707D01*
X155940693Y-130140702D01*
X155903485Y-130069842D01*
X155868690Y-129986649D01*
X155832622Y-129884641D01*
X155819244Y-129843996D01*
X155395002Y-129981840D01*
X155420952Y-130060295D01*
X155464301Y-130192843D01*
X155505553Y-130320550D01*
X155543750Y-130440527D01*
X155577932Y-130549887D01*
X155607140Y-130645741D01*
X155630415Y-130725204D01*
X155646797Y-130785386D01*
X155655327Y-130823398D01*
X155656085Y-130828769D01*
X155653382Y-130913781D01*
X155628382Y-130989253D01*
X155585037Y-131052334D01*
X155527301Y-131100174D01*
X155459127Y-131129923D01*
X155384467Y-131138729D01*
X155307275Y-131123742D01*
X155270145Y-131107077D01*
X155224761Y-131076564D01*
X155185480Y-131040183D01*
X155172776Y-131024058D01*
X155160489Y-130998234D01*
X155139999Y-130945512D01*
X155111341Y-130865991D01*
X155074547Y-130759767D01*
X155029652Y-130626938D01*
X154976689Y-130467600D01*
X154915690Y-130281850D01*
X154872634Y-130149725D01*
X153429860Y-130618510D01*
X153934854Y-132172723D01*
X155377849Y-131703866D01*
X155364436Y-131620597D01*
X155376418Y-131542682D01*
X155411011Y-131473810D01*
X155465438Y-131417670D01*
X155536916Y-131377950D01*
X155622667Y-131358339D01*
X155639080Y-131357243D01*
X155713534Y-131366337D01*
X155785966Y-131396441D01*
X155833789Y-131432338D01*
X155865243Y-131476665D01*
X155891076Y-131536746D01*
X155907342Y-131600580D01*
X155910094Y-131656160D01*
X155909283Y-131661985D01*
X155882515Y-131741750D01*
X155834231Y-131807799D01*
X155769236Y-131856529D01*
X155692337Y-131884345D01*
X155608344Y-131887648D01*
X155607847Y-131887589D01*
X155520607Y-131864948D01*
X155450866Y-131820675D01*
X155399971Y-131755844D01*
X155377849Y-131703866D01*
X153934854Y-132172723D01*
X154200042Y-132988889D01*
X154265276Y-133056086D01*
X154357178Y-133131012D01*
X154464285Y-133184120D01*
X154573326Y-133211513D01*
X154604036Y-133215462D01*
X154631215Y-133217111D01*
X154659420Y-133215556D01*
X154693214Y-133209894D01*
X154737157Y-133199222D01*
X154795811Y-133182638D01*
X154873736Y-133159237D01*
X154940735Y-133138764D01*
X155219246Y-133053468D01*
X155284092Y-133235137D01*
X155310849Y-133309078D01*
X155331499Y-133362014D01*
X155349069Y-133399636D01*
X155366585Y-133427642D01*
X155387076Y-133451725D01*
X155412372Y-133476457D01*
X155443696Y-133504920D01*
X155472034Y-133526167D01*
X155501018Y-133539993D01*
X155534282Y-133546190D01*
X155575460Y-133544551D01*
X155628186Y-133534869D01*
X155696093Y-133516937D01*
X155782815Y-133490548D01*
X155891986Y-133455494D01*
X155915762Y-133447773D01*
X156028495Y-133410876D01*
X156117397Y-133380459D01*
X156185529Y-133354443D01*
X156235953Y-133330745D01*
X156271730Y-133307285D01*
X156295920Y-133281984D01*
X156311586Y-133252758D01*
X156321787Y-133217528D01*
X156329586Y-133174213D01*
X156330950Y-133165531D01*
X156335829Y-133129224D01*
X156336981Y-133097714D01*
X156333306Y-133064529D01*
X156323699Y-133023196D01*
X156307059Y-132967240D01*
X156286043Y-132901744D01*
X156227900Y-132722798D01*
X156688698Y-132576979D01*
X157149496Y-132431161D01*
X157219470Y-132623566D01*
X157251588Y-132709414D01*
X157278446Y-132773067D01*
X157303286Y-132819238D01*
X157329353Y-132852642D01*
X157359888Y-132877993D01*
X157398137Y-132900007D01*
X157415511Y-132908546D01*
X157470909Y-132935057D01*
X157816848Y-132826802D01*
X157933266Y-132790156D01*
X158025696Y-132759945D01*
X158097117Y-132734278D01*
X158150508Y-132711259D01*
X158188845Y-132688999D01*
X158215110Y-132665603D01*
X158232278Y-132639179D01*
X158243328Y-132607835D01*
X158251238Y-132569677D01*
X158254776Y-132548505D01*
X158260141Y-132510128D01*
X158261626Y-132476335D01*
X158258301Y-132440486D01*
X158249231Y-132395943D01*
X158233487Y-132336066D01*
X158216669Y-132276857D01*
X158164062Y-132094090D01*
X159070636Y-131799527D01*
X159137388Y-131989269D01*
X159164697Y-132065730D01*
X159185799Y-132120706D01*
X159203357Y-132159500D01*
X159220030Y-132187421D01*
X159238482Y-132209774D01*
X159257144Y-132227983D01*
X159301116Y-132261111D01*
X159349514Y-132286948D01*
X159366850Y-132293173D01*
X159384714Y-132297903D01*
X159401919Y-132300415D01*
X159422016Y-132299825D01*
X159448557Y-132295245D01*
X159485094Y-132285791D01*
X159535179Y-132270576D01*
X159602360Y-132248716D01*
X159690194Y-132219323D01*
X159767337Y-132193297D01*
X159879541Y-132155273D01*
X159968046Y-132124337D01*
X160035872Y-132098492D01*
X160086039Y-132075740D01*
X160121568Y-132054085D01*
X160145478Y-132031529D01*
X160160791Y-132006076D01*
X160170528Y-131975728D01*
X160177707Y-131938489D01*
X160180744Y-131919961D01*
X160185052Y-131886230D01*
X160185362Y-131854205D01*
X160180655Y-131817674D01*
X160169913Y-131770424D01*
X160152119Y-131706242D01*
X160137710Y-131657277D01*
X160082261Y-131470830D01*
X160989233Y-131176137D01*
X161054485Y-131358948D01*
X161081320Y-131433125D01*
X161102016Y-131486267D01*
X161119581Y-131524039D01*
X161137022Y-131552103D01*
X161157344Y-131576125D01*
X161183172Y-131601411D01*
X161214496Y-131629873D01*
X161242834Y-131651120D01*
X161271817Y-131664947D01*
X161305082Y-131671143D01*
X161346260Y-131669504D01*
X161398986Y-131659822D01*
X161466892Y-131641891D01*
X161553615Y-131615501D01*
X161662786Y-131580448D01*
X161686562Y-131572727D01*
X161799295Y-131535829D01*
D12*
X179662742Y-104177500D02*
X180137258Y-104177500D01*
X179662742Y-105222500D02*
X180137258Y-105222500D01*
X120437258Y-95722500D02*
X119962742Y-95722500D01*
X120437258Y-94677500D02*
X119962742Y-94677500D01*
D13*
X180066666Y-106582380D02*
X180400000Y-106106190D01*
X180638095Y-106582380D02*
X180638095Y-105582380D01*
X180257142Y-105582380D01*
X180161904Y-105630000D01*
X180114285Y-105677619D01*
X180066666Y-105772857D01*
X180066666Y-105915714D01*
X180114285Y-106010952D01*
X180161904Y-106058571D01*
X180257142Y-106106190D01*
X180638095Y-106106190D01*
X179209523Y-105582380D02*
X179400000Y-105582380D01*
X179495238Y-105630000D01*
X179542857Y-105677619D01*
X179638095Y-105820476D01*
X179685714Y-106010952D01*
X179685714Y-106391904D01*
X179638095Y-106487142D01*
X179590476Y-106534761D01*
X179495238Y-106582380D01*
X179304761Y-106582380D01*
X179209523Y-106534761D01*
X179161904Y-106487142D01*
X179114285Y-106391904D01*
X179114285Y-106153809D01*
X179161904Y-106058571D01*
X179209523Y-106010952D01*
X179304761Y-105963333D01*
X179495238Y-105963333D01*
X179590476Y-106010952D01*
X179638095Y-106058571D01*
X179685714Y-106153809D01*
X120366666Y-94222380D02*
X120700000Y-93746190D01*
X120938095Y-94222380D02*
X120938095Y-93222380D01*
X120557142Y-93222380D01*
X120461904Y-93270000D01*
X120414285Y-93317619D01*
X120366666Y-93412857D01*
X120366666Y-93555714D01*
X120414285Y-93650952D01*
X120461904Y-93698571D01*
X120557142Y-93746190D01*
X120938095Y-93746190D01*
X119461904Y-93222380D02*
X119938095Y-93222380D01*
X119985714Y-93698571D01*
X119938095Y-93650952D01*
X119842857Y-93603333D01*
X119604761Y-93603333D01*
X119509523Y-93650952D01*
X119461904Y-93698571D01*
X119414285Y-93793809D01*
X119414285Y-94031904D01*
X119461904Y-94127142D01*
X119509523Y-94174761D01*
X119604761Y-94222380D01*
X119842857Y-94222380D01*
X119938095Y-94174761D01*
X119985714Y-94127142D01*
%LPC*%
D14*
X125480000Y-93850000D03*
X125480000Y-96390000D03*
G36*
G01*
X180125000Y-105075000D02*
X180125000Y-104325000D01*
G75*
G02*
X180425000Y-104025000I300000J0D01*
G01*
X181025000Y-104025000D01*
G75*
G02*
X181325000Y-104325000I0J-300000D01*
G01*
X181325000Y-105075000D01*
G75*
G02*
X181025000Y-105375000I-300000J0D01*
G01*
X180425000Y-105375000D01*
G75*
G02*
X180125000Y-105075000I0J300000D01*
G01*
G37*
G36*
G01*
X178475000Y-105075000D02*
X178475000Y-104325000D01*
G75*
G02*
X178775000Y-104025000I300000J0D01*
G01*
X179375000Y-104025000D01*
G75*
G02*
X179675000Y-104325000I0J-300000D01*
G01*
X179675000Y-105075000D01*
G75*
G02*
X179375000Y-105375000I-300000J0D01*
G01*
X178775000Y-105375000D01*
G75*
G02*
X178475000Y-105075000I0J300000D01*
G01*
G37*
G36*
G01*
X119975000Y-94825000D02*
X119975000Y-95575000D01*
G75*
G02*
X119675000Y-95875000I-300000J0D01*
G01*
X119075000Y-95875000D01*
G75*
G02*
X118775000Y-95575000I0J300000D01*
G01*
X118775000Y-94825000D01*
G75*
G02*
X119075000Y-94525000I300000J0D01*
G01*
X119675000Y-94525000D01*
G75*
G02*
X119975000Y-94825000I0J-300000D01*
G01*
G37*
G36*
G01*
X121625000Y-94825000D02*
X121625000Y-95575000D01*
G75*
G02*
X121325000Y-95875000I-300000J0D01*
G01*
X120725000Y-95875000D01*
G75*
G02*
X120425000Y-95575000I0J300000D01*
G01*
X120425000Y-94825000D01*
G75*
G02*
X120725000Y-94525000I300000J0D01*
G01*
X121325000Y-94525000D01*
G75*
G02*
X121625000Y-94825000I0J-300000D01*
G01*
G37*
D15*
X161567115Y-69971727D03*
X163832885Y-71028273D03*
X136167115Y-71028273D03*
X138432885Y-69971727D03*
D14*
X180000000Y-98730000D03*
X180000000Y-101270000D03*
G36*
G01*
X171337278Y-78422304D02*
X170842304Y-78917278D01*
G75*
G02*
X169286670Y-78917278I-777817J777817D01*
G01*
X169286670Y-78917278D01*
G75*
G02*
X169286670Y-77361644I777817J777817D01*
G01*
X169781644Y-76866670D01*
G75*
G02*
X171337278Y-76866670I777817J-777817D01*
G01*
X171337278Y-76866670D01*
G75*
G02*
X171337278Y-78422304I-777817J-777817D01*
G01*
G37*
G36*
G01*
X173133330Y-80218356D02*
X172638356Y-80713330D01*
G75*
G02*
X171082722Y-80713330I-777817J777817D01*
G01*
X171082722Y-80713330D01*
G75*
G02*
X171082722Y-79157696I777817J777817D01*
G01*
X171577696Y-78662722D01*
G75*
G02*
X173133330Y-78662722I777817J-777817D01*
G01*
X173133330Y-78662722D01*
G75*
G02*
X173133330Y-80218356I-777817J-777817D01*
G01*
G37*
D16*
X148730000Y-70000000D03*
X151270000Y-70000000D03*
G36*
G01*
X128422304Y-78662722D02*
X128917278Y-79157696D01*
G75*
G02*
X128917278Y-80713330I-777817J-777817D01*
G01*
X128917278Y-80713330D01*
G75*
G02*
X127361644Y-80713330I-777817J777817D01*
G01*
X126866670Y-80218356D01*
G75*
G02*
X126866670Y-78662722I777817J777817D01*
G01*
X126866670Y-78662722D01*
G75*
G02*
X128422304Y-78662722I777817J-777817D01*
G01*
G37*
G36*
G01*
X130218356Y-76866670D02*
X130713330Y-77361644D01*
G75*
G02*
X130713330Y-78917278I-777817J-777817D01*
G01*
X130713330Y-78917278D01*
G75*
G02*
X129157696Y-78917278I-777817J777817D01*
G01*
X128662722Y-78422304D01*
G75*
G02*
X128662722Y-76866670I777817J777817D01*
G01*
X128662722Y-76866670D01*
G75*
G02*
X130218356Y-76866670I777817J-777817D01*
G01*
G37*
D14*
X120000000Y-101270000D03*
X120000000Y-98730000D03*
G36*
G01*
X128662722Y-121577696D02*
X129157696Y-121082722D01*
G75*
G02*
X130713330Y-121082722I777817J-777817D01*
G01*
X130713330Y-121082722D01*
G75*
G02*
X130713330Y-122638356I-777817J-777817D01*
G01*
X130218356Y-123133330D01*
G75*
G02*
X128662722Y-123133330I-777817J777817D01*
G01*
X128662722Y-123133330D01*
G75*
G02*
X128662722Y-121577696I777817J777817D01*
G01*
G37*
G36*
G01*
X126866670Y-119781644D02*
X127361644Y-119286670D01*
G75*
G02*
X128917278Y-119286670I777817J-777817D01*
G01*
X128917278Y-119286670D01*
G75*
G02*
X128917278Y-120842304I-777817J-777817D01*
G01*
X128422304Y-121337278D01*
G75*
G02*
X126866670Y-121337278I-777817J777817D01*
G01*
X126866670Y-121337278D01*
G75*
G02*
X126866670Y-119781644I777817J777817D01*
G01*
G37*
D16*
X151270000Y-130000000D03*
X148730000Y-130000000D03*
G36*
G01*
X171577696Y-121337278D02*
X171082722Y-120842304D01*
G75*
G02*
X171082722Y-119286670I777817J777817D01*
G01*
X171082722Y-119286670D01*
G75*
G02*
X172638356Y-119286670I777817J-777817D01*
G01*
X173133330Y-119781644D01*
G75*
G02*
X173133330Y-121337278I-777817J-777817D01*
G01*
X173133330Y-121337278D01*
G75*
G02*
X171577696Y-121337278I-777817J777817D01*
G01*
G37*
G36*
G01*
X169781644Y-123133330D02*
X169286670Y-122638356D01*
G75*
G02*
X169286670Y-121082722I777817J777817D01*
G01*
X169286670Y-121082722D01*
G75*
G02*
X170842304Y-121082722I777817J-777817D01*
G01*
X171337278Y-121577696D01*
G75*
G02*
X171337278Y-123133330I-777817J-777817D01*
G01*
X171337278Y-123133330D01*
G75*
G02*
X169781644Y-123133330I-777817J777817D01*
G01*
G37*
D14*
X174520000Y-105990000D03*
X174520000Y-103450000D03*
G36*
G01*
X170401891Y-113862224D02*
X171008109Y-114212224D01*
G75*
G02*
X171410737Y-115714852I-550000J-952628D01*
G01*
X171410737Y-115714852D01*
G75*
G02*
X169908109Y-116117480I-952628J550000D01*
G01*
X169301891Y-115767480D01*
G75*
G02*
X168899263Y-114264852I550000J952628D01*
G01*
X168899263Y-114264852D01*
G75*
G02*
X170401891Y-113862224I952628J-550000D01*
G01*
G37*
G36*
G01*
X171671891Y-111662520D02*
X172278109Y-112012520D01*
G75*
G02*
X172680737Y-113515148I-550000J-952628D01*
G01*
X172680737Y-113515148D01*
G75*
G02*
X171178109Y-113917776I-952628J550000D01*
G01*
X170571891Y-113567776D01*
G75*
G02*
X170169263Y-112065148I550000J952628D01*
G01*
X170169263Y-112065148D01*
G75*
G02*
X171671891Y-111662520I952628J-550000D01*
G01*
G37*
G36*
G01*
X163567776Y-120571891D02*
X163917776Y-121178109D01*
G75*
G02*
X163515148Y-122680737I-952628J-550000D01*
G01*
X163515148Y-122680737D01*
G75*
G02*
X162012520Y-122278109I-550000J952628D01*
G01*
X161662520Y-121671891D01*
G75*
G02*
X162065148Y-120169263I952628J550000D01*
G01*
X162065148Y-120169263D01*
G75*
G02*
X163567776Y-120571891I550000J-952628D01*
G01*
G37*
G36*
G01*
X165767480Y-119301891D02*
X166117480Y-119908109D01*
G75*
G02*
X165714852Y-121410737I-952628J-550000D01*
G01*
X165714852Y-121410737D01*
G75*
G02*
X164212224Y-121008109I-550000J952628D01*
G01*
X163862224Y-120401891D01*
G75*
G02*
X164264852Y-118899263I952628J550000D01*
G01*
X164264852Y-118899263D01*
G75*
G02*
X165767480Y-119301891I550000J-952628D01*
G01*
G37*
D16*
X153610000Y-124520000D03*
X156150000Y-124520000D03*
X143850000Y-124520000D03*
X146390000Y-124520000D03*
G36*
G01*
X136137776Y-120401891D02*
X135787776Y-121008109D01*
G75*
G02*
X134285148Y-121410737I-952628J550000D01*
G01*
X134285148Y-121410737D01*
G75*
G02*
X133882520Y-119908109I550000J952628D01*
G01*
X134232520Y-119301891D01*
G75*
G02*
X135735148Y-118899263I952628J-550000D01*
G01*
X135735148Y-118899263D01*
G75*
G02*
X136137776Y-120401891I-550000J-952628D01*
G01*
G37*
G36*
G01*
X138337480Y-121671891D02*
X137987480Y-122278109D01*
G75*
G02*
X136484852Y-122680737I-952628J550000D01*
G01*
X136484852Y-122680737D01*
G75*
G02*
X136082224Y-121178109I550000J952628D01*
G01*
X136432224Y-120571891D01*
G75*
G02*
X137934852Y-120169263I952628J-550000D01*
G01*
X137934852Y-120169263D01*
G75*
G02*
X138337480Y-121671891I-550000J-952628D01*
G01*
G37*
G36*
G01*
X129428109Y-113567776D02*
X128821891Y-113917776D01*
G75*
G02*
X127319263Y-113515148I-550000J952628D01*
G01*
X127319263Y-113515148D01*
G75*
G02*
X127721891Y-112012520I952628J550000D01*
G01*
X128328109Y-111662520D01*
G75*
G02*
X129830737Y-112065148I550000J-952628D01*
G01*
X129830737Y-112065148D01*
G75*
G02*
X129428109Y-113567776I-952628J-550000D01*
G01*
G37*
G36*
G01*
X130698109Y-115767480D02*
X130091891Y-116117480D01*
G75*
G02*
X128589263Y-115714852I-550000J952628D01*
G01*
X128589263Y-115714852D01*
G75*
G02*
X128991891Y-114212224I952628J550000D01*
G01*
X129598109Y-113862224D01*
G75*
G02*
X131100737Y-114264852I550000J-952628D01*
G01*
X131100737Y-114264852D01*
G75*
G02*
X130698109Y-115767480I-952628J-550000D01*
G01*
G37*
D14*
X125480000Y-103610000D03*
X125480000Y-106150000D03*
G36*
G01*
X129598109Y-86137776D02*
X128991891Y-85787776D01*
G75*
G02*
X128589263Y-84285148I550000J952628D01*
G01*
X128589263Y-84285148D01*
G75*
G02*
X130091891Y-83882520I952628J-550000D01*
G01*
X130698109Y-84232520D01*
G75*
G02*
X131100737Y-85735148I-550000J-952628D01*
G01*
X131100737Y-85735148D01*
G75*
G02*
X129598109Y-86137776I-952628J550000D01*
G01*
G37*
G36*
G01*
X128328109Y-88337480D02*
X127721891Y-87987480D01*
G75*
G02*
X127319263Y-86484852I550000J952628D01*
G01*
X127319263Y-86484852D01*
G75*
G02*
X128821891Y-86082224I952628J-550000D01*
G01*
X129428109Y-86432224D01*
G75*
G02*
X129830737Y-87934852I-550000J-952628D01*
G01*
X129830737Y-87934852D01*
G75*
G02*
X128328109Y-88337480I-952628J550000D01*
G01*
G37*
G36*
G01*
X136432224Y-79428109D02*
X136082224Y-78821891D01*
G75*
G02*
X136484852Y-77319263I952628J550000D01*
G01*
X136484852Y-77319263D01*
G75*
G02*
X137987480Y-77721891I550000J-952628D01*
G01*
X138337480Y-78328109D01*
G75*
G02*
X137934852Y-79830737I-952628J-550000D01*
G01*
X137934852Y-79830737D01*
G75*
G02*
X136432224Y-79428109I-550000J952628D01*
G01*
G37*
G36*
G01*
X134232520Y-80698109D02*
X133882520Y-80091891D01*
G75*
G02*
X134285148Y-78589263I952628J550000D01*
G01*
X134285148Y-78589263D01*
G75*
G02*
X135787776Y-78991891I550000J-952628D01*
G01*
X136137776Y-79598109D01*
G75*
G02*
X135735148Y-81100737I-952628J-550000D01*
G01*
X135735148Y-81100737D01*
G75*
G02*
X134232520Y-80698109I-550000J952628D01*
G01*
G37*
D16*
X146390000Y-75480000D03*
X143850000Y-75480000D03*
X156150000Y-75480000D03*
X153610000Y-75480000D03*
G36*
G01*
X163862224Y-79598109D02*
X164212224Y-78991891D01*
G75*
G02*
X165714852Y-78589263I952628J-550000D01*
G01*
X165714852Y-78589263D01*
G75*
G02*
X166117480Y-80091891I-550000J-952628D01*
G01*
X165767480Y-80698109D01*
G75*
G02*
X164264852Y-81100737I-952628J550000D01*
G01*
X164264852Y-81100737D01*
G75*
G02*
X163862224Y-79598109I550000J952628D01*
G01*
G37*
G36*
G01*
X161662520Y-78328109D02*
X162012520Y-77721891D01*
G75*
G02*
X163515148Y-77319263I952628J-550000D01*
G01*
X163515148Y-77319263D01*
G75*
G02*
X163917776Y-78821891I-550000J-952628D01*
G01*
X163567776Y-79428109D01*
G75*
G02*
X162065148Y-79830737I-952628J550000D01*
G01*
X162065148Y-79830737D01*
G75*
G02*
X161662520Y-78328109I550000J952628D01*
G01*
G37*
G36*
G01*
X170571891Y-86432224D02*
X171178109Y-86082224D01*
G75*
G02*
X172680737Y-86484852I550000J-952628D01*
G01*
X172680737Y-86484852D01*
G75*
G02*
X172278109Y-87987480I-952628J-550000D01*
G01*
X171671891Y-88337480D01*
G75*
G02*
X170169263Y-87934852I-550000J952628D01*
G01*
X170169263Y-87934852D01*
G75*
G02*
X170571891Y-86432224I952628J550000D01*
G01*
G37*
G36*
G01*
X169301891Y-84232520D02*
X169908109Y-83882520D01*
G75*
G02*
X171410737Y-84285148I550000J-952628D01*
G01*
X171410737Y-84285148D01*
G75*
G02*
X171008109Y-85787776I-952628J-550000D01*
G01*
X170401891Y-86137776D01*
G75*
G02*
X168899263Y-85735148I-550000J952628D01*
G01*
X168899263Y-85735148D01*
G75*
G02*
X169301891Y-84232520I952628J550000D01*
G01*
G37*
D14*
X174520000Y-96390000D03*
X174520000Y-93850000D03*
M02*
