G04 #@! TF.GenerationSoftware,KiCad,Pcbnew,(5.1.9)-1*
G04 #@! TF.CreationDate,2021-10-29T13:55:55-03:00*
G04 #@! TF.ProjectId,RG_Led_ring,52475f4c-6564-45f7-9269-6e672e6b6963,rev?*
G04 #@! TF.SameCoordinates,Original*
G04 #@! TF.FileFunction,Paste,Top*
G04 #@! TF.FilePolarity,Positive*
%FSLAX46Y46*%
G04 Gerber Fmt 4.6, Leading zero omitted, Abs format (unit mm)*
G04 Created by KiCad (PCBNEW (5.1.9)-1) date 2021-10-29 13:55:55*
%MOMM*%
%LPD*%
G01*
G04 APERTURE LIST*
G04 APERTURE END LIST*
G36*
G01*
X150225000Y-76025000D02*
X150775000Y-76025000D01*
G75*
G02*
X150975000Y-76225000I0J-200000D01*
G01*
X150975000Y-76625000D01*
G75*
G02*
X150775000Y-76825000I-200000J0D01*
G01*
X150225000Y-76825000D01*
G75*
G02*
X150025000Y-76625000I0J200000D01*
G01*
X150025000Y-76225000D01*
G75*
G02*
X150225000Y-76025000I200000J0D01*
G01*
G37*
G36*
G01*
X150225000Y-74375000D02*
X150775000Y-74375000D01*
G75*
G02*
X150975000Y-74575000I0J-200000D01*
G01*
X150975000Y-74975000D01*
G75*
G02*
X150775000Y-75175000I-200000J0D01*
G01*
X150225000Y-75175000D01*
G75*
G02*
X150025000Y-74975000I0J200000D01*
G01*
X150025000Y-74575000D01*
G75*
G02*
X150225000Y-74375000I200000J0D01*
G01*
G37*
G36*
G01*
X173875000Y-100025000D02*
X173875000Y-100575000D01*
G75*
G02*
X173675000Y-100775000I-200000J0D01*
G01*
X173275000Y-100775000D01*
G75*
G02*
X173075000Y-100575000I0J200000D01*
G01*
X173075000Y-100025000D01*
G75*
G02*
X173275000Y-99825000I200000J0D01*
G01*
X173675000Y-99825000D01*
G75*
G02*
X173875000Y-100025000I0J-200000D01*
G01*
G37*
G36*
G01*
X175525000Y-100025000D02*
X175525000Y-100575000D01*
G75*
G02*
X175325000Y-100775000I-200000J0D01*
G01*
X174925000Y-100775000D01*
G75*
G02*
X174725000Y-100575000I0J200000D01*
G01*
X174725000Y-100025000D01*
G75*
G02*
X174925000Y-99825000I200000J0D01*
G01*
X175325000Y-99825000D01*
G75*
G02*
X175525000Y-100025000I0J-200000D01*
G01*
G37*
G36*
G01*
X149975000Y-123475000D02*
X149425000Y-123475000D01*
G75*
G02*
X149225000Y-123275000I0J200000D01*
G01*
X149225000Y-122875000D01*
G75*
G02*
X149425000Y-122675000I200000J0D01*
G01*
X149975000Y-122675000D01*
G75*
G02*
X150175000Y-122875000I0J-200000D01*
G01*
X150175000Y-123275000D01*
G75*
G02*
X149975000Y-123475000I-200000J0D01*
G01*
G37*
G36*
G01*
X149975000Y-125125000D02*
X149425000Y-125125000D01*
G75*
G02*
X149225000Y-124925000I0J200000D01*
G01*
X149225000Y-124525000D01*
G75*
G02*
X149425000Y-124325000I200000J0D01*
G01*
X149975000Y-124325000D01*
G75*
G02*
X150175000Y-124525000I0J-200000D01*
G01*
X150175000Y-124925000D01*
G75*
G02*
X149975000Y-125125000I-200000J0D01*
G01*
G37*
G36*
G01*
X126325000Y-99875000D02*
X126325000Y-99325000D01*
G75*
G02*
X126525000Y-99125000I200000J0D01*
G01*
X126925000Y-99125000D01*
G75*
G02*
X127125000Y-99325000I0J-200000D01*
G01*
X127125000Y-99875000D01*
G75*
G02*
X126925000Y-100075000I-200000J0D01*
G01*
X126525000Y-100075000D01*
G75*
G02*
X126325000Y-99875000I0J200000D01*
G01*
G37*
G36*
G01*
X124675000Y-99875000D02*
X124675000Y-99325000D01*
G75*
G02*
X124875000Y-99125000I200000J0D01*
G01*
X125275000Y-99125000D01*
G75*
G02*
X125475000Y-99325000I0J-200000D01*
G01*
X125475000Y-99875000D01*
G75*
G02*
X125275000Y-100075000I-200000J0D01*
G01*
X124875000Y-100075000D01*
G75*
G02*
X124675000Y-99875000I0J200000D01*
G01*
G37*
M02*
