G04 #@! TF.GenerationSoftware,KiCad,Pcbnew,(5.1.9)-1*
G04 #@! TF.CreationDate,2021-10-29T13:55:56-03:00*
G04 #@! TF.ProjectId,RG_Led_ring,52475f4c-6564-45f7-9269-6e672e6b6963,rev?*
G04 #@! TF.SameCoordinates,Original*
G04 #@! TF.FileFunction,Soldermask,Bot*
G04 #@! TF.FilePolarity,Negative*
%FSLAX46Y46*%
G04 Gerber Fmt 4.6, Leading zero omitted, Abs format (unit mm)*
G04 Created by KiCad (PCBNEW (5.1.9)-1) date 2021-10-29 13:55:56*
%MOMM*%
%LPD*%
G01*
G04 APERTURE LIST*
%ADD10O,2.900000X2.200000*%
%ADD11C,2.200000*%
%ADD12O,2.200000X2.900000*%
G04 APERTURE END LIST*
D10*
X125480000Y-93850000D03*
X125480000Y-96390000D03*
G36*
G01*
X180125000Y-105075000D02*
X180125000Y-104325000D01*
G75*
G02*
X180425000Y-104025000I300000J0D01*
G01*
X181025000Y-104025000D01*
G75*
G02*
X181325000Y-104325000I0J-300000D01*
G01*
X181325000Y-105075000D01*
G75*
G02*
X181025000Y-105375000I-300000J0D01*
G01*
X180425000Y-105375000D01*
G75*
G02*
X180125000Y-105075000I0J300000D01*
G01*
G37*
G36*
G01*
X178475000Y-105075000D02*
X178475000Y-104325000D01*
G75*
G02*
X178775000Y-104025000I300000J0D01*
G01*
X179375000Y-104025000D01*
G75*
G02*
X179675000Y-104325000I0J-300000D01*
G01*
X179675000Y-105075000D01*
G75*
G02*
X179375000Y-105375000I-300000J0D01*
G01*
X178775000Y-105375000D01*
G75*
G02*
X178475000Y-105075000I0J300000D01*
G01*
G37*
G36*
G01*
X119975000Y-94825000D02*
X119975000Y-95575000D01*
G75*
G02*
X119675000Y-95875000I-300000J0D01*
G01*
X119075000Y-95875000D01*
G75*
G02*
X118775000Y-95575000I0J300000D01*
G01*
X118775000Y-94825000D01*
G75*
G02*
X119075000Y-94525000I300000J0D01*
G01*
X119675000Y-94525000D01*
G75*
G02*
X119975000Y-94825000I0J-300000D01*
G01*
G37*
G36*
G01*
X121625000Y-94825000D02*
X121625000Y-95575000D01*
G75*
G02*
X121325000Y-95875000I-300000J0D01*
G01*
X120725000Y-95875000D01*
G75*
G02*
X120425000Y-95575000I0J300000D01*
G01*
X120425000Y-94825000D01*
G75*
G02*
X120725000Y-94525000I300000J0D01*
G01*
X121325000Y-94525000D01*
G75*
G02*
X121625000Y-94825000I0J-300000D01*
G01*
G37*
D11*
X161567115Y-69971727D03*
X163832885Y-71028273D03*
X136167115Y-71028273D03*
X138432885Y-69971727D03*
D10*
X180000000Y-98730000D03*
X180000000Y-101270000D03*
G36*
G01*
X171337278Y-78422304D02*
X170842304Y-78917278D01*
G75*
G02*
X169286670Y-78917278I-777817J777817D01*
G01*
X169286670Y-78917278D01*
G75*
G02*
X169286670Y-77361644I777817J777817D01*
G01*
X169781644Y-76866670D01*
G75*
G02*
X171337278Y-76866670I777817J-777817D01*
G01*
X171337278Y-76866670D01*
G75*
G02*
X171337278Y-78422304I-777817J-777817D01*
G01*
G37*
G36*
G01*
X173133330Y-80218356D02*
X172638356Y-80713330D01*
G75*
G02*
X171082722Y-80713330I-777817J777817D01*
G01*
X171082722Y-80713330D01*
G75*
G02*
X171082722Y-79157696I777817J777817D01*
G01*
X171577696Y-78662722D01*
G75*
G02*
X173133330Y-78662722I777817J-777817D01*
G01*
X173133330Y-78662722D01*
G75*
G02*
X173133330Y-80218356I-777817J-777817D01*
G01*
G37*
D12*
X148730000Y-70000000D03*
X151270000Y-70000000D03*
G36*
G01*
X128422304Y-78662722D02*
X128917278Y-79157696D01*
G75*
G02*
X128917278Y-80713330I-777817J-777817D01*
G01*
X128917278Y-80713330D01*
G75*
G02*
X127361644Y-80713330I-777817J777817D01*
G01*
X126866670Y-80218356D01*
G75*
G02*
X126866670Y-78662722I777817J777817D01*
G01*
X126866670Y-78662722D01*
G75*
G02*
X128422304Y-78662722I777817J-777817D01*
G01*
G37*
G36*
G01*
X130218356Y-76866670D02*
X130713330Y-77361644D01*
G75*
G02*
X130713330Y-78917278I-777817J-777817D01*
G01*
X130713330Y-78917278D01*
G75*
G02*
X129157696Y-78917278I-777817J777817D01*
G01*
X128662722Y-78422304D01*
G75*
G02*
X128662722Y-76866670I777817J777817D01*
G01*
X128662722Y-76866670D01*
G75*
G02*
X130218356Y-76866670I777817J-777817D01*
G01*
G37*
D10*
X120000000Y-101270000D03*
X120000000Y-98730000D03*
G36*
G01*
X128662722Y-121577696D02*
X129157696Y-121082722D01*
G75*
G02*
X130713330Y-121082722I777817J-777817D01*
G01*
X130713330Y-121082722D01*
G75*
G02*
X130713330Y-122638356I-777817J-777817D01*
G01*
X130218356Y-123133330D01*
G75*
G02*
X128662722Y-123133330I-777817J777817D01*
G01*
X128662722Y-123133330D01*
G75*
G02*
X128662722Y-121577696I777817J777817D01*
G01*
G37*
G36*
G01*
X126866670Y-119781644D02*
X127361644Y-119286670D01*
G75*
G02*
X128917278Y-119286670I777817J-777817D01*
G01*
X128917278Y-119286670D01*
G75*
G02*
X128917278Y-120842304I-777817J-777817D01*
G01*
X128422304Y-121337278D01*
G75*
G02*
X126866670Y-121337278I-777817J777817D01*
G01*
X126866670Y-121337278D01*
G75*
G02*
X126866670Y-119781644I777817J777817D01*
G01*
G37*
D12*
X151270000Y-130000000D03*
X148730000Y-130000000D03*
G36*
G01*
X171577696Y-121337278D02*
X171082722Y-120842304D01*
G75*
G02*
X171082722Y-119286670I777817J777817D01*
G01*
X171082722Y-119286670D01*
G75*
G02*
X172638356Y-119286670I777817J-777817D01*
G01*
X173133330Y-119781644D01*
G75*
G02*
X173133330Y-121337278I-777817J-777817D01*
G01*
X173133330Y-121337278D01*
G75*
G02*
X171577696Y-121337278I-777817J777817D01*
G01*
G37*
G36*
G01*
X169781644Y-123133330D02*
X169286670Y-122638356D01*
G75*
G02*
X169286670Y-121082722I777817J777817D01*
G01*
X169286670Y-121082722D01*
G75*
G02*
X170842304Y-121082722I777817J-777817D01*
G01*
X171337278Y-121577696D01*
G75*
G02*
X171337278Y-123133330I-777817J-777817D01*
G01*
X171337278Y-123133330D01*
G75*
G02*
X169781644Y-123133330I-777817J777817D01*
G01*
G37*
D10*
X174520000Y-105990000D03*
X174520000Y-103450000D03*
G36*
G01*
X170401891Y-113862224D02*
X171008109Y-114212224D01*
G75*
G02*
X171410737Y-115714852I-550000J-952628D01*
G01*
X171410737Y-115714852D01*
G75*
G02*
X169908109Y-116117480I-952628J550000D01*
G01*
X169301891Y-115767480D01*
G75*
G02*
X168899263Y-114264852I550000J952628D01*
G01*
X168899263Y-114264852D01*
G75*
G02*
X170401891Y-113862224I952628J-550000D01*
G01*
G37*
G36*
G01*
X171671891Y-111662520D02*
X172278109Y-112012520D01*
G75*
G02*
X172680737Y-113515148I-550000J-952628D01*
G01*
X172680737Y-113515148D01*
G75*
G02*
X171178109Y-113917776I-952628J550000D01*
G01*
X170571891Y-113567776D01*
G75*
G02*
X170169263Y-112065148I550000J952628D01*
G01*
X170169263Y-112065148D01*
G75*
G02*
X171671891Y-111662520I952628J-550000D01*
G01*
G37*
G36*
G01*
X163567776Y-120571891D02*
X163917776Y-121178109D01*
G75*
G02*
X163515148Y-122680737I-952628J-550000D01*
G01*
X163515148Y-122680737D01*
G75*
G02*
X162012520Y-122278109I-550000J952628D01*
G01*
X161662520Y-121671891D01*
G75*
G02*
X162065148Y-120169263I952628J550000D01*
G01*
X162065148Y-120169263D01*
G75*
G02*
X163567776Y-120571891I550000J-952628D01*
G01*
G37*
G36*
G01*
X165767480Y-119301891D02*
X166117480Y-119908109D01*
G75*
G02*
X165714852Y-121410737I-952628J-550000D01*
G01*
X165714852Y-121410737D01*
G75*
G02*
X164212224Y-121008109I-550000J952628D01*
G01*
X163862224Y-120401891D01*
G75*
G02*
X164264852Y-118899263I952628J550000D01*
G01*
X164264852Y-118899263D01*
G75*
G02*
X165767480Y-119301891I550000J-952628D01*
G01*
G37*
D12*
X153610000Y-124520000D03*
X156150000Y-124520000D03*
X143850000Y-124520000D03*
X146390000Y-124520000D03*
G36*
G01*
X136137776Y-120401891D02*
X135787776Y-121008109D01*
G75*
G02*
X134285148Y-121410737I-952628J550000D01*
G01*
X134285148Y-121410737D01*
G75*
G02*
X133882520Y-119908109I550000J952628D01*
G01*
X134232520Y-119301891D01*
G75*
G02*
X135735148Y-118899263I952628J-550000D01*
G01*
X135735148Y-118899263D01*
G75*
G02*
X136137776Y-120401891I-550000J-952628D01*
G01*
G37*
G36*
G01*
X138337480Y-121671891D02*
X137987480Y-122278109D01*
G75*
G02*
X136484852Y-122680737I-952628J550000D01*
G01*
X136484852Y-122680737D01*
G75*
G02*
X136082224Y-121178109I550000J952628D01*
G01*
X136432224Y-120571891D01*
G75*
G02*
X137934852Y-120169263I952628J-550000D01*
G01*
X137934852Y-120169263D01*
G75*
G02*
X138337480Y-121671891I-550000J-952628D01*
G01*
G37*
G36*
G01*
X129428109Y-113567776D02*
X128821891Y-113917776D01*
G75*
G02*
X127319263Y-113515148I-550000J952628D01*
G01*
X127319263Y-113515148D01*
G75*
G02*
X127721891Y-112012520I952628J550000D01*
G01*
X128328109Y-111662520D01*
G75*
G02*
X129830737Y-112065148I550000J-952628D01*
G01*
X129830737Y-112065148D01*
G75*
G02*
X129428109Y-113567776I-952628J-550000D01*
G01*
G37*
G36*
G01*
X130698109Y-115767480D02*
X130091891Y-116117480D01*
G75*
G02*
X128589263Y-115714852I-550000J952628D01*
G01*
X128589263Y-115714852D01*
G75*
G02*
X128991891Y-114212224I952628J550000D01*
G01*
X129598109Y-113862224D01*
G75*
G02*
X131100737Y-114264852I550000J-952628D01*
G01*
X131100737Y-114264852D01*
G75*
G02*
X130698109Y-115767480I-952628J-550000D01*
G01*
G37*
D10*
X125480000Y-103610000D03*
X125480000Y-106150000D03*
G36*
G01*
X129598109Y-86137776D02*
X128991891Y-85787776D01*
G75*
G02*
X128589263Y-84285148I550000J952628D01*
G01*
X128589263Y-84285148D01*
G75*
G02*
X130091891Y-83882520I952628J-550000D01*
G01*
X130698109Y-84232520D01*
G75*
G02*
X131100737Y-85735148I-550000J-952628D01*
G01*
X131100737Y-85735148D01*
G75*
G02*
X129598109Y-86137776I-952628J550000D01*
G01*
G37*
G36*
G01*
X128328109Y-88337480D02*
X127721891Y-87987480D01*
G75*
G02*
X127319263Y-86484852I550000J952628D01*
G01*
X127319263Y-86484852D01*
G75*
G02*
X128821891Y-86082224I952628J-550000D01*
G01*
X129428109Y-86432224D01*
G75*
G02*
X129830737Y-87934852I-550000J-952628D01*
G01*
X129830737Y-87934852D01*
G75*
G02*
X128328109Y-88337480I-952628J550000D01*
G01*
G37*
G36*
G01*
X136432224Y-79428109D02*
X136082224Y-78821891D01*
G75*
G02*
X136484852Y-77319263I952628J550000D01*
G01*
X136484852Y-77319263D01*
G75*
G02*
X137987480Y-77721891I550000J-952628D01*
G01*
X138337480Y-78328109D01*
G75*
G02*
X137934852Y-79830737I-952628J-550000D01*
G01*
X137934852Y-79830737D01*
G75*
G02*
X136432224Y-79428109I-550000J952628D01*
G01*
G37*
G36*
G01*
X134232520Y-80698109D02*
X133882520Y-80091891D01*
G75*
G02*
X134285148Y-78589263I952628J550000D01*
G01*
X134285148Y-78589263D01*
G75*
G02*
X135787776Y-78991891I550000J-952628D01*
G01*
X136137776Y-79598109D01*
G75*
G02*
X135735148Y-81100737I-952628J-550000D01*
G01*
X135735148Y-81100737D01*
G75*
G02*
X134232520Y-80698109I-550000J952628D01*
G01*
G37*
D12*
X146390000Y-75480000D03*
X143850000Y-75480000D03*
X156150000Y-75480000D03*
X153610000Y-75480000D03*
G36*
G01*
X163862224Y-79598109D02*
X164212224Y-78991891D01*
G75*
G02*
X165714852Y-78589263I952628J-550000D01*
G01*
X165714852Y-78589263D01*
G75*
G02*
X166117480Y-80091891I-550000J-952628D01*
G01*
X165767480Y-80698109D01*
G75*
G02*
X164264852Y-81100737I-952628J550000D01*
G01*
X164264852Y-81100737D01*
G75*
G02*
X163862224Y-79598109I550000J952628D01*
G01*
G37*
G36*
G01*
X161662520Y-78328109D02*
X162012520Y-77721891D01*
G75*
G02*
X163515148Y-77319263I952628J-550000D01*
G01*
X163515148Y-77319263D01*
G75*
G02*
X163917776Y-78821891I-550000J-952628D01*
G01*
X163567776Y-79428109D01*
G75*
G02*
X162065148Y-79830737I-952628J550000D01*
G01*
X162065148Y-79830737D01*
G75*
G02*
X161662520Y-78328109I550000J952628D01*
G01*
G37*
G36*
G01*
X170571891Y-86432224D02*
X171178109Y-86082224D01*
G75*
G02*
X172680737Y-86484852I550000J-952628D01*
G01*
X172680737Y-86484852D01*
G75*
G02*
X172278109Y-87987480I-952628J-550000D01*
G01*
X171671891Y-88337480D01*
G75*
G02*
X170169263Y-87934852I-550000J952628D01*
G01*
X170169263Y-87934852D01*
G75*
G02*
X170571891Y-86432224I952628J550000D01*
G01*
G37*
G36*
G01*
X169301891Y-84232520D02*
X169908109Y-83882520D01*
G75*
G02*
X171410737Y-84285148I550000J-952628D01*
G01*
X171410737Y-84285148D01*
G75*
G02*
X171008109Y-85787776I-952628J-550000D01*
G01*
X170401891Y-86137776D01*
G75*
G02*
X168899263Y-85735148I-550000J952628D01*
G01*
X168899263Y-85735148D01*
G75*
G02*
X169301891Y-84232520I952628J550000D01*
G01*
G37*
D10*
X174520000Y-96390000D03*
X174520000Y-93850000D03*
M02*
