M48
; DRILL file {KiCad (5.1.9)-1} date 10/29/21 13:56:01
; FORMAT={-:-/ absolute / metric / decimal}
; #@! TF.CreationDate,2021-10-29T13:56:01-03:00
; #@! TF.GenerationSoftware,Kicad,Pcbnew,(5.1.9)-1
; #@! TF.FileFunction,Plated,1,2,PTH
FMAT,2
METRIC
T1C0.400
T2C1.000
T3C1.200
T4C3.200
%
G90
G05
T1
X131.7Y-74.1
X132.9Y-83.8
T2
X136.167Y-71.028
X138.433Y-69.972
X161.567Y-69.972
X163.833Y-71.028
T3
X120.0Y-98.73
X120.0Y-101.27
X125.48Y-93.85
X125.48Y-96.39
X125.48Y-103.61
X125.48Y-106.15
X127.892Y-79.688
X127.892Y-120.312
X128.575Y-87.21
X128.575Y-112.79
X129.688Y-77.892
X129.688Y-122.108
X129.845Y-85.01
X129.845Y-114.99
X135.01Y-79.845
X135.01Y-120.155
X137.21Y-78.575
X137.21Y-121.425
X143.85Y-75.48
X143.85Y-124.52
X146.39Y-75.48
X146.39Y-124.52
X148.73Y-70.0
X148.73Y-130.0
X151.27Y-70.0
X151.27Y-130.0
X153.61Y-75.48
X153.61Y-124.52
X156.15Y-75.48
X156.15Y-124.52
X162.79Y-78.575
X162.79Y-121.425
X164.99Y-79.845
X164.99Y-120.155
X170.155Y-85.01
X170.155Y-114.99
X170.312Y-77.892
X170.312Y-122.108
X171.425Y-87.21
X171.425Y-112.79
X172.108Y-79.688
X172.108Y-120.312
X174.52Y-93.85
X174.52Y-96.39
X174.52Y-103.45
X174.52Y-105.99
X180.0Y-98.73
X180.0Y-101.27
T4
X120.0Y-88.5
X120.0Y-111.5
X180.0Y-88.5
X180.0Y-111.5
T0
M30
