G04 #@! TF.GenerationSoftware,KiCad,Pcbnew,(5.1.9)-1*
G04 #@! TF.CreationDate,2021-10-29T13:55:56-03:00*
G04 #@! TF.ProjectId,RG_Led_ring,52475f4c-6564-45f7-9269-6e672e6b6963,rev?*
G04 #@! TF.SameCoordinates,Original*
G04 #@! TF.FileFunction,Legend,Top*
G04 #@! TF.FilePolarity,Positive*
%FSLAX46Y46*%
G04 Gerber Fmt 4.6, Leading zero omitted, Abs format (unit mm)*
G04 Created by KiCad (PCBNEW (5.1.9)-1) date 2021-10-29 13:55:56*
%MOMM*%
%LPD*%
G01*
G04 APERTURE LIST*
%ADD10C,0.150000*%
%ADD11C,0.120000*%
%ADD12O,2.900000X2.200000*%
%ADD13C,2.200000*%
%ADD14O,2.200000X2.900000*%
G04 APERTURE END LIST*
D10*
X161619047Y-75171428D02*
X162380952Y-75171428D01*
X162000000Y-75552380D02*
X162000000Y-74790476D01*
X159019047Y-73971428D02*
X159780952Y-73971428D01*
X141857142Y-68352380D02*
X141523809Y-67876190D01*
X141285714Y-68352380D02*
X141285714Y-67352380D01*
X141666666Y-67352380D01*
X141761904Y-67400000D01*
X141809523Y-67447619D01*
X141857142Y-67542857D01*
X141857142Y-67685714D01*
X141809523Y-67780952D01*
X141761904Y-67828571D01*
X141666666Y-67876190D01*
X141285714Y-67876190D01*
X142285714Y-67828571D02*
X142619047Y-67828571D01*
X142761904Y-68352380D02*
X142285714Y-68352380D01*
X142285714Y-67352380D01*
X142761904Y-67352380D01*
X143190476Y-68352380D02*
X143190476Y-67352380D01*
X143428571Y-67352380D01*
X143571428Y-67400000D01*
X143666666Y-67495238D01*
X143714285Y-67590476D01*
X143761904Y-67780952D01*
X143761904Y-67923809D01*
X143714285Y-68114285D01*
X143666666Y-68209523D01*
X143571428Y-68304761D01*
X143428571Y-68352380D01*
X143190476Y-68352380D01*
X166733333Y-72800000D02*
X166638095Y-72752380D01*
X166495238Y-72752380D01*
X166352380Y-72800000D01*
X166257142Y-72895238D01*
X166209523Y-72990476D01*
X166161904Y-73180952D01*
X166161904Y-73323809D01*
X166209523Y-73514285D01*
X166257142Y-73609523D01*
X166352380Y-73704761D01*
X166495238Y-73752380D01*
X166590476Y-73752380D01*
X166733333Y-73704761D01*
X166780952Y-73657142D01*
X166780952Y-73323809D01*
X166590476Y-73323809D01*
X167780952Y-73752380D02*
X167447619Y-73276190D01*
X167209523Y-73752380D02*
X167209523Y-72752380D01*
X167590476Y-72752380D01*
X167685714Y-72800000D01*
X167733333Y-72847619D01*
X167780952Y-72942857D01*
X167780952Y-73085714D01*
X167733333Y-73180952D01*
X167685714Y-73228571D01*
X167590476Y-73276190D01*
X167209523Y-73276190D01*
X168209523Y-73228571D02*
X168542857Y-73228571D01*
X168685714Y-73752380D02*
X168209523Y-73752380D01*
X168209523Y-72752380D01*
X168685714Y-72752380D01*
X169114285Y-73228571D02*
X169447619Y-73228571D01*
X169590476Y-73752380D02*
X169114285Y-73752380D01*
X169114285Y-72752380D01*
X169590476Y-72752380D01*
X170019047Y-73752380D02*
X170019047Y-72752380D01*
X170590476Y-73752380D01*
X170590476Y-72752380D01*
X138119047Y-74871428D02*
X138880952Y-74871428D01*
X140519047Y-73871428D02*
X141280952Y-73871428D01*
X140900000Y-74252380D02*
X140900000Y-73490476D01*
D11*
X149977500Y-75362742D02*
X149977500Y-75837258D01*
X151022500Y-75362742D02*
X151022500Y-75837258D01*
X127980000Y-95120000D02*
G75*
G03*
X127980000Y-95120000I-2500000J0D01*
G01*
X123935000Y-97680000D02*
X127025000Y-97680000D01*
X125480462Y-92130000D02*
G75*
G03*
X123935170Y-97680000I-462J-2990000D01*
G01*
X125479538Y-92130000D02*
G75*
G02*
X127024830Y-97680000I462J-2990000D01*
G01*
X174537258Y-99777500D02*
X174062742Y-99777500D01*
X174537258Y-100822500D02*
X174062742Y-100822500D01*
X150222500Y-124137258D02*
X150222500Y-123662742D01*
X149177500Y-124137258D02*
X149177500Y-123662742D01*
X125662742Y-100122500D02*
X126137258Y-100122500D01*
X125662742Y-99077500D02*
X126137258Y-99077500D01*
X162288571Y-68377236D02*
X162542142Y-67833452D01*
X164590593Y-69450687D02*
X162288571Y-68377236D01*
X164590593Y-69450687D02*
X164844164Y-68906902D01*
X157909759Y-72017759D02*
X164616437Y-75145134D01*
X160339814Y-66806489D02*
X157909759Y-72017759D01*
X167046492Y-69933864D02*
X160339814Y-66806489D01*
X164616437Y-75145134D02*
X167046492Y-69933864D01*
X135409407Y-69450687D02*
X135155836Y-68906902D01*
X137711429Y-68377236D02*
X135409407Y-69450687D01*
X137711429Y-68377236D02*
X137457858Y-67833452D01*
X135383563Y-75145134D02*
X142090241Y-72017759D01*
X132953508Y-69933864D02*
X135383563Y-75145134D01*
X139660186Y-66806489D02*
X132953508Y-69933864D01*
X142090241Y-72017759D02*
X139660186Y-66806489D01*
X182500000Y-100000000D02*
G75*
G03*
X182500000Y-100000000I-2500000J0D01*
G01*
X178455000Y-102560000D02*
X181545000Y-102560000D01*
X180000462Y-97010000D02*
G75*
G03*
X178455170Y-102560000I-462J-2990000D01*
G01*
X179999538Y-97010000D02*
G75*
G02*
X181544830Y-102560000I462J-2990000D01*
G01*
X173710000Y-78790000D02*
G75*
G03*
X173710000Y-78790000I-2500000J0D01*
G01*
X171927713Y-81692673D02*
X174112673Y-79507713D01*
X169096077Y-76675425D02*
G75*
G03*
X171927834Y-81692553I2113923J-2114575D01*
G01*
X169095425Y-76676077D02*
G75*
G02*
X174112553Y-79507834I2114575J-2113923D01*
G01*
X152500000Y-70000000D02*
G75*
G03*
X152500000Y-70000000I-2500000J0D01*
G01*
X152560000Y-71545000D02*
X152560000Y-68455000D01*
X147010000Y-69999538D02*
G75*
G03*
X152560000Y-71544830I2990000J-462D01*
G01*
X147010000Y-70000462D02*
G75*
G02*
X152560000Y-68455170I2990000J462D01*
G01*
X131290000Y-78790000D02*
G75*
G03*
X131290000Y-78790000I-2500000J0D01*
G01*
X131692673Y-78072287D02*
X129507713Y-75887327D01*
X126675425Y-80903923D02*
G75*
G03*
X131692553Y-78072166I2114575J2113923D01*
G01*
X126676077Y-80904575D02*
G75*
G02*
X129507834Y-75887447I2113923J2114575D01*
G01*
X122500000Y-100000000D02*
G75*
G03*
X122500000Y-100000000I-2500000J0D01*
G01*
X121545000Y-97440000D02*
X118455000Y-97440000D01*
X119999538Y-102990000D02*
G75*
G03*
X121544830Y-97440000I462J2990000D01*
G01*
X120000462Y-102990000D02*
G75*
G02*
X118455170Y-97440000I-462J2990000D01*
G01*
X131290000Y-121210000D02*
G75*
G03*
X131290000Y-121210000I-2500000J0D01*
G01*
X128072287Y-118307327D02*
X125887327Y-120492287D01*
X130903923Y-123324575D02*
G75*
G03*
X128072166Y-118307447I-2113923J2114575D01*
G01*
X130904575Y-123323923D02*
G75*
G02*
X125887447Y-120492166I-2114575J2113923D01*
G01*
X152500000Y-130000000D02*
G75*
G03*
X152500000Y-130000000I-2500000J0D01*
G01*
X147440000Y-128455000D02*
X147440000Y-131545000D01*
X152990000Y-130000462D02*
G75*
G03*
X147440000Y-128455170I-2990000J462D01*
G01*
X152990000Y-129999538D02*
G75*
G02*
X147440000Y-131544830I-2990000J-462D01*
G01*
X173710000Y-121210000D02*
G75*
G03*
X173710000Y-121210000I-2500000J0D01*
G01*
X168307327Y-121927713D02*
X170492287Y-124112673D01*
X173324575Y-119096077D02*
G75*
G03*
X168307447Y-121927834I-2114575J-2113923D01*
G01*
X173323923Y-119095425D02*
G75*
G02*
X170492166Y-124112553I-2113923J-2114575D01*
G01*
X177020000Y-104720000D02*
G75*
G03*
X177020000Y-104720000I-2500000J0D01*
G01*
X176065000Y-102160000D02*
X172975000Y-102160000D01*
X174519538Y-107710000D02*
G75*
G03*
X176064830Y-102160000I462J2990000D01*
G01*
X174520462Y-107710000D02*
G75*
G02*
X172975170Y-102160000I-462J2990000D01*
G01*
X173290000Y-113890000D02*
G75*
G03*
X173290000Y-113890000I-2500000J0D01*
G01*
X173408009Y-112445475D02*
X170731991Y-110900475D01*
X169294600Y-116479185D02*
G75*
G03*
X173407862Y-112445390I1495400J2589185D01*
G01*
X169295400Y-116479647D02*
G75*
G02*
X170732138Y-110900560I1494600J2589647D01*
G01*
X166390000Y-120790000D02*
G75*
G03*
X166390000Y-120790000I-2500000J0D01*
G01*
X166879525Y-120848009D02*
X165334525Y-118171991D01*
X161300353Y-122284600D02*
G75*
G03*
X166879440Y-120847862I2589647J1494600D01*
G01*
X161300815Y-122285400D02*
G75*
G02*
X165334610Y-118172138I2589185J1495400D01*
G01*
X157380000Y-124520000D02*
G75*
G03*
X157380000Y-124520000I-2500000J0D01*
G01*
X157440000Y-126065000D02*
X157440000Y-122975000D01*
X151890000Y-124519538D02*
G75*
G03*
X157440000Y-126064830I2990000J-462D01*
G01*
X151890000Y-124520462D02*
G75*
G02*
X157440000Y-122975170I2990000J462D01*
G01*
X147620000Y-124520000D02*
G75*
G03*
X147620000Y-124520000I-2500000J0D01*
G01*
X147680000Y-126065000D02*
X147680000Y-122975000D01*
X142130000Y-124519538D02*
G75*
G03*
X147680000Y-126064830I2990000J-462D01*
G01*
X142130000Y-124520462D02*
G75*
G02*
X147680000Y-122975170I2990000J462D01*
G01*
X138610000Y-120790000D02*
G75*
G03*
X138610000Y-120790000I-2500000J0D01*
G01*
X137554525Y-123408009D02*
X139099525Y-120731991D01*
X133520815Y-119294600D02*
G75*
G03*
X137554610Y-123407862I2589185J-1495400D01*
G01*
X133520353Y-119295400D02*
G75*
G02*
X139099440Y-120732138I2589647J-1494600D01*
G01*
X131710000Y-113890000D02*
G75*
G03*
X131710000Y-113890000I-2500000J0D01*
G01*
X129151991Y-116879525D02*
X131828009Y-115334525D01*
X127715400Y-111300353D02*
G75*
G03*
X129152138Y-116879440I1494600J-2589647D01*
G01*
X127714600Y-111300815D02*
G75*
G02*
X131827862Y-115334610I1495400J-2589185D01*
G01*
X127980000Y-104880000D02*
G75*
G03*
X127980000Y-104880000I-2500000J0D01*
G01*
X123935000Y-107440000D02*
X127025000Y-107440000D01*
X125480462Y-101890000D02*
G75*
G03*
X123935170Y-107440000I-462J-2990000D01*
G01*
X125479538Y-101890000D02*
G75*
G02*
X127024830Y-107440000I462J-2990000D01*
G01*
X131710000Y-86110000D02*
G75*
G03*
X131710000Y-86110000I-2500000J0D01*
G01*
X126591991Y-87554525D02*
X129268009Y-89099525D01*
X130705400Y-83520815D02*
G75*
G03*
X126592138Y-87554610I-1495400J-2589185D01*
G01*
X130704600Y-83520353D02*
G75*
G02*
X129267862Y-89099440I-1494600J-2589647D01*
G01*
X138610000Y-79210000D02*
G75*
G03*
X138610000Y-79210000I-2500000J0D01*
G01*
X133120475Y-79151991D02*
X134665475Y-81828009D01*
X138699647Y-77715400D02*
G75*
G03*
X133120560Y-79152138I-2589647J-1494600D01*
G01*
X138699185Y-77714600D02*
G75*
G02*
X134665390Y-81827862I-2589185J-1495400D01*
G01*
X147620000Y-75480000D02*
G75*
G03*
X147620000Y-75480000I-2500000J0D01*
G01*
X142560000Y-73935000D02*
X142560000Y-77025000D01*
X148110000Y-75480462D02*
G75*
G03*
X142560000Y-73935170I-2990000J462D01*
G01*
X148110000Y-75479538D02*
G75*
G02*
X142560000Y-77024830I-2990000J-462D01*
G01*
X157380000Y-75480000D02*
G75*
G03*
X157380000Y-75480000I-2500000J0D01*
G01*
X152320000Y-73935000D02*
X152320000Y-77025000D01*
X157870000Y-75480462D02*
G75*
G03*
X152320000Y-73935170I-2990000J462D01*
G01*
X157870000Y-75479538D02*
G75*
G02*
X152320000Y-77024830I-2990000J-462D01*
G01*
X166390000Y-79210000D02*
G75*
G03*
X166390000Y-79210000I-2500000J0D01*
G01*
X162445475Y-76591991D02*
X160900475Y-79268009D01*
X166479185Y-80705400D02*
G75*
G03*
X162445390Y-76592138I-2589185J1495400D01*
G01*
X166479647Y-80704600D02*
G75*
G02*
X160900560Y-79267862I-2589647J1494600D01*
G01*
X173290000Y-86110000D02*
G75*
G03*
X173290000Y-86110000I-2500000J0D01*
G01*
X170848009Y-83120475D02*
X168171991Y-84665475D01*
X172284600Y-88699647D02*
G75*
G03*
X170847862Y-83120560I-1494600J2589647D01*
G01*
X172285400Y-88699185D02*
G75*
G02*
X168172138Y-84665390I-1495400J2589185D01*
G01*
X177020000Y-95120000D02*
G75*
G03*
X177020000Y-95120000I-2500000J0D01*
G01*
X176065000Y-92560000D02*
X172975000Y-92560000D01*
X174519538Y-98110000D02*
G75*
G03*
X176064830Y-92560000I462J2990000D01*
G01*
X174520462Y-98110000D02*
G75*
G02*
X172975170Y-92560000I-462J2990000D01*
G01*
D10*
X150852380Y-78266666D02*
X150376190Y-78600000D01*
X150852380Y-78838095D02*
X149852380Y-78838095D01*
X149852380Y-78457142D01*
X149900000Y-78361904D01*
X149947619Y-78314285D01*
X150042857Y-78266666D01*
X150185714Y-78266666D01*
X150280952Y-78314285D01*
X150328571Y-78361904D01*
X150376190Y-78457142D01*
X150376190Y-78838095D01*
X150852380Y-77314285D02*
X150852380Y-77885714D01*
X150852380Y-77600000D02*
X149852380Y-77600000D01*
X149995238Y-77695238D01*
X150090476Y-77790476D01*
X150138095Y-77885714D01*
X122561904Y-91552380D02*
X122561904Y-90552380D01*
X122800000Y-90552380D01*
X122942857Y-90600000D01*
X123038095Y-90695238D01*
X123085714Y-90790476D01*
X123133333Y-90980952D01*
X123133333Y-91123809D01*
X123085714Y-91314285D01*
X123038095Y-91409523D01*
X122942857Y-91504761D01*
X122800000Y-91552380D01*
X122561904Y-91552380D01*
X123704761Y-90980952D02*
X123609523Y-90933333D01*
X123561904Y-90885714D01*
X123514285Y-90790476D01*
X123514285Y-90742857D01*
X123561904Y-90647619D01*
X123609523Y-90600000D01*
X123704761Y-90552380D01*
X123895238Y-90552380D01*
X123990476Y-90600000D01*
X124038095Y-90647619D01*
X124085714Y-90742857D01*
X124085714Y-90790476D01*
X124038095Y-90885714D01*
X123990476Y-90933333D01*
X123895238Y-90980952D01*
X123704761Y-90980952D01*
X123609523Y-91028571D01*
X123561904Y-91076190D01*
X123514285Y-91171428D01*
X123514285Y-91361904D01*
X123561904Y-91457142D01*
X123609523Y-91504761D01*
X123704761Y-91552380D01*
X123895238Y-91552380D01*
X123990476Y-91504761D01*
X124038095Y-91457142D01*
X124085714Y-91361904D01*
X124085714Y-91171428D01*
X124038095Y-91076190D01*
X123990476Y-91028571D01*
X123895238Y-90980952D01*
X171533333Y-100952380D02*
X171200000Y-100476190D01*
X170961904Y-100952380D02*
X170961904Y-99952380D01*
X171342857Y-99952380D01*
X171438095Y-100000000D01*
X171485714Y-100047619D01*
X171533333Y-100142857D01*
X171533333Y-100285714D01*
X171485714Y-100380952D01*
X171438095Y-100428571D01*
X171342857Y-100476190D01*
X170961904Y-100476190D01*
X172390476Y-100285714D02*
X172390476Y-100952380D01*
X172152380Y-99904761D02*
X171914285Y-100619047D01*
X172533333Y-100619047D01*
X150352380Y-121366666D02*
X149876190Y-121700000D01*
X150352380Y-121938095D02*
X149352380Y-121938095D01*
X149352380Y-121557142D01*
X149400000Y-121461904D01*
X149447619Y-121414285D01*
X149542857Y-121366666D01*
X149685714Y-121366666D01*
X149780952Y-121414285D01*
X149828571Y-121461904D01*
X149876190Y-121557142D01*
X149876190Y-121938095D01*
X149352380Y-121033333D02*
X149352380Y-120414285D01*
X149733333Y-120747619D01*
X149733333Y-120604761D01*
X149780952Y-120509523D01*
X149828571Y-120461904D01*
X149923809Y-120414285D01*
X150161904Y-120414285D01*
X150257142Y-120461904D01*
X150304761Y-120509523D01*
X150352380Y-120604761D01*
X150352380Y-120890476D01*
X150304761Y-120985714D01*
X150257142Y-121033333D01*
X128133333Y-100052380D02*
X127800000Y-99576190D01*
X127561904Y-100052380D02*
X127561904Y-99052380D01*
X127942857Y-99052380D01*
X128038095Y-99100000D01*
X128085714Y-99147619D01*
X128133333Y-99242857D01*
X128133333Y-99385714D01*
X128085714Y-99480952D01*
X128038095Y-99528571D01*
X127942857Y-99576190D01*
X127561904Y-99576190D01*
X128514285Y-99147619D02*
X128561904Y-99100000D01*
X128657142Y-99052380D01*
X128895238Y-99052380D01*
X128990476Y-99100000D01*
X129038095Y-99147619D01*
X129085714Y-99242857D01*
X129085714Y-99338095D01*
X129038095Y-99480952D01*
X128466666Y-100052380D01*
X129085714Y-100052380D01*
X158329331Y-66862815D02*
X158027461Y-67510178D01*
X157923929Y-67619526D01*
X157797365Y-67665592D01*
X157647767Y-67648375D01*
X157561452Y-67608126D01*
X158677499Y-67130252D02*
X158740781Y-67107220D01*
X158847221Y-67104311D01*
X159063008Y-67204935D01*
X159129199Y-67288342D01*
X159152232Y-67351624D01*
X159155140Y-67458064D01*
X159114890Y-67544379D01*
X159011359Y-67653727D01*
X158251973Y-67930121D01*
X158813020Y-68191741D01*
X131966463Y-71044561D02*
X132268333Y-71691924D01*
X132285550Y-71841521D01*
X132239484Y-71968085D01*
X132130136Y-72071617D01*
X132043821Y-72111866D01*
X133295389Y-71528250D02*
X132777499Y-71769747D01*
X133036444Y-71648998D02*
X132613826Y-70742691D01*
X132587885Y-70912413D01*
X132541819Y-71038977D01*
X132475629Y-71122384D01*
X179985714Y-96252380D02*
X179985714Y-95252380D01*
X180223809Y-95252380D01*
X180366666Y-95300000D01*
X180461904Y-95395238D01*
X180509523Y-95490476D01*
X180557142Y-95680952D01*
X180557142Y-95823809D01*
X180509523Y-96014285D01*
X180461904Y-96109523D01*
X180366666Y-96204761D01*
X180223809Y-96252380D01*
X179985714Y-96252380D01*
X180938095Y-95347619D02*
X180985714Y-95300000D01*
X181080952Y-95252380D01*
X181319047Y-95252380D01*
X181414285Y-95300000D01*
X181461904Y-95347619D01*
X181509523Y-95442857D01*
X181509523Y-95538095D01*
X181461904Y-95680952D01*
X180890476Y-96252380D01*
X181509523Y-96252380D01*
X182366666Y-95585714D02*
X182366666Y-96252380D01*
X182128571Y-95204761D02*
X181890476Y-95919047D01*
X182509523Y-95919047D01*
X172821488Y-75361250D02*
X173528595Y-74654144D01*
X173696954Y-74822502D01*
X173764297Y-74957189D01*
X173764297Y-75091876D01*
X173730625Y-75192892D01*
X173629610Y-75361250D01*
X173528595Y-75462266D01*
X173360236Y-75563281D01*
X173259221Y-75596953D01*
X173124534Y-75596953D01*
X172989847Y-75529609D01*
X172821488Y-75361250D01*
X174134687Y-75394922D02*
X174202030Y-75394922D01*
X174303045Y-75428594D01*
X174471404Y-75596953D01*
X174505076Y-75697968D01*
X174505076Y-75765311D01*
X174471404Y-75866327D01*
X174404061Y-75933670D01*
X174269374Y-76001014D01*
X173461251Y-76001014D01*
X173898984Y-76438747D01*
X174841793Y-75967342D02*
X175279526Y-76405075D01*
X174774450Y-76438747D01*
X174875465Y-76539762D01*
X174909137Y-76640777D01*
X174909137Y-76708121D01*
X174875465Y-76809136D01*
X174707106Y-76977495D01*
X174606091Y-77011166D01*
X174538748Y-77011166D01*
X174437732Y-76977495D01*
X174235702Y-76775464D01*
X174202030Y-76674449D01*
X174202030Y-76607105D01*
X148985714Y-66452380D02*
X148985714Y-65452380D01*
X149223809Y-65452380D01*
X149366666Y-65500000D01*
X149461904Y-65595238D01*
X149509523Y-65690476D01*
X149557142Y-65880952D01*
X149557142Y-66023809D01*
X149509523Y-66214285D01*
X149461904Y-66309523D01*
X149366666Y-66404761D01*
X149223809Y-66452380D01*
X148985714Y-66452380D01*
X149938095Y-65547619D02*
X149985714Y-65500000D01*
X150080952Y-65452380D01*
X150319047Y-65452380D01*
X150414285Y-65500000D01*
X150461904Y-65547619D01*
X150509523Y-65642857D01*
X150509523Y-65738095D01*
X150461904Y-65880952D01*
X149890476Y-66452380D01*
X150509523Y-66452380D01*
X150890476Y-65547619D02*
X150938095Y-65500000D01*
X151033333Y-65452380D01*
X151271428Y-65452380D01*
X151366666Y-65500000D01*
X151414285Y-65547619D01*
X151461904Y-65642857D01*
X151461904Y-65738095D01*
X151414285Y-65880952D01*
X150842857Y-66452380D01*
X151461904Y-66452380D01*
X129121488Y-74061251D02*
X129828595Y-73354145D01*
X129996954Y-73522503D01*
X130064297Y-73657190D01*
X130064297Y-73791877D01*
X130030625Y-73892893D01*
X129929610Y-74061251D01*
X129828595Y-74162267D01*
X129660236Y-74263282D01*
X129559221Y-74296954D01*
X129424534Y-74296954D01*
X129289847Y-74229610D01*
X129121488Y-74061251D01*
X130434687Y-74094923D02*
X130502030Y-74094923D01*
X130603045Y-74128595D01*
X130771404Y-74296954D01*
X130805076Y-74397969D01*
X130805076Y-74465312D01*
X130771404Y-74566328D01*
X130704061Y-74633671D01*
X130569374Y-74701015D01*
X129761251Y-74701015D01*
X130198984Y-75138748D01*
X130872419Y-75812183D02*
X130468358Y-75408122D01*
X130670389Y-75610152D02*
X131377496Y-74903045D01*
X131209137Y-74936717D01*
X131074450Y-74936717D01*
X130973435Y-74903045D01*
X117485714Y-96652380D02*
X117485714Y-95652380D01*
X117723809Y-95652380D01*
X117866666Y-95700000D01*
X117961904Y-95795238D01*
X118009523Y-95890476D01*
X118057142Y-96080952D01*
X118057142Y-96223809D01*
X118009523Y-96414285D01*
X117961904Y-96509523D01*
X117866666Y-96604761D01*
X117723809Y-96652380D01*
X117485714Y-96652380D01*
X118438095Y-95747619D02*
X118485714Y-95700000D01*
X118580952Y-95652380D01*
X118819047Y-95652380D01*
X118914285Y-95700000D01*
X118961904Y-95747619D01*
X119009523Y-95842857D01*
X119009523Y-95938095D01*
X118961904Y-96080952D01*
X118390476Y-96652380D01*
X119009523Y-96652380D01*
X119628571Y-95652380D02*
X119723809Y-95652380D01*
X119819047Y-95700000D01*
X119866666Y-95747619D01*
X119914285Y-95842857D01*
X119961904Y-96033333D01*
X119961904Y-96271428D01*
X119914285Y-96461904D01*
X119866666Y-96557142D01*
X119819047Y-96604761D01*
X119723809Y-96652380D01*
X119628571Y-96652380D01*
X119533333Y-96604761D01*
X119485714Y-96557142D01*
X119438095Y-96461904D01*
X119390476Y-96271428D01*
X119390476Y-96033333D01*
X119438095Y-95842857D01*
X119485714Y-95747619D01*
X119533333Y-95700000D01*
X119628571Y-95652380D01*
X124161251Y-120078511D02*
X123454145Y-119371404D01*
X123622503Y-119203045D01*
X123757190Y-119135702D01*
X123891877Y-119135702D01*
X123992893Y-119169374D01*
X124161251Y-119270389D01*
X124262267Y-119371404D01*
X124363282Y-119539763D01*
X124396954Y-119640778D01*
X124396954Y-119775465D01*
X124329610Y-119910152D01*
X124161251Y-120078511D01*
X125238748Y-119001015D02*
X124834687Y-119405076D01*
X125036717Y-119203045D02*
X124329610Y-118495938D01*
X124363282Y-118664297D01*
X124363282Y-118798984D01*
X124329610Y-118900000D01*
X125575465Y-118664297D02*
X125710152Y-118529610D01*
X125743824Y-118428595D01*
X125743824Y-118361251D01*
X125710152Y-118192893D01*
X125609137Y-118024534D01*
X125339763Y-117755160D01*
X125238748Y-117721488D01*
X125171404Y-117721488D01*
X125070389Y-117755160D01*
X124935702Y-117889847D01*
X124902030Y-117990862D01*
X124902030Y-118058206D01*
X124935702Y-118159221D01*
X125104061Y-118327580D01*
X125205076Y-118361251D01*
X125272419Y-118361251D01*
X125373435Y-118327580D01*
X125508122Y-118192893D01*
X125541793Y-118091877D01*
X125541793Y-118024534D01*
X125508122Y-117923519D01*
X145952380Y-133014285D02*
X144952380Y-133014285D01*
X144952380Y-132776190D01*
X145000000Y-132633333D01*
X145095238Y-132538095D01*
X145190476Y-132490476D01*
X145380952Y-132442857D01*
X145523809Y-132442857D01*
X145714285Y-132490476D01*
X145809523Y-132538095D01*
X145904761Y-132633333D01*
X145952380Y-132776190D01*
X145952380Y-133014285D01*
X145952380Y-131490476D02*
X145952380Y-132061904D01*
X145952380Y-131776190D02*
X144952380Y-131776190D01*
X145095238Y-131871428D01*
X145190476Y-131966666D01*
X145238095Y-132061904D01*
X145380952Y-130919047D02*
X145333333Y-131014285D01*
X145285714Y-131061904D01*
X145190476Y-131109523D01*
X145142857Y-131109523D01*
X145047619Y-131061904D01*
X145000000Y-131014285D01*
X144952380Y-130919047D01*
X144952380Y-130728571D01*
X145000000Y-130633333D01*
X145047619Y-130585714D01*
X145142857Y-130538095D01*
X145190476Y-130538095D01*
X145285714Y-130585714D01*
X145333333Y-130633333D01*
X145380952Y-130728571D01*
X145380952Y-130919047D01*
X145428571Y-131014285D01*
X145476190Y-131061904D01*
X145571428Y-131109523D01*
X145761904Y-131109523D01*
X145857142Y-131061904D01*
X145904761Y-131014285D01*
X145952380Y-130919047D01*
X145952380Y-130728571D01*
X145904761Y-130633333D01*
X145857142Y-130585714D01*
X145761904Y-130538095D01*
X145571428Y-130538095D01*
X145476190Y-130585714D01*
X145428571Y-130633333D01*
X145380952Y-130728571D01*
X167821488Y-124761251D02*
X168528595Y-124054145D01*
X168696954Y-124222503D01*
X168764297Y-124357190D01*
X168764297Y-124491877D01*
X168730625Y-124592893D01*
X168629610Y-124761251D01*
X168528595Y-124862267D01*
X168360236Y-124963282D01*
X168259221Y-124996954D01*
X168124534Y-124996954D01*
X167989847Y-124929610D01*
X167821488Y-124761251D01*
X168898984Y-125838748D02*
X168494923Y-125434687D01*
X168696954Y-125636717D02*
X169404061Y-124929610D01*
X169235702Y-124963282D01*
X169101015Y-124963282D01*
X169000000Y-124929610D01*
X169841793Y-125367343D02*
X170313198Y-125838748D01*
X169303045Y-126242809D01*
X174585714Y-109152380D02*
X174585714Y-108152380D01*
X174823809Y-108152380D01*
X174966666Y-108200000D01*
X175061904Y-108295238D01*
X175109523Y-108390476D01*
X175157142Y-108580952D01*
X175157142Y-108723809D01*
X175109523Y-108914285D01*
X175061904Y-109009523D01*
X174966666Y-109104761D01*
X174823809Y-109152380D01*
X174585714Y-109152380D01*
X176109523Y-109152380D02*
X175538095Y-109152380D01*
X175823809Y-109152380D02*
X175823809Y-108152380D01*
X175728571Y-108295238D01*
X175633333Y-108390476D01*
X175538095Y-108438095D01*
X176966666Y-108152380D02*
X176776190Y-108152380D01*
X176680952Y-108200000D01*
X176633333Y-108247619D01*
X176538095Y-108390476D01*
X176490476Y-108580952D01*
X176490476Y-108961904D01*
X176538095Y-109057142D01*
X176585714Y-109104761D01*
X176680952Y-109152380D01*
X176871428Y-109152380D01*
X176966666Y-109104761D01*
X177014285Y-109057142D01*
X177061904Y-108961904D01*
X177061904Y-108723809D01*
X177014285Y-108628571D01*
X176966666Y-108580952D01*
X176871428Y-108533333D01*
X176680952Y-108533333D01*
X176585714Y-108580952D01*
X176538095Y-108628571D01*
X176490476Y-108723809D01*
X172622207Y-110684630D02*
X173122207Y-109818605D01*
X173328403Y-109937652D01*
X173428312Y-110050320D01*
X173463171Y-110180418D01*
X173456791Y-110286706D01*
X173402793Y-110475473D01*
X173331364Y-110599191D01*
X173194887Y-110740338D01*
X173106028Y-110799007D01*
X172975931Y-110833867D01*
X172828403Y-110803678D01*
X172622207Y-110684630D01*
X173941865Y-111446535D02*
X173446993Y-111160821D01*
X173694429Y-111303678D02*
X174194429Y-110437652D01*
X174040521Y-110513751D01*
X173910424Y-110548611D01*
X173804136Y-110542231D01*
X175225411Y-111032890D02*
X174813018Y-110794795D01*
X174533684Y-111183379D01*
X174598733Y-111165949D01*
X174705021Y-111172329D01*
X174911217Y-111291376D01*
X174969886Y-111380235D01*
X174987316Y-111445283D01*
X174980936Y-111551572D01*
X174861889Y-111757768D01*
X174773030Y-111816437D01*
X174707982Y-111833867D01*
X174601693Y-111827487D01*
X174395497Y-111708440D01*
X174336828Y-111619581D01*
X174319398Y-111554532D01*
X160281083Y-123654588D02*
X161147109Y-123154588D01*
X161266156Y-123360784D01*
X161296346Y-123508312D01*
X161261486Y-123638409D01*
X161202817Y-123727268D01*
X161061669Y-123863745D01*
X160937951Y-123935174D01*
X160749185Y-123989172D01*
X160642896Y-123995552D01*
X160512799Y-123960693D01*
X160400131Y-123860784D01*
X160281083Y-123654588D01*
X161042988Y-124974245D02*
X160757274Y-124479374D01*
X160900131Y-124726810D02*
X161766156Y-124226810D01*
X161594819Y-124215760D01*
X161464722Y-124180900D01*
X161375863Y-124122231D01*
X162048910Y-125383220D02*
X161471559Y-125716553D01*
X162259777Y-124986547D02*
X161522139Y-125137493D01*
X161831663Y-125673604D01*
X155585714Y-129352380D02*
X155585714Y-128352380D01*
X155823809Y-128352380D01*
X155966666Y-128400000D01*
X156061904Y-128495238D01*
X156109523Y-128590476D01*
X156157142Y-128780952D01*
X156157142Y-128923809D01*
X156109523Y-129114285D01*
X156061904Y-129209523D01*
X155966666Y-129304761D01*
X155823809Y-129352380D01*
X155585714Y-129352380D01*
X157109523Y-129352380D02*
X156538095Y-129352380D01*
X156823809Y-129352380D02*
X156823809Y-128352380D01*
X156728571Y-128495238D01*
X156633333Y-128590476D01*
X156538095Y-128638095D01*
X157442857Y-128352380D02*
X158061904Y-128352380D01*
X157728571Y-128733333D01*
X157871428Y-128733333D01*
X157966666Y-128780952D01*
X158014285Y-128828571D01*
X158061904Y-128923809D01*
X158061904Y-129161904D01*
X158014285Y-129257142D01*
X157966666Y-129304761D01*
X157871428Y-129352380D01*
X157585714Y-129352380D01*
X157490476Y-129304761D01*
X157442857Y-129257142D01*
X141252380Y-127214285D02*
X140252380Y-127214285D01*
X140252380Y-126976190D01*
X140300000Y-126833333D01*
X140395238Y-126738095D01*
X140490476Y-126690476D01*
X140680952Y-126642857D01*
X140823809Y-126642857D01*
X141014285Y-126690476D01*
X141109523Y-126738095D01*
X141204761Y-126833333D01*
X141252380Y-126976190D01*
X141252380Y-127214285D01*
X141252380Y-125690476D02*
X141252380Y-126261904D01*
X141252380Y-125976190D02*
X140252380Y-125976190D01*
X140395238Y-126071428D01*
X140490476Y-126166666D01*
X140538095Y-126261904D01*
X140347619Y-125309523D02*
X140300000Y-125261904D01*
X140252380Y-125166666D01*
X140252380Y-124928571D01*
X140300000Y-124833333D01*
X140347619Y-124785714D01*
X140442857Y-124738095D01*
X140538095Y-124738095D01*
X140680952Y-124785714D01*
X141252380Y-125357142D01*
X141252380Y-124738095D01*
X134222207Y-125184630D02*
X134722207Y-124318605D01*
X134928403Y-124437652D01*
X135028312Y-124550320D01*
X135063171Y-124680418D01*
X135056791Y-124786706D01*
X135002793Y-124975473D01*
X134931364Y-125099191D01*
X134794887Y-125240338D01*
X134706028Y-125299007D01*
X134575931Y-125333867D01*
X134428403Y-125303678D01*
X134222207Y-125184630D01*
X135541865Y-125946535D02*
X135046993Y-125660821D01*
X135294429Y-125803678D02*
X135794429Y-124937652D01*
X135640521Y-125013751D01*
X135510424Y-125048611D01*
X135404136Y-125042231D01*
X136366651Y-126422725D02*
X135871779Y-126137011D01*
X136119215Y-126279868D02*
X136619215Y-125413843D01*
X136465308Y-125489942D01*
X136335210Y-125524801D01*
X136228922Y-125518421D01*
X131674588Y-117898915D02*
X131174588Y-117032889D01*
X131380784Y-116913842D01*
X131528312Y-116883652D01*
X131658409Y-116918512D01*
X131747268Y-116977181D01*
X131883745Y-117118329D01*
X131955174Y-117242047D01*
X132009172Y-117430813D01*
X132015552Y-117537102D01*
X131980693Y-117667199D01*
X131880784Y-117779867D01*
X131674588Y-117898915D01*
X132994245Y-117137010D02*
X132499374Y-117422724D01*
X132746810Y-117279867D02*
X132246810Y-116413842D01*
X132235760Y-116585179D01*
X132200900Y-116715276D01*
X132142231Y-116804135D01*
X133030356Y-115961461D02*
X133112835Y-115913842D01*
X133219123Y-115907462D01*
X133284172Y-115924892D01*
X133373030Y-115983561D01*
X133509508Y-116124709D01*
X133628555Y-116330905D01*
X133682554Y-116519672D01*
X133688934Y-116625960D01*
X133671504Y-116691009D01*
X133612835Y-116779867D01*
X133530356Y-116827486D01*
X133424068Y-116833866D01*
X133359019Y-116816436D01*
X133270161Y-116757767D01*
X133133684Y-116616619D01*
X133014636Y-116410423D01*
X132960637Y-116221656D01*
X132954258Y-116115368D01*
X132971687Y-116050319D01*
X133030356Y-115961461D01*
X126261904Y-109452380D02*
X126261904Y-108452380D01*
X126500000Y-108452380D01*
X126642857Y-108500000D01*
X126738095Y-108595238D01*
X126785714Y-108690476D01*
X126833333Y-108880952D01*
X126833333Y-109023809D01*
X126785714Y-109214285D01*
X126738095Y-109309523D01*
X126642857Y-109404761D01*
X126500000Y-109452380D01*
X126261904Y-109452380D01*
X127309523Y-109452380D02*
X127500000Y-109452380D01*
X127595238Y-109404761D01*
X127642857Y-109357142D01*
X127738095Y-109214285D01*
X127785714Y-109023809D01*
X127785714Y-108642857D01*
X127738095Y-108547619D01*
X127690476Y-108500000D01*
X127595238Y-108452380D01*
X127404761Y-108452380D01*
X127309523Y-108500000D01*
X127261904Y-108547619D01*
X127214285Y-108642857D01*
X127214285Y-108880952D01*
X127261904Y-108976190D01*
X127309523Y-109023809D01*
X127404761Y-109071428D01*
X127595238Y-109071428D01*
X127690476Y-109023809D01*
X127738095Y-108976190D01*
X127785714Y-108880952D01*
X131722725Y-90665399D02*
X130856700Y-90165399D01*
X130975747Y-89959203D01*
X131088415Y-89859294D01*
X131218513Y-89824435D01*
X131324801Y-89830814D01*
X131513568Y-89884813D01*
X131637286Y-89956242D01*
X131778434Y-90092719D01*
X131837103Y-90181578D01*
X131871962Y-90311675D01*
X131841773Y-90459203D01*
X131722725Y-90665399D01*
X131309081Y-89381852D02*
X131642414Y-88804502D01*
X132294154Y-89675656D01*
X138986981Y-82660820D02*
X138486981Y-81794794D01*
X138693177Y-81675746D01*
X138840705Y-81645557D01*
X138970802Y-81680417D01*
X139059661Y-81739086D01*
X139196138Y-81880234D01*
X139267567Y-82003951D01*
X139321565Y-82192718D01*
X139327945Y-82299006D01*
X139293086Y-82429104D01*
X139193177Y-82541772D01*
X138986981Y-82660820D01*
X139724160Y-81080508D02*
X139559203Y-81175746D01*
X139500534Y-81264605D01*
X139483104Y-81329654D01*
X139472054Y-81500991D01*
X139526053Y-81689757D01*
X139716529Y-82019672D01*
X139805387Y-82078341D01*
X139870436Y-82095771D01*
X139976724Y-82089391D01*
X140141681Y-81994153D01*
X140200350Y-81905294D01*
X140217780Y-81840246D01*
X140211400Y-81733958D01*
X140092353Y-81527761D01*
X140003494Y-81469092D01*
X139938446Y-81451662D01*
X139832157Y-81458042D01*
X139667200Y-81553280D01*
X139608531Y-81642138D01*
X139591101Y-81707187D01*
X139597481Y-81813475D01*
X142561904Y-80352380D02*
X142561904Y-79352380D01*
X142800000Y-79352380D01*
X142942857Y-79400000D01*
X143038095Y-79495238D01*
X143085714Y-79590476D01*
X143133333Y-79780952D01*
X143133333Y-79923809D01*
X143085714Y-80114285D01*
X143038095Y-80209523D01*
X142942857Y-80304761D01*
X142800000Y-80352380D01*
X142561904Y-80352380D01*
X144038095Y-79352380D02*
X143561904Y-79352380D01*
X143514285Y-79828571D01*
X143561904Y-79780952D01*
X143657142Y-79733333D01*
X143895238Y-79733333D01*
X143990476Y-79780952D01*
X144038095Y-79828571D01*
X144085714Y-79923809D01*
X144085714Y-80161904D01*
X144038095Y-80257142D01*
X143990476Y-80304761D01*
X143895238Y-80352380D01*
X143657142Y-80352380D01*
X143561904Y-80304761D01*
X143514285Y-80257142D01*
X156861904Y-80252380D02*
X156861904Y-79252380D01*
X157100000Y-79252380D01*
X157242857Y-79300000D01*
X157338095Y-79395238D01*
X157385714Y-79490476D01*
X157433333Y-79680952D01*
X157433333Y-79823809D01*
X157385714Y-80014285D01*
X157338095Y-80109523D01*
X157242857Y-80204761D01*
X157100000Y-80252380D01*
X156861904Y-80252380D01*
X158290476Y-79585714D02*
X158290476Y-80252380D01*
X158052380Y-79204761D02*
X157814285Y-79919047D01*
X158433333Y-79919047D01*
X162734600Y-83822726D02*
X163234600Y-82956701D01*
X163440796Y-83075748D01*
X163540705Y-83188416D01*
X163575564Y-83318514D01*
X163569185Y-83424802D01*
X163515186Y-83613569D01*
X163443757Y-83737287D01*
X163307280Y-83878435D01*
X163218421Y-83937104D01*
X163088324Y-83971963D01*
X162940796Y-83941774D01*
X162734600Y-83822726D01*
X164018147Y-83409082D02*
X164554258Y-83718606D01*
X164075106Y-83881853D01*
X164198824Y-83953282D01*
X164257493Y-84042140D01*
X164274923Y-84107189D01*
X164268543Y-84213477D01*
X164149496Y-84419674D01*
X164060637Y-84478343D01*
X163995588Y-84495773D01*
X163889300Y-84489393D01*
X163641865Y-84346536D01*
X163583195Y-84257677D01*
X163565766Y-84192629D01*
X167039178Y-88786981D02*
X167905204Y-88286981D01*
X168024252Y-88493177D01*
X168054441Y-88640705D01*
X168019581Y-88770802D01*
X167960912Y-88859661D01*
X167819764Y-88996138D01*
X167696047Y-89067567D01*
X167507280Y-89121565D01*
X167400992Y-89127945D01*
X167270894Y-89093086D01*
X167158226Y-88993177D01*
X167039178Y-88786981D01*
X168298916Y-89159386D02*
X168363965Y-89176816D01*
X168452823Y-89235485D01*
X168571871Y-89441681D01*
X168578250Y-89547969D01*
X168560821Y-89613018D01*
X168502151Y-89701877D01*
X168419673Y-89749496D01*
X168272145Y-89779685D01*
X167491559Y-89570528D01*
X167801083Y-90106639D01*
X175961904Y-91452380D02*
X175961904Y-90452380D01*
X176200000Y-90452380D01*
X176342857Y-90500000D01*
X176438095Y-90595238D01*
X176485714Y-90690476D01*
X176533333Y-90880952D01*
X176533333Y-91023809D01*
X176485714Y-91214285D01*
X176438095Y-91309523D01*
X176342857Y-91404761D01*
X176200000Y-91452380D01*
X175961904Y-91452380D01*
X177485714Y-91452380D02*
X176914285Y-91452380D01*
X177200000Y-91452380D02*
X177200000Y-90452380D01*
X177104761Y-90595238D01*
X177009523Y-90690476D01*
X176914285Y-90738095D01*
%LPC*%
G36*
G01*
X150125000Y-75825000D02*
X150875000Y-75825000D01*
G75*
G02*
X151175000Y-76125000I0J-300000D01*
G01*
X151175000Y-76725000D01*
G75*
G02*
X150875000Y-77025000I-300000J0D01*
G01*
X150125000Y-77025000D01*
G75*
G02*
X149825000Y-76725000I0J300000D01*
G01*
X149825000Y-76125000D01*
G75*
G02*
X150125000Y-75825000I300000J0D01*
G01*
G37*
G36*
G01*
X150125000Y-74175000D02*
X150875000Y-74175000D01*
G75*
G02*
X151175000Y-74475000I0J-300000D01*
G01*
X151175000Y-75075000D01*
G75*
G02*
X150875000Y-75375000I-300000J0D01*
G01*
X150125000Y-75375000D01*
G75*
G02*
X149825000Y-75075000I0J300000D01*
G01*
X149825000Y-74475000D01*
G75*
G02*
X150125000Y-74175000I300000J0D01*
G01*
G37*
D12*
X125480000Y-93850000D03*
X125480000Y-96390000D03*
G36*
G01*
X174075000Y-99925000D02*
X174075000Y-100675000D01*
G75*
G02*
X173775000Y-100975000I-300000J0D01*
G01*
X173175000Y-100975000D01*
G75*
G02*
X172875000Y-100675000I0J300000D01*
G01*
X172875000Y-99925000D01*
G75*
G02*
X173175000Y-99625000I300000J0D01*
G01*
X173775000Y-99625000D01*
G75*
G02*
X174075000Y-99925000I0J-300000D01*
G01*
G37*
G36*
G01*
X175725000Y-99925000D02*
X175725000Y-100675000D01*
G75*
G02*
X175425000Y-100975000I-300000J0D01*
G01*
X174825000Y-100975000D01*
G75*
G02*
X174525000Y-100675000I0J300000D01*
G01*
X174525000Y-99925000D01*
G75*
G02*
X174825000Y-99625000I300000J0D01*
G01*
X175425000Y-99625000D01*
G75*
G02*
X175725000Y-99925000I0J-300000D01*
G01*
G37*
G36*
G01*
X150075000Y-123675000D02*
X149325000Y-123675000D01*
G75*
G02*
X149025000Y-123375000I0J300000D01*
G01*
X149025000Y-122775000D01*
G75*
G02*
X149325000Y-122475000I300000J0D01*
G01*
X150075000Y-122475000D01*
G75*
G02*
X150375000Y-122775000I0J-300000D01*
G01*
X150375000Y-123375000D01*
G75*
G02*
X150075000Y-123675000I-300000J0D01*
G01*
G37*
G36*
G01*
X150075000Y-125325000D02*
X149325000Y-125325000D01*
G75*
G02*
X149025000Y-125025000I0J300000D01*
G01*
X149025000Y-124425000D01*
G75*
G02*
X149325000Y-124125000I300000J0D01*
G01*
X150075000Y-124125000D01*
G75*
G02*
X150375000Y-124425000I0J-300000D01*
G01*
X150375000Y-125025000D01*
G75*
G02*
X150075000Y-125325000I-300000J0D01*
G01*
G37*
G36*
G01*
X126125000Y-99975000D02*
X126125000Y-99225000D01*
G75*
G02*
X126425000Y-98925000I300000J0D01*
G01*
X127025000Y-98925000D01*
G75*
G02*
X127325000Y-99225000I0J-300000D01*
G01*
X127325000Y-99975000D01*
G75*
G02*
X127025000Y-100275000I-300000J0D01*
G01*
X126425000Y-100275000D01*
G75*
G02*
X126125000Y-99975000I0J300000D01*
G01*
G37*
G36*
G01*
X124475000Y-99975000D02*
X124475000Y-99225000D01*
G75*
G02*
X124775000Y-98925000I300000J0D01*
G01*
X125375000Y-98925000D01*
G75*
G02*
X125675000Y-99225000I0J-300000D01*
G01*
X125675000Y-99975000D01*
G75*
G02*
X125375000Y-100275000I-300000J0D01*
G01*
X124775000Y-100275000D01*
G75*
G02*
X124475000Y-99975000I0J300000D01*
G01*
G37*
D13*
X161567115Y-69971727D03*
X163832885Y-71028273D03*
X136167115Y-71028273D03*
X138432885Y-69971727D03*
D12*
X180000000Y-98730000D03*
X180000000Y-101270000D03*
G36*
G01*
X171337278Y-78422304D02*
X170842304Y-78917278D01*
G75*
G02*
X169286670Y-78917278I-777817J777817D01*
G01*
X169286670Y-78917278D01*
G75*
G02*
X169286670Y-77361644I777817J777817D01*
G01*
X169781644Y-76866670D01*
G75*
G02*
X171337278Y-76866670I777817J-777817D01*
G01*
X171337278Y-76866670D01*
G75*
G02*
X171337278Y-78422304I-777817J-777817D01*
G01*
G37*
G36*
G01*
X173133330Y-80218356D02*
X172638356Y-80713330D01*
G75*
G02*
X171082722Y-80713330I-777817J777817D01*
G01*
X171082722Y-80713330D01*
G75*
G02*
X171082722Y-79157696I777817J777817D01*
G01*
X171577696Y-78662722D01*
G75*
G02*
X173133330Y-78662722I777817J-777817D01*
G01*
X173133330Y-78662722D01*
G75*
G02*
X173133330Y-80218356I-777817J-777817D01*
G01*
G37*
D14*
X148730000Y-70000000D03*
X151270000Y-70000000D03*
G36*
G01*
X128422304Y-78662722D02*
X128917278Y-79157696D01*
G75*
G02*
X128917278Y-80713330I-777817J-777817D01*
G01*
X128917278Y-80713330D01*
G75*
G02*
X127361644Y-80713330I-777817J777817D01*
G01*
X126866670Y-80218356D01*
G75*
G02*
X126866670Y-78662722I777817J777817D01*
G01*
X126866670Y-78662722D01*
G75*
G02*
X128422304Y-78662722I777817J-777817D01*
G01*
G37*
G36*
G01*
X130218356Y-76866670D02*
X130713330Y-77361644D01*
G75*
G02*
X130713330Y-78917278I-777817J-777817D01*
G01*
X130713330Y-78917278D01*
G75*
G02*
X129157696Y-78917278I-777817J777817D01*
G01*
X128662722Y-78422304D01*
G75*
G02*
X128662722Y-76866670I777817J777817D01*
G01*
X128662722Y-76866670D01*
G75*
G02*
X130218356Y-76866670I777817J-777817D01*
G01*
G37*
D12*
X120000000Y-101270000D03*
X120000000Y-98730000D03*
G36*
G01*
X128662722Y-121577696D02*
X129157696Y-121082722D01*
G75*
G02*
X130713330Y-121082722I777817J-777817D01*
G01*
X130713330Y-121082722D01*
G75*
G02*
X130713330Y-122638356I-777817J-777817D01*
G01*
X130218356Y-123133330D01*
G75*
G02*
X128662722Y-123133330I-777817J777817D01*
G01*
X128662722Y-123133330D01*
G75*
G02*
X128662722Y-121577696I777817J777817D01*
G01*
G37*
G36*
G01*
X126866670Y-119781644D02*
X127361644Y-119286670D01*
G75*
G02*
X128917278Y-119286670I777817J-777817D01*
G01*
X128917278Y-119286670D01*
G75*
G02*
X128917278Y-120842304I-777817J-777817D01*
G01*
X128422304Y-121337278D01*
G75*
G02*
X126866670Y-121337278I-777817J777817D01*
G01*
X126866670Y-121337278D01*
G75*
G02*
X126866670Y-119781644I777817J777817D01*
G01*
G37*
D14*
X151270000Y-130000000D03*
X148730000Y-130000000D03*
G36*
G01*
X171577696Y-121337278D02*
X171082722Y-120842304D01*
G75*
G02*
X171082722Y-119286670I777817J777817D01*
G01*
X171082722Y-119286670D01*
G75*
G02*
X172638356Y-119286670I777817J-777817D01*
G01*
X173133330Y-119781644D01*
G75*
G02*
X173133330Y-121337278I-777817J-777817D01*
G01*
X173133330Y-121337278D01*
G75*
G02*
X171577696Y-121337278I-777817J777817D01*
G01*
G37*
G36*
G01*
X169781644Y-123133330D02*
X169286670Y-122638356D01*
G75*
G02*
X169286670Y-121082722I777817J777817D01*
G01*
X169286670Y-121082722D01*
G75*
G02*
X170842304Y-121082722I777817J-777817D01*
G01*
X171337278Y-121577696D01*
G75*
G02*
X171337278Y-123133330I-777817J-777817D01*
G01*
X171337278Y-123133330D01*
G75*
G02*
X169781644Y-123133330I-777817J777817D01*
G01*
G37*
D12*
X174520000Y-105990000D03*
X174520000Y-103450000D03*
G36*
G01*
X170401891Y-113862224D02*
X171008109Y-114212224D01*
G75*
G02*
X171410737Y-115714852I-550000J-952628D01*
G01*
X171410737Y-115714852D01*
G75*
G02*
X169908109Y-116117480I-952628J550000D01*
G01*
X169301891Y-115767480D01*
G75*
G02*
X168899263Y-114264852I550000J952628D01*
G01*
X168899263Y-114264852D01*
G75*
G02*
X170401891Y-113862224I952628J-550000D01*
G01*
G37*
G36*
G01*
X171671891Y-111662520D02*
X172278109Y-112012520D01*
G75*
G02*
X172680737Y-113515148I-550000J-952628D01*
G01*
X172680737Y-113515148D01*
G75*
G02*
X171178109Y-113917776I-952628J550000D01*
G01*
X170571891Y-113567776D01*
G75*
G02*
X170169263Y-112065148I550000J952628D01*
G01*
X170169263Y-112065148D01*
G75*
G02*
X171671891Y-111662520I952628J-550000D01*
G01*
G37*
G36*
G01*
X163567776Y-120571891D02*
X163917776Y-121178109D01*
G75*
G02*
X163515148Y-122680737I-952628J-550000D01*
G01*
X163515148Y-122680737D01*
G75*
G02*
X162012520Y-122278109I-550000J952628D01*
G01*
X161662520Y-121671891D01*
G75*
G02*
X162065148Y-120169263I952628J550000D01*
G01*
X162065148Y-120169263D01*
G75*
G02*
X163567776Y-120571891I550000J-952628D01*
G01*
G37*
G36*
G01*
X165767480Y-119301891D02*
X166117480Y-119908109D01*
G75*
G02*
X165714852Y-121410737I-952628J-550000D01*
G01*
X165714852Y-121410737D01*
G75*
G02*
X164212224Y-121008109I-550000J952628D01*
G01*
X163862224Y-120401891D01*
G75*
G02*
X164264852Y-118899263I952628J550000D01*
G01*
X164264852Y-118899263D01*
G75*
G02*
X165767480Y-119301891I550000J-952628D01*
G01*
G37*
D14*
X153610000Y-124520000D03*
X156150000Y-124520000D03*
X143850000Y-124520000D03*
X146390000Y-124520000D03*
G36*
G01*
X136137776Y-120401891D02*
X135787776Y-121008109D01*
G75*
G02*
X134285148Y-121410737I-952628J550000D01*
G01*
X134285148Y-121410737D01*
G75*
G02*
X133882520Y-119908109I550000J952628D01*
G01*
X134232520Y-119301891D01*
G75*
G02*
X135735148Y-118899263I952628J-550000D01*
G01*
X135735148Y-118899263D01*
G75*
G02*
X136137776Y-120401891I-550000J-952628D01*
G01*
G37*
G36*
G01*
X138337480Y-121671891D02*
X137987480Y-122278109D01*
G75*
G02*
X136484852Y-122680737I-952628J550000D01*
G01*
X136484852Y-122680737D01*
G75*
G02*
X136082224Y-121178109I550000J952628D01*
G01*
X136432224Y-120571891D01*
G75*
G02*
X137934852Y-120169263I952628J-550000D01*
G01*
X137934852Y-120169263D01*
G75*
G02*
X138337480Y-121671891I-550000J-952628D01*
G01*
G37*
G36*
G01*
X129428109Y-113567776D02*
X128821891Y-113917776D01*
G75*
G02*
X127319263Y-113515148I-550000J952628D01*
G01*
X127319263Y-113515148D01*
G75*
G02*
X127721891Y-112012520I952628J550000D01*
G01*
X128328109Y-111662520D01*
G75*
G02*
X129830737Y-112065148I550000J-952628D01*
G01*
X129830737Y-112065148D01*
G75*
G02*
X129428109Y-113567776I-952628J-550000D01*
G01*
G37*
G36*
G01*
X130698109Y-115767480D02*
X130091891Y-116117480D01*
G75*
G02*
X128589263Y-115714852I-550000J952628D01*
G01*
X128589263Y-115714852D01*
G75*
G02*
X128991891Y-114212224I952628J550000D01*
G01*
X129598109Y-113862224D01*
G75*
G02*
X131100737Y-114264852I550000J-952628D01*
G01*
X131100737Y-114264852D01*
G75*
G02*
X130698109Y-115767480I-952628J-550000D01*
G01*
G37*
D12*
X125480000Y-103610000D03*
X125480000Y-106150000D03*
G36*
G01*
X129598109Y-86137776D02*
X128991891Y-85787776D01*
G75*
G02*
X128589263Y-84285148I550000J952628D01*
G01*
X128589263Y-84285148D01*
G75*
G02*
X130091891Y-83882520I952628J-550000D01*
G01*
X130698109Y-84232520D01*
G75*
G02*
X131100737Y-85735148I-550000J-952628D01*
G01*
X131100737Y-85735148D01*
G75*
G02*
X129598109Y-86137776I-952628J550000D01*
G01*
G37*
G36*
G01*
X128328109Y-88337480D02*
X127721891Y-87987480D01*
G75*
G02*
X127319263Y-86484852I550000J952628D01*
G01*
X127319263Y-86484852D01*
G75*
G02*
X128821891Y-86082224I952628J-550000D01*
G01*
X129428109Y-86432224D01*
G75*
G02*
X129830737Y-87934852I-550000J-952628D01*
G01*
X129830737Y-87934852D01*
G75*
G02*
X128328109Y-88337480I-952628J550000D01*
G01*
G37*
G36*
G01*
X136432224Y-79428109D02*
X136082224Y-78821891D01*
G75*
G02*
X136484852Y-77319263I952628J550000D01*
G01*
X136484852Y-77319263D01*
G75*
G02*
X137987480Y-77721891I550000J-952628D01*
G01*
X138337480Y-78328109D01*
G75*
G02*
X137934852Y-79830737I-952628J-550000D01*
G01*
X137934852Y-79830737D01*
G75*
G02*
X136432224Y-79428109I-550000J952628D01*
G01*
G37*
G36*
G01*
X134232520Y-80698109D02*
X133882520Y-80091891D01*
G75*
G02*
X134285148Y-78589263I952628J550000D01*
G01*
X134285148Y-78589263D01*
G75*
G02*
X135787776Y-78991891I550000J-952628D01*
G01*
X136137776Y-79598109D01*
G75*
G02*
X135735148Y-81100737I-952628J-550000D01*
G01*
X135735148Y-81100737D01*
G75*
G02*
X134232520Y-80698109I-550000J952628D01*
G01*
G37*
D14*
X146390000Y-75480000D03*
X143850000Y-75480000D03*
X156150000Y-75480000D03*
X153610000Y-75480000D03*
G36*
G01*
X163862224Y-79598109D02*
X164212224Y-78991891D01*
G75*
G02*
X165714852Y-78589263I952628J-550000D01*
G01*
X165714852Y-78589263D01*
G75*
G02*
X166117480Y-80091891I-550000J-952628D01*
G01*
X165767480Y-80698109D01*
G75*
G02*
X164264852Y-81100737I-952628J550000D01*
G01*
X164264852Y-81100737D01*
G75*
G02*
X163862224Y-79598109I550000J952628D01*
G01*
G37*
G36*
G01*
X161662520Y-78328109D02*
X162012520Y-77721891D01*
G75*
G02*
X163515148Y-77319263I952628J-550000D01*
G01*
X163515148Y-77319263D01*
G75*
G02*
X163917776Y-78821891I-550000J-952628D01*
G01*
X163567776Y-79428109D01*
G75*
G02*
X162065148Y-79830737I-952628J550000D01*
G01*
X162065148Y-79830737D01*
G75*
G02*
X161662520Y-78328109I550000J952628D01*
G01*
G37*
G36*
G01*
X170571891Y-86432224D02*
X171178109Y-86082224D01*
G75*
G02*
X172680737Y-86484852I550000J-952628D01*
G01*
X172680737Y-86484852D01*
G75*
G02*
X172278109Y-87987480I-952628J-550000D01*
G01*
X171671891Y-88337480D01*
G75*
G02*
X170169263Y-87934852I-550000J952628D01*
G01*
X170169263Y-87934852D01*
G75*
G02*
X170571891Y-86432224I952628J550000D01*
G01*
G37*
G36*
G01*
X169301891Y-84232520D02*
X169908109Y-83882520D01*
G75*
G02*
X171410737Y-84285148I550000J-952628D01*
G01*
X171410737Y-84285148D01*
G75*
G02*
X171008109Y-85787776I-952628J-550000D01*
G01*
X170401891Y-86137776D01*
G75*
G02*
X168899263Y-85735148I-550000J952628D01*
G01*
X168899263Y-85735148D01*
G75*
G02*
X169301891Y-84232520I952628J550000D01*
G01*
G37*
D12*
X174520000Y-96390000D03*
X174520000Y-93850000D03*
M02*
